STARTFONT 2.3
FONT -FontForge-STIX Two Math-Book-R-Normal--10-100-72-72-P-68-ISO10646-1
SIZE 10 72 72  2
FONTBOUNDINGBOX 41 44 -10 -17
COMMENT "Generated by fontforge, http://fontforge.sourceforge.net"
COMMENT "Copyright 2001-2021 The STIX Fonts Project Authors (https://github.com/stipub/stixfonts)"
STARTPROPERTIES 41
FOUNDRY "FontForge"
FAMILY_NAME "STIX Two Math"
WEIGHT_NAME "Book"
SLANT "R"
SETWIDTH_NAME "Normal"
ADD_STYLE_NAME ""
PIXEL_SIZE 10
POINT_SIZE 100
RESOLUTION_X 72
RESOLUTION_Y 72
SPACING "P"
AVERAGE_WIDTH 68
CHARSET_REGISTRY "ISO10646"
CHARSET_ENCODING "1"
FONTNAME_REGISTRY ""
CHARSET_COLLECTIONS "ASCII ISOLatin1Encoding ISO8859-2 ISO8859-5 ISO8859-7 ISO8859-9 ISO8859-4 ISO10646-1"
BITS_PER_PIXEL 2
FONT_NAME "STIXTwoMath-Regular"
FACE_NAME "STIX Two Math Regular"
COPYRIGHT "Copyright 2001-2021 The STIX Fonts Project Authors (https://github.com/stipub/stixfonts)"
FONT_VERSION "2.12 b168a"
FONT_ASCENT 8
FONT_DESCENT 2
UNDERLINE_POSITION -1
UNDERLINE_THICKNESS 1
X_HEIGHT 4
CAP_HEIGHT 6
RAW_ASCENT 762
RAW_DESCENT 238
NORM_SPACE 2
RELATIVE_WEIGHT 40
RELATIVE_SETWIDTH 50
SUPERSCRIPT_X 0
SUPERSCRIPT_Y 5
SUPERSCRIPT_SIZE 5
SUBSCRIPT_X 0
SUBSCRIPT_Y 2
SUBSCRIPT_SIZE 5
FIGURE_WIDTH 5
AVG_LOWERCASE_WIDTH 50
AVG_UPPERCASE_WIDTH 67
ENDPROPERTIES
CHARS 6611
STARTCHAR space
ENCODING 32
SWIDTH 235 0
DWIDTH 2 0
BBX 1 1 0 0
BITMAP
00
ENDCHAR
STARTCHAR exclam
ENCODING 33
SWIDTH 283 0
DWIDTH 3 0
BBX 1 7 1 0
BITMAP
80
C0
80
80
40
00
C0
ENDCHAR
STARTCHAR quotedbl
ENCODING 34
SWIDTH 334 0
DWIDTH 3 0
BBX 3 2 0 5
BITMAP
58
48
ENDCHAR
STARTCHAR numbersign
ENCODING 35
SWIDTH 702 0
DWIDTH 7 0
BBX 7 7 0 0
BITMAP
0810
0850
19A4
0880
6990
1480
1080
ENDCHAR
STARTCHAR dollar
ENCODING 36
SWIDTH 495 0
DWIDTH 5 0
BBX 5 8 0 -1
BITMAP
2A00
9440
6800
1E00
0640
4580
6A00
0400
ENDCHAR
STARTCHAR percent
ENCODING 37
SWIDTH 692 0
DWIDTH 7 0
BBX 7 7 0 0
BITMAP
2410
5640
9440
1550
0184
0544
1090
ENDCHAR
STARTCHAR ampersand
ENCODING 38
SWIDTH 736 0
DWIDTH 7 0
BBX 7 7 0 0
BITMAP
0940
1540
0D24
2920
9340
9180
6964
ENDCHAR
STARTCHAR quotesingle
ENCODING 39
SWIDTH 187 0
DWIDTH 2 0
BBX 2 2 0 5
BITMAP
50
40
ENDCHAR
STARTCHAR parenleft
ENCODING 40
SWIDTH 357 0
DWIDTH 4 0
BBX 3 9 0 -2
BITMAP
04
20
50
50
90
50
20
20
04
ENDCHAR
STARTCHAR parenright
ENCODING 41
SWIDTH 357 0
DWIDTH 4 0
BBX 3 9 0 -2
BITMAP
10
14
08
08
08
08
08
10
50
ENDCHAR
STARTCHAR asterisk
ENCODING 42
SWIDTH 410 0
DWIDTH 4 0
BBX 4 4 0 3
BITMAP
15
69
69
14
ENDCHAR
STARTCHAR plus
ENCODING 43
SWIDTH 720 0
DWIDTH 7 0
BBX 7 7 0 -1
BITMAP
0100
0200
0200
6BA4
0200
0200
0100
ENDCHAR
STARTCHAR comma
ENCODING 44
SWIDTH 245 0
DWIDTH 2 0
BBX 2 2 0 -1
BITMAP
60
10
ENDCHAR
STARTCHAR hyphen
ENCODING 45
SWIDTH 315 0
DWIDTH 3 0
BBX 3 1 0 2
BITMAP
64
ENDCHAR
STARTCHAR period
ENCODING 46
SWIDTH 245 0
DWIDTH 2 0
BBX 2 1 0 0
BITMAP
60
ENDCHAR
STARTCHAR slash
ENCODING 47
SWIDTH 386 0
DWIDTH 4 0
BBX 4 8 0 -1
BITMAP
05
08
08
14
10
20
50
40
ENDCHAR
STARTCHAR zero
ENCODING 48
SWIDTH 495 0
DWIDTH 5 0
BBX 5 7 0 0
BITMAP
2600
5240
9180
9180
9180
5240
2600
ENDCHAR
STARTCHAR one
ENCODING 49
SWIDTH 495 0
DWIDTH 5 0
BBX 3 7 1 0
BITMAP
B0
30
30
30
30
30
74
ENDCHAR
STARTCHAR two
ENCODING 50
SWIDTH 495 0
DWIDTH 5 0
BBX 5 7 0 0
BITMAP
2A00
4240
0240
0200
0800
1040
7B40
ENDCHAR
STARTCHAR three
ENCODING 51
SWIDTH 495 0
DWIDTH 5 0
BBX 5 7 0 0
BITMAP
2A00
0300
0200
0A00
0240
0140
6500
ENDCHAR
STARTCHAR four
ENCODING 52
SWIDTH 495 0
DWIDTH 5 0
BBX 5 7 0 0
BITMAP
0200
0A00
1600
1200
4200
AB80
0200
ENDCHAR
STARTCHAR five
ENCODING 53
SWIDTH 495 0
DWIDTH 5 0
BBX 5 7 0 0
BITMAP
1F40
1000
3D00
0240
0140
0140
6500
ENDCHAR
STARTCHAR six
ENCODING 54
SWIDTH 495 0
DWIDTH 5 0
BBX 5 7 0 0
BITMAP
0900
2000
6A00
6240
5180
6140
2600
ENDCHAR
STARTCHAR seven
ENCODING 55
SWIDTH 495 0
DWIDTH 5 0
BBX 5 7 0 0
BITMAP
7F80
4140
0200
0200
0900
0800
1400
ENDCHAR
STARTCHAR eight
ENCODING 56
SWIDTH 495 0
DWIDTH 5 0
BBX 5 7 0 0
BITMAP
1500
5240
3600
1D00
6740
5140
2600
ENDCHAR
STARTCHAR nine
ENCODING 57
SWIDTH 495 0
DWIDTH 5 0
BBX 5 7 0 0
BITMAP
2600
5240
9140
6240
2A40
0200
1800
ENDCHAR
STARTCHAR colon
ENCODING 58
SWIDTH 245 0
DWIDTH 2 0
BBX 2 5 0 0
BITMAP
60
00
00
00
60
ENDCHAR
STARTCHAR semicolon
ENCODING 59
SWIDTH 245 0
DWIDTH 2 0
BBX 2 6 0 -1
BITMAP
60
00
00
00
60
10
ENDCHAR
STARTCHAR less
ENCODING 60
SWIDTH 720 0
DWIDTH 7 0
BBX 6 6 1 0
BITMAP
0010
0190
2900
A000
1900
0190
ENDCHAR
STARTCHAR equal
ENCODING 61
SWIDTH 720 0
DWIDTH 7 0
BBX 7 3 0 1
BITMAP
6AA4
0000
6AA4
ENDCHAR
STARTCHAR greater
ENCODING 62
SWIDTH 720 0
DWIDTH 7 0
BBX 6 5 1 0
BITMAP
A000
0A00
01D0
1900
9000
ENDCHAR
STARTCHAR question
ENCODING 63
SWIDTH 411 0
DWIDTH 4 0
BBX 4 7 0 0
BITMAP
59
92
06
08
04
00
14
ENDCHAR
STARTCHAR at
ENCODING 64
SWIDTH 905 0
DWIDTH 9 0
BBX 9 9 0 -2
BITMAP
015400
140600
215600
562540
552540
552540
225A00
180000
069400
ENDCHAR
STARTCHAR A
ENCODING 65
SWIDTH 718 0
DWIDTH 7 0
BBX 7 7 0 0
BITMAP
0200
0640
0980
04D0
15A0
2030
A078
ENDCHAR
STARTCHAR B
ENCODING 66
SWIDTH 618 0
DWIDTH 6 0
BBX 6 7 0 0
BITMAP
7980
2490
2490
2A80
2460
2460
7990
ENDCHAR
STARTCHAR C
ENCODING 67
SWIDTH 670 0
DWIDTH 7 0
BBX 6 7 0 0
BITMAP
19B0
3020
6000
6000
6000
3410
1A90
ENDCHAR
STARTCHAR D
ENCODING 68
SWIDTH 730 0
DWIDTH 7 0
BBX 7 7 0 0
BITMAP
7990
2424
2418
2418
2418
2424
7990
ENDCHAR
STARTCHAR E
ENCODING 69
SWIDTH 626 0
DWIDTH 6 0
BBX 6 7 0 0
BITMAP
79A0
2410
2440
2980
2400
2410
79A0
ENDCHAR
STARTCHAR F
ENCODING 70
SWIDTH 588 0
DWIDTH 6 0
BBX 6 7 0 0
BITMAP
79A0
2410
2440
2980
2400
2400
7800
ENDCHAR
STARTCHAR G
ENCODING 71
SWIDTH 720 0
DWIDTH 7 0
BBX 7 7 0 0
BITMAP
19B0
3020
6000
6064
6024
3024
19A0
ENDCHAR
STARTCHAR H
ENCODING 72
SWIDTH 777 0
DWIDTH 8 0
BBX 7 7 1 0
BITMAP
A0A4
9060
9060
A5A0
9060
9060
A0A4
ENDCHAR
STARTCHAR I
ENCODING 73
SWIDTH 357 0
DWIDTH 4 0
BBX 3 7 0 0
BITMAP
78
24
24
24
24
24
78
ENDCHAR
STARTCHAR J
ENCODING 74
SWIDTH 396 0
DWIDTH 4 0
BBX 4 7 0 0
BITMAP
2D
0C
08
08
08
08
A4
ENDCHAR
STARTCHAR K
ENCODING 75
SWIDTH 702 0
DWIDTH 7 0
BBX 7 7 0 0
BITMAP
78A4
2480
2600
2900
2640
24D0
78B4
ENDCHAR
STARTCHAR L
ENCODING 76
SWIDTH 585 0
DWIDTH 6 0
BBX 6 7 0 0
BITMAP
7800
2400
2400
2400
2400
2410
7990
ENDCHAR
STARTCHAR M
ENCODING 77
SWIDTH 895 0
DWIDTH 9 0
BBX 8 7 0 0
BITMAP
780B
2C0A
1916
1626
1356
11C6
748B
ENDCHAR
STARTCHAR N
ENCODING 78
SWIDTH 742 0
DWIDTH 7 0
BBX 7 7 0 0
BITMAP
7428
2C14
1614
1254
10D4
2074
7414
ENDCHAR
STARTCHAR O
ENCODING 79
SWIDTH 738 0
DWIDTH 7 0
BBX 7 7 0 0
BITMAP
1990
3024
6018
601C
6018
3024
1950
ENDCHAR
STARTCHAR P
ENCODING 80
SWIDTH 569 0
DWIDTH 6 0
BBX 6 7 0 0
BITMAP
7980
2490
2490
2940
2400
2400
7800
ENDCHAR
STARTCHAR Q
ENCODING 81
SWIDTH 737 0
DWIDTH 7 0
BBX 7 9 0 -2
BITMAP
1990
3024
6018
601C
6018
3024
1990
01D0
0064
ENDCHAR
STARTCHAR R
ENCODING 82
SWIDTH 659 0
DWIDTH 7 0
BBX 7 7 0 0
BITMAP
7980
2490
2490
2A40
2680
24D0
7874
ENDCHAR
STARTCHAR S
ENCODING 83
SWIDTH 504 0
DWIDTH 5 0
BBX 5 7 0 0
BITMAP
2640
5040
7400
1E00
0280
8180
A600
ENDCHAR
STARTCHAR T
ENCODING 84
SWIDTH 603 0
DWIDTH 6 0
BBX 6 7 0 0
BITMAP
AA60
4510
0500
0500
0500
0500
0A00
ENDCHAR
STARTCHAR U
ENCODING 85
SWIDTH 752 0
DWIDTH 8 0
BBX 7 7 0 0
BITMAP
7828
2014
2014
2014
2014
2410
0A90
ENDCHAR
STARTCHAR V
ENCODING 86
SWIDTH 680 0
DWIDTH 7 0
BBX 7 7 0 0
BITMAP
B424
3020
2810
0C40
0980
0740
0200
ENDCHAR
STARTCHAR W
ENCODING 87
SWIDTH 944 0
DWIDTH 9 0
BBX 9 7 0 0
BITMAP
B5D1C0
309040
24A100
187200
0D6900
071C00
020800
ENDCHAR
STARTCHAR X
ENCODING 88
SWIDTH 664 0
DWIDTH 7 0
BBX 7 7 0 0
BITMAP
7864
1880
0A40
0700
0A80
10D0
60B4
ENDCHAR
STARTCHAR Y
ENCODING 89
SWIDTH 647 0
DWIDTH 6 0
BBX 7 7 0 0
BITMAP
B464
2440
0C40
0A00
0600
0600
0B40
ENDCHAR
STARTCHAR Z
ENCODING 90
SWIDTH 594 0
DWIDTH 6 0
BBX 6 7 0 0
BITMAP
65D0
4180
0300
0900
1800
3410
B590
ENDCHAR
STARTCHAR bracketleft
ENCODING 91
SWIDTH 349 0
DWIDTH 3 0
BBX 2 10 1 -2
BITMAP
90
80
80
80
80
80
80
80
80
90
ENDCHAR
STARTCHAR backslash
ENCODING 92
SWIDTH 385 0
DWIDTH 4 0
BBX 4 8 0 -1
BITMAP
40
50
20
10
14
08
08
05
ENDCHAR
STARTCHAR bracketright
ENCODING 93
SWIDTH 349 0
DWIDTH 3 0
BBX 2 10 1 -2
BITMAP
50
60
60
60
60
60
60
60
60
60
ENDCHAR
STARTCHAR asciicircum
ENCODING 94
SWIDTH 480 0
DWIDTH 5 0
BBX 5 4 0 3
BITMAP
0800
2500
2200
4140
ENDCHAR
STARTCHAR underscore
ENCODING 95
SWIDTH 512 0
DWIDTH 5 0
BBX 5 1 0 -2
BITMAP
AA80
ENDCHAR
STARTCHAR grave
ENCODING 96
SWIDTH 222 0
DWIDTH 2 0
BBX 2 2 0 5
BITMAP
50
20
ENDCHAR
STARTCHAR a
ENCODING 97
SWIDTH 480 0
DWIDTH 5 0
BBX 5 5 0 0
BITMAP
1500
5200
1700
9200
6640
ENDCHAR
STARTCHAR b
ENCODING 98
SWIDTH 522 0
DWIDTH 5 0
BBX 5 7 0 0
BITMAP
6000
6000
6B40
6180
60C0
6180
2600
ENDCHAR
STARTCHAR c
ENCODING 99
SWIDTH 446 0
DWIDTH 4 0
BBX 4 5 0 0
BITMAP
16
51
80
90
2A
ENDCHAR
STARTCHAR d
ENCODING 100
SWIDTH 539 0
DWIDTH 5 0
BBX 5 7 0 0
BITMAP
0240
0140
2640
5140
9140
9140
3A80
ENDCHAR
STARTCHAR e
ENCODING 101
SWIDTH 464 0
DWIDTH 5 0
BBX 4 5 0 0
BITMAP
16
A6
90
60
2A
ENDCHAR
STARTCHAR f
ENCODING 102
SWIDTH 307 0
DWIDTH 3 0
BBX 4 7 0 0
BITMAP
16
20
74
20
20
30
74
ENDCHAR
STARTCHAR g
ENCODING 103
SWIDTH 484 0
DWIDTH 5 0
BBX 5 7 0 -2
BITMAP
2740
5200
6500
5000
7A40
4080
6900
ENDCHAR
STARTCHAR h
ENCODING 104
SWIDTH 577 0
DWIDTH 6 0
BBX 6 7 0 0
BITMAP
6000
2000
3640
3080
2080
2080
75D0
ENDCHAR
STARTCHAR i
ENCODING 105
SWIDTH 285 0
DWIDTH 3 0
BBX 3 7 0 0
BITMAP
30
00
60
20
20
20
74
ENDCHAR
STARTCHAR j
ENCODING 106
SWIDTH 263 0
DWIDTH 3 0
BBX 3 9 -1 -2
BITMAP
08
00
18
08
08
08
08
08
A4
ENDCHAR
STARTCHAR k
ENCODING 107
SWIDTH 542 0
DWIDTH 5 0
BBX 5 7 0 0
BITMAP
6000
2000
2240
2500
3800
2600
7680
ENDCHAR
STARTCHAR l
ENCODING 108
SWIDTH 283 0
DWIDTH 3 0
BBX 3 7 0 0
BITMAP
60
20
20
20
20
20
74
ENDCHAR
STARTCHAR m
ENCODING 109
SWIDTH 852 0
DWIDTH 9 0
BBX 8 5 0 0
BITMAP
6659
3086
2086
2086
75CA
ENDCHAR
STARTCHAR n
ENCODING 110
SWIDTH 576 0
DWIDTH 6 0
BBX 6 5 0 0
BITMAP
6640
3080
2080
2080
75D0
ENDCHAR
STARTCHAR o
ENCODING 111
SWIDTH 514 0
DWIDTH 5 0
BBX 5 5 0 0
BITMAP
2600
5180
9080
5180
2600
ENDCHAR
STARTCHAR p
ENCODING 112
SWIDTH 537 0
DWIDTH 5 0
BBX 5 7 0 -2
BITMAP
6A40
30C0
20C0
2080
3640
2000
7400
ENDCHAR
STARTCHAR q
ENCODING 113
SWIDTH 521 0
DWIDTH 5 0
BBX 5 7 0 -2
BITMAP
2640
5140
9140
9140
2A40
0140
0280
ENDCHAR
STARTCHAR r
ENCODING 114
SWIDTH 380 0
DWIDTH 4 0
BBX 4 5 0 0
BITMAP
6A
30
20
20
74
ENDCHAR
STARTCHAR s
ENCODING 115
SWIDTH 395 0
DWIDTH 4 0
BBX 4 5 0 0
BITMAP
55
91
28
46
99
ENDCHAR
STARTCHAR t
ENCODING 116
SWIDTH 315 0
DWIDTH 3 0
BBX 3 7 0 0
BITMAP
10
20
74
20
20
20
24
ENDCHAR
STARTCHAR u
ENCODING 117
SWIDTH 570 0
DWIDTH 6 0
BBX 5 5 0 0
BITMAP
6180
2080
2080
2080
2980
ENDCHAR
STARTCHAR v
ENCODING 118
SWIDTH 481 0
DWIDTH 5 0
BBX 5 5 0 0
BITMAP
A180
2100
2100
1900
0800
ENDCHAR
STARTCHAR w
ENCODING 119
SWIDTH 749 0
DWIDTH 7 0
BBX 8 5 0 0
BITMAP
A249
2184
2184
19A0
0860
ENDCHAR
STARTCHAR x
ENCODING 120
SWIDTH 479 0
DWIDTH 5 0
BBX 5 5 0 0
BITMAP
7240
2500
0C00
1600
9340
ENDCHAR
STARTCHAR y
ENCODING 121
SWIDTH 483 0
DWIDTH 5 0
BBX 5 7 0 -2
BITMAP
A180
2100
2500
1900
0800
0400
A000
ENDCHAR
STARTCHAR z
ENCODING 122
SWIDTH 458 0
DWIDTH 5 0
BBX 5 5 0 0
BITMAP
5700
4900
1800
2000
A640
ENDCHAR
STARTCHAR braceleft
ENCODING 123
SWIDTH 327 0
DWIDTH 3 0
BBX 3 10 0 -2
BITMAP
14
20
20
20
20
50
20
20
20
24
ENDCHAR
STARTCHAR bar
ENCODING 124
SWIDTH 267 0
DWIDTH 3 0
BBX 1 9 1 -2
BITMAP
80
80
80
80
80
80
80
80
80
ENDCHAR
STARTCHAR braceright
ENCODING 125
SWIDTH 327 0
DWIDTH 3 0
BBX 3 10 0 -2
BITMAP
50
24
14
24
14
08
20
24
14
60
ENDCHAR
STARTCHAR asciitilde
ENCODING 126
SWIDTH 557 0
DWIDTH 6 0
BBX 5 1 0 2
BITMAP
7F80
ENDCHAR
STARTCHAR uni00A0
ENCODING 160
SWIDTH 235 0
DWIDTH 2 0
BBX 1 1 0 0
BITMAP
00
ENDCHAR
STARTCHAR exclamdown
ENCODING 161
SWIDTH 282 0
DWIDTH 3 0
BBX 1 7 1 -2
BITMAP
C0
40
40
80
80
C0
80
ENDCHAR
STARTCHAR cent
ENCODING 162
SWIDTH 495 0
DWIDTH 5 0
BBX 5 7 0 0
BITMAP
0400
1A00
5500
9400
6440
2E00
0400
ENDCHAR
STARTCHAR sterling
ENCODING 163
SWIDTH 495 0
DWIDTH 5 0
BBX 5 7 0 0
BITMAP
0640
1440
2400
6900
1400
6440
5A40
ENDCHAR
STARTCHAR currency
ENCODING 164
SWIDTH 617 0
DWIDTH 6 0
BBX 6 6 0 0
BITMAP
4010
2A90
2080
2050
2080
6A90
ENDCHAR
STARTCHAR yen
ENCODING 165
SWIDTH 495 0
DWIDTH 5 0
BBX 5 7 0 0
BITMAP
A140
6100
2500
1900
1D00
1D00
1D00
ENDCHAR
STARTCHAR brokenbar
ENCODING 166
SWIDTH 267 0
DWIDTH 3 0
BBX 1 7 1 0
BITMAP
80
80
80
00
80
80
80
ENDCHAR
STARTCHAR section
ENCODING 167
SWIDTH 491 0
DWIDTH 5 0
BBX 3 9 1 -2
BITMAP
54
88
A0
68
88
94
24
48
54
ENDCHAR
STARTCHAR dieresis
ENCODING 168
SWIDTH 392 0
DWIDTH 4 0
BBX 4 1 0 6
BITMAP
95
ENDCHAR
STARTCHAR copyright
ENCODING 169
SWIDTH 781 0
DWIDTH 8 0
BBX 8 8 0 0
BITMAP
0550
1014
5554
4805
4805
5684
1014
0550
ENDCHAR
STARTCHAR ordfeminine
ENCODING 170
SWIDTH 410 0
DWIDTH 4 0
BBX 4 4 0 3
BITMAP
58
19
55
6A
ENDCHAR
STARTCHAR guillemotleft
ENCODING 171
SWIDTH 517 0
DWIDTH 5 0
BBX 5 4 0 0
BITMAP
2100
5500
2200
0440
ENDCHAR
STARTCHAR logicalnot
ENCODING 172
SWIDTH 720 0
DWIDTH 7 0
BBX 7 3 0 1
BITMAP
6AA4
0014
0014
ENDCHAR
STARTCHAR uni00AD
ENCODING 173
SWIDTH 315 0
DWIDTH 3 0
BBX 3 1 0 2
BITMAP
64
ENDCHAR
STARTCHAR registered
ENCODING 174
SWIDTH 413 0
DWIDTH 4 0
BBX 4 4 0 3
BITMAP
14
54
55
14
ENDCHAR
STARTCHAR macron
ENCODING 175
SWIDTH 350 0
DWIDTH 4 0
BBX 3 1 0 6
BITMAP
68
ENDCHAR
STARTCHAR degree
ENCODING 176
SWIDTH 409 0
DWIDTH 4 0
BBX 4 4 0 4
BITMAP
14
51
51
18
ENDCHAR
STARTCHAR plusminus
ENCODING 177
SWIDTH 720 0
DWIDTH 7 0
BBX 7 6 0 0
BITMAP
0200
0200
6BA4
0200
0100
6AA4
ENDCHAR
STARTCHAR twosuperior
ENCODING 178
SWIDTH 373 0
DWIDTH 4 0
BBX 4 5 0 3
BITMAP
68
09
08
10
A9
ENDCHAR
STARTCHAR threesuperior
ENCODING 179
SWIDTH 374 0
DWIDTH 4 0
BBX 4 5 0 3
BITMAP
68
08
18
05
54
ENDCHAR
STARTCHAR acute
ENCODING 180
SWIDTH 222 0
DWIDTH 2 0
BBX 2 2 0 5
BITMAP
10
50
ENDCHAR
STARTCHAR uni00B5
ENCODING 181
SWIDTH 556 0
DWIDTH 6 0
BBX 6 7 0 -2
BITMAP
6140
5140
5140
5240
6990
5000
9000
ENDCHAR
STARTCHAR paragraph
ENCODING 182
SWIDTH 605 0
DWIDTH 6 0
BBX 5 9 0 -2
BITMAP
2A80
5580
5580
2980
0580
0580
0580
0980
0440
ENDCHAR
STARTCHAR periodcentered
ENCODING 183
SWIDTH 282 0
DWIDTH 3 0
BBX 1 1 1 2
BITMAP
C0
ENDCHAR
STARTCHAR cedilla
ENCODING 184
SWIDTH 247 0
DWIDTH 2 0
BBX 2 2 0 -2
BITMAP
20
50
ENDCHAR
STARTCHAR onesuperior
ENCODING 185
SWIDTH 343 0
DWIDTH 3 0
BBX 3 5 0 3
BITMAP
60
20
20
20
64
ENDCHAR
STARTCHAR ordmasculine
ENCODING 186
SWIDTH 432 0
DWIDTH 4 0
BBX 4 4 0 3
BITMAP
25
82
82
65
ENDCHAR
STARTCHAR guillemotright
ENCODING 187
SWIDTH 517 0
DWIDTH 5 0
BBX 5 4 0 0
BITMAP
2200
1980
2200
4000
ENDCHAR
STARTCHAR onequarter
ENCODING 188
SWIDTH 861 0
DWIDTH 9 0
BBX 9 7 0 0
BITMAP
701400
201000
204000
204600
261600
052B40
040100
ENDCHAR
STARTCHAR onehalf
ENCODING 189
SWIDTH 889 0
DWIDTH 9 0
BBX 8 7 1 0
BITMAP
C050
8040
8128
8145
9408
1410
1069
ENDCHAR
STARTCHAR threequarters
ENCODING 190
SWIDTH 861 0
DWIDTH 9 0
BBX 9 7 0 0
BITMAP
281400
081000
184000
094600
561600
052B40
040100
ENDCHAR
STARTCHAR questiondown
ENCODING 191
SWIDTH 411 0
DWIDTH 4 0
BBX 4 7 0 -2
BITMAP
18
00
14
20
50
92
65
ENDCHAR
STARTCHAR Agrave
ENCODING 192
SWIDTH 718 0
DWIDTH 7 0
BBX 7 9 0 0
BITMAP
0500
0240
0200
0640
0980
04D0
15A0
2030
A078
ENDCHAR
STARTCHAR Aacute
ENCODING 193
SWIDTH 718 0
DWIDTH 7 0
BBX 7 9 0 0
BITMAP
0140
0200
0200
0640
0980
04D0
15A0
2030
A078
ENDCHAR
STARTCHAR Acircumflex
ENCODING 194
SWIDTH 718 0
DWIDTH 7 0
BBX 7 9 0 0
BITMAP
0100
0540
0200
0640
0980
04D0
15A0
2030
A078
ENDCHAR
STARTCHAR Atilde
ENCODING 195
SWIDTH 718 0
DWIDTH 7 0
BBX 7 8 0 0
BITMAP
0680
0200
0640
0980
04D0
15A0
2030
A078
ENDCHAR
STARTCHAR Adieresis
ENCODING 196
SWIDTH 718 0
DWIDTH 7 0
BBX 7 8 0 0
BITMAP
0880
0200
0640
0980
04D0
15A0
2030
A078
ENDCHAR
STARTCHAR Aring
ENCODING 197
SWIDTH 718 0
DWIDTH 7 0
BBX 7 10 0 0
BITMAP
0100
0440
0140
0200
0640
0980
04D0
15A0
2030
A078
ENDCHAR
STARTCHAR AE
ENCODING 198
SWIDTH 894 0
DWIDTH 9 0
BBX 9 7 0 0
BITMAP
02D640
01C040
04C000
09DA00
10C100
10C040
A1D640
ENDCHAR
STARTCHAR Ccedilla
ENCODING 199
SWIDTH 670 0
DWIDTH 7 0
BBX 6 9 0 -2
BITMAP
19B0
3020
6000
6000
6000
3410
1A90
0140
0140
ENDCHAR
STARTCHAR Egrave
ENCODING 200
SWIDTH 626 0
DWIDTH 6 0
BBX 6 9 0 0
BITMAP
0400
0200
79A0
2410
2440
2980
2400
2410
79A0
ENDCHAR
STARTCHAR Eacute
ENCODING 201
SWIDTH 626 0
DWIDTH 6 0
BBX 6 9 0 0
BITMAP
0100
0500
79A0
2410
2440
2980
2400
2410
79A0
ENDCHAR
STARTCHAR Ecircumflex
ENCODING 202
SWIDTH 626 0
DWIDTH 6 0
BBX 6 9 0 0
BITMAP
0500
0940
79A0
2410
2440
2980
2400
2410
79A0
ENDCHAR
STARTCHAR Edieresis
ENCODING 203
SWIDTH 626 0
DWIDTH 6 0
BBX 6 8 0 0
BITMAP
1880
79A0
2410
2440
2980
2400
2410
79A0
ENDCHAR
STARTCHAR Igrave
ENCODING 204
SWIDTH 357 0
DWIDTH 4 0
BBX 3 9 0 0
BITMAP
10
14
78
24
24
24
24
24
78
ENDCHAR
STARTCHAR Iacute
ENCODING 205
SWIDTH 357 0
DWIDTH 4 0
BBX 3 9 0 0
BITMAP
04
20
78
24
24
24
24
24
78
ENDCHAR
STARTCHAR Icircumflex
ENCODING 206
SWIDTH 357 0
DWIDTH 4 0
BBX 3 9 0 0
BITMAP
14
58
78
24
24
24
24
24
78
ENDCHAR
STARTCHAR Idieresis
ENCODING 207
SWIDTH 357 0
DWIDTH 4 0
BBX 4 8 0 0
BITMAP
89
78
24
24
24
24
24
78
ENDCHAR
STARTCHAR Eth
ENCODING 208
SWIDTH 737 0
DWIDTH 7 0
BBX 7 7 0 0
BITMAP
7990
2424
2418
691C
2418
2424
7990
ENDCHAR
STARTCHAR Ntilde
ENCODING 209
SWIDTH 742 0
DWIDTH 7 0
BBX 7 8 0 0
BITMAP
0680
7428
2C14
1614
1254
10D4
2074
7414
ENDCHAR
STARTCHAR Ograve
ENCODING 210
SWIDTH 738 0
DWIDTH 7 0
BBX 7 9 0 0
BITMAP
0100
0140
1990
3024
6018
601C
6018
3024
1950
ENDCHAR
STARTCHAR Oacute
ENCODING 211
SWIDTH 738 0
DWIDTH 7 0
BBX 7 9 0 0
BITMAP
0140
0200
1990
3024
6018
601C
6018
3024
1950
ENDCHAR
STARTCHAR Ocircumflex
ENCODING 212
SWIDTH 738 0
DWIDTH 7 0
BBX 7 9 0 0
BITMAP
0100
0580
1990
3024
6018
601C
6018
3024
1950
ENDCHAR
STARTCHAR Otilde
ENCODING 213
SWIDTH 738 0
DWIDTH 7 0
BBX 7 8 0 0
BITMAP
0680
1990
3024
6018
601C
6018
3024
1950
ENDCHAR
STARTCHAR Odieresis
ENCODING 214
SWIDTH 738 0
DWIDTH 7 0
BBX 7 8 0 0
BITMAP
0890
1990
3024
6018
601C
6018
3024
1950
ENDCHAR
STARTCHAR multiply
ENCODING 215
SWIDTH 720 0
DWIDTH 7 0
BBX 5 5 1 0
BITMAP
9080
2600
0D00
2640
8080
ENDCHAR
STARTCHAR Oslash
ENCODING 216
SWIDTH 737 0
DWIDTH 7 0
BBX 7 7 0 0
BITMAP
19A0
3064
6058
611C
6418
3424
2990
ENDCHAR
STARTCHAR Ugrave
ENCODING 217
SWIDTH 752 0
DWIDTH 8 0
BBX 7 9 0 0
BITMAP
0100
0180
7828
2014
2014
2014
2014
2410
0A90
ENDCHAR
STARTCHAR Uacute
ENCODING 218
SWIDTH 752 0
DWIDTH 8 0
BBX 7 9 0 0
BITMAP
0040
0240
7828
2014
2014
2014
2014
2410
0A90
ENDCHAR
STARTCHAR Ucircumflex
ENCODING 219
SWIDTH 752 0
DWIDTH 8 0
BBX 7 9 0 0
BITMAP
0140
0140
7828
2014
2014
2014
2014
2410
0A90
ENDCHAR
STARTCHAR Udieresis
ENCODING 220
SWIDTH 752 0
DWIDTH 8 0
BBX 7 8 0 0
BITMAP
0960
7828
2014
2014
2014
2014
2410
0A90
ENDCHAR
STARTCHAR Yacute
ENCODING 221
SWIDTH 647 0
DWIDTH 6 0
BBX 7 9 0 0
BITMAP
0140
0600
B464
2440
0C40
0A00
0600
0600
0B40
ENDCHAR
STARTCHAR Thorn
ENCODING 222
SWIDTH 572 0
DWIDTH 6 0
BBX 6 7 0 0
BITMAP
7800
2940
2490
2490
2480
2A40
7800
ENDCHAR
STARTCHAR germandbls
ENCODING 223
SWIDTH 563 0
DWIDTH 6 0
BBX 6 7 0 0
BITMAP
1540
2180
7600
3180
3090
3090
7680
ENDCHAR
STARTCHAR agrave
ENCODING 224
SWIDTH 480 0
DWIDTH 5 0
BBX 5 7 0 0
BITMAP
1000
0800
1500
5200
1700
9200
6640
ENDCHAR
STARTCHAR aacute
ENCODING 225
SWIDTH 480 0
DWIDTH 5 0
BBX 5 7 0 0
BITMAP
0400
0800
1500
5200
1700
9200
6640
ENDCHAR
STARTCHAR acircumflex
ENCODING 226
SWIDTH 480 0
DWIDTH 5 0
BBX 5 7 0 0
BITMAP
0400
1500
1500
5200
1700
9200
6640
ENDCHAR
STARTCHAR atilde
ENCODING 227
SWIDTH 480 0
DWIDTH 5 0
BBX 5 6 0 0
BITMAP
2900
1500
5200
1700
9200
6640
ENDCHAR
STARTCHAR adieresis
ENCODING 228
SWIDTH 480 0
DWIDTH 5 0
BBX 5 7 0 0
BITMAP
6200
0000
1500
5200
1700
9200
6640
ENDCHAR
STARTCHAR aring
ENCODING 229
SWIDTH 480 0
DWIDTH 5 0
BBX 5 8 0 0
BITMAP
1400
1500
1400
1500
5200
1700
9200
6640
ENDCHAR
STARTCHAR ae
ENCODING 230
SWIDTH 709 0
DWIDTH 7 0
BBX 7 5 0 0
BITMAP
6664
0754
6200
9304
65E0
ENDCHAR
STARTCHAR ccedilla
ENCODING 231
SWIDTH 446 0
DWIDTH 4 0
BBX 4 7 0 -2
BITMAP
16
51
80
90
2A
08
05
ENDCHAR
STARTCHAR egrave
ENCODING 232
SWIDTH 464 0
DWIDTH 5 0
BBX 4 7 0 0
BITMAP
14
08
16
A6
90
60
2A
ENDCHAR
STARTCHAR eacute
ENCODING 233
SWIDTH 464 0
DWIDTH 5 0
BBX 4 7 0 0
BITMAP
05
08
16
A6
90
60
2A
ENDCHAR
STARTCHAR ecircumflex
ENCODING 234
SWIDTH 464 0
DWIDTH 5 0
BBX 4 7 0 0
BITMAP
04
15
16
A6
90
60
2A
ENDCHAR
STARTCHAR edieresis
ENCODING 235
SWIDTH 464 0
DWIDTH 5 0
BBX 4 7 0 0
BITMAP
22
00
16
A6
90
60
2A
ENDCHAR
STARTCHAR igrave
ENCODING 236
SWIDTH 285 0
DWIDTH 3 0
BBX 3 7 0 0
BITMAP
40
10
60
20
20
20
74
ENDCHAR
STARTCHAR iacute
ENCODING 237
SWIDTH 285 0
DWIDTH 3 0
BBX 3 7 0 0
BITMAP
10
20
60
20
20
20
74
ENDCHAR
STARTCHAR icircumflex
ENCODING 238
SWIDTH 285 0
DWIDTH 3 0
BBX 3 7 0 0
BITMAP
60
44
60
20
20
20
74
ENDCHAR
STARTCHAR idieresis
ENCODING 239
SWIDTH 285 0
DWIDTH 3 0
BBX 4 7 -1 0
BITMAP
66
00
18
08
08
08
1D
ENDCHAR
STARTCHAR eth
ENCODING 240
SWIDTH 532 0
DWIDTH 5 0
BBX 5 7 0 0
BITMAP
1A40
0640
2680
5180
9080
5180
2600
ENDCHAR
STARTCHAR ntilde
ENCODING 241
SWIDTH 576 0
DWIDTH 6 0
BBX 6 6 0 0
BITMAP
1A40
6640
3080
2080
2080
75D0
ENDCHAR
STARTCHAR ograve
ENCODING 242
SWIDTH 514 0
DWIDTH 5 0
BBX 5 7 0 0
BITMAP
1400
0800
2600
5180
9080
5180
2600
ENDCHAR
STARTCHAR oacute
ENCODING 243
SWIDTH 514 0
DWIDTH 5 0
BBX 5 7 0 0
BITMAP
0500
0800
2600
5180
9080
5180
2600
ENDCHAR
STARTCHAR ocircumflex
ENCODING 244
SWIDTH 514 0
DWIDTH 5 0
BBX 5 7 0 0
BITMAP
0400
1500
2600
5180
9080
5180
2600
ENDCHAR
STARTCHAR otilde
ENCODING 245
SWIDTH 514 0
DWIDTH 5 0
BBX 5 6 0 0
BITMAP
1A00
2600
5180
9080
5180
2600
ENDCHAR
STARTCHAR odieresis
ENCODING 246
SWIDTH 514 0
DWIDTH 5 0
BBX 5 7 0 0
BITMAP
2200
0000
2600
5180
9080
5180
2600
ENDCHAR
STARTCHAR divide
ENCODING 247
SWIDTH 720 0
DWIDTH 7 0
BBX 7 6 0 0
BITMAP
0200
0000
0000
6AA4
0000
0200
ENDCHAR
STARTCHAR oslash
ENCODING 248
SWIDTH 514 0
DWIDTH 5 0
BBX 5 5 0 0
BITMAP
2640
5280
9480
6180
6600
ENDCHAR
STARTCHAR ugrave
ENCODING 249
SWIDTH 570 0
DWIDTH 6 0
BBX 5 7 0 0
BITMAP
0400
0800
6180
2080
2080
2080
2980
ENDCHAR
STARTCHAR uacute
ENCODING 250
SWIDTH 570 0
DWIDTH 6 0
BBX 5 7 0 0
BITMAP
0100
0400
6180
2080
2080
2080
2980
ENDCHAR
STARTCHAR ucircumflex
ENCODING 251
SWIDTH 570 0
DWIDTH 6 0
BBX 5 7 0 0
BITMAP
0400
1500
6180
2080
2080
2080
2980
ENDCHAR
STARTCHAR udieresis
ENCODING 252
SWIDTH 570 0
DWIDTH 6 0
BBX 5 7 0 0
BITMAP
2240
0000
6180
2080
2080
2080
2980
ENDCHAR
STARTCHAR yacute
ENCODING 253
SWIDTH 483 0
DWIDTH 5 0
BBX 5 9 0 -2
BITMAP
0500
0800
A180
2100
2500
1900
0800
0400
A000
ENDCHAR
STARTCHAR thorn
ENCODING 254
SWIDTH 524 0
DWIDTH 5 0
BBX 5 9 0 -2
BITMAP
6000
6000
6B40
6180
60C0
6080
7600
6000
6400
ENDCHAR
STARTCHAR ydieresis
ENCODING 255
SWIDTH 483 0
DWIDTH 5 0
BBX 5 9 0 -2
BITMAP
2200
0000
A180
2100
2500
1900
0800
0400
A000
ENDCHAR
STARTCHAR Amacron
ENCODING 256
SWIDTH 718 0
DWIDTH 7 0
BBX 7 8 0 0
BITMAP
0A80
0200
0640
0980
04D0
15A0
2030
A078
ENDCHAR
STARTCHAR amacron
ENCODING 257
SWIDTH 480 0
DWIDTH 5 0
BBX 5 7 0 0
BITMAP
2900
0000
1500
5200
1700
9200
6640
ENDCHAR
STARTCHAR Abreve
ENCODING 258
SWIDTH 718 0
DWIDTH 7 0
BBX 7 9 0 0
BITMAP
0440
0640
0200
0640
0980
04D0
15A0
2030
A078
ENDCHAR
STARTCHAR abreve
ENCODING 259
SWIDTH 480 0
DWIDTH 5 0
BBX 5 7 0 0
BITMAP
1100
2D00
1500
5200
1700
9200
6640
ENDCHAR
STARTCHAR Aogonek
ENCODING 260
SWIDTH 719 0
DWIDTH 7 0
BBX 7 9 0 -2
BITMAP
0200
0640
0980
04D0
15A0
2030
A078
0140
0190
ENDCHAR
STARTCHAR aogonek
ENCODING 261
SWIDTH 480 0
DWIDTH 5 0
BBX 5 7 0 -2
BITMAP
1500
5200
1700
9200
6640
0100
0640
ENDCHAR
STARTCHAR Cacute
ENCODING 262
SWIDTH 670 0
DWIDTH 7 0
BBX 6 9 0 0
BITMAP
0040
0200
19B0
3020
6000
6000
6000
3410
1A90
ENDCHAR
STARTCHAR cacute
ENCODING 263
SWIDTH 446 0
DWIDTH 4 0
BBX 4 7 0 0
BITMAP
05
08
16
51
80
90
2A
ENDCHAR
STARTCHAR Ccircumflex
ENCODING 264
SWIDTH 670 0
DWIDTH 7 0
BBX 6 9 0 0
BITMAP
0100
0580
19B0
3020
6000
6000
6000
3410
1A90
ENDCHAR
STARTCHAR ccircumflex
ENCODING 265
SWIDTH 446 0
DWIDTH 4 0
BBX 4 7 0 0
BITMAP
04
15
16
51
80
90
2A
ENDCHAR
STARTCHAR Cdotaccent
ENCODING 266
SWIDTH 670 0
DWIDTH 7 0
BBX 6 8 0 0
BITMAP
0240
1AB0
3020
6000
6000
6000
3410
1A90
ENDCHAR
STARTCHAR cdotaccent
ENCODING 267
SWIDTH 446 0
DWIDTH 4 0
BBX 4 7 0 0
BITMAP
08
00
16
51
80
90
2A
ENDCHAR
STARTCHAR Ccaron
ENCODING 268
SWIDTH 670 0
DWIDTH 7 0
BBX 6 9 0 0
BITMAP
0440
0240
19B0
3020
6000
6000
6000
3410
1A90
ENDCHAR
STARTCHAR ccaron
ENCODING 269
SWIDTH 446 0
DWIDTH 4 0
BBX 4 7 0 0
BITMAP
11
18
16
51
80
90
2A
ENDCHAR
STARTCHAR Dcaron
ENCODING 270
SWIDTH 730 0
DWIDTH 7 0
BBX 7 9 0 0
BITMAP
0440
0640
7990
2424
2418
2418
2418
2424
7990
ENDCHAR
STARTCHAR dcaron
ENCODING 271
SWIDTH 626 0
DWIDTH 6 0
BBX 6 7 0 0
BITMAP
0260
0160
2640
5140
9140
9140
3A80
ENDCHAR
STARTCHAR Dcroat
ENCODING 272
SWIDTH 733 0
DWIDTH 7 0
BBX 7 7 0 0
BITMAP
7990
2424
2418
6918
2418
2424
7990
ENDCHAR
STARTCHAR dcroat
ENCODING 273
SWIDTH 540 0
DWIDTH 5 0
BBX 5 7 0 0
BITMAP
0240
0680
2640
5140
9140
9140
3A80
ENDCHAR
STARTCHAR Emacron
ENCODING 274
SWIDTH 626 0
DWIDTH 6 0
BBX 6 8 0 0
BITMAP
0A40
79A0
2410
2440
2980
2400
2410
79A0
ENDCHAR
STARTCHAR emacron
ENCODING 275
SWIDTH 464 0
DWIDTH 5 0
BBX 4 7 0 0
BITMAP
29
00
16
A6
90
60
2A
ENDCHAR
STARTCHAR Ebreve
ENCODING 276
SWIDTH 626 0
DWIDTH 6 0
BBX 6 9 0 0
BITMAP
0040
0A40
79A0
2410
2440
2980
2400
2410
79A0
ENDCHAR
STARTCHAR ebreve
ENCODING 277
SWIDTH 464 0
DWIDTH 5 0
BBX 4 7 0 0
BITMAP
11
2D
16
A6
90
60
2A
ENDCHAR
STARTCHAR Edotaccent
ENCODING 278
SWIDTH 626 0
DWIDTH 6 0
BBX 6 8 0 0
BITMAP
0600
7AA0
2410
2440
2980
2400
2410
79A0
ENDCHAR
STARTCHAR edotaccent
ENCODING 279
SWIDTH 464 0
DWIDTH 5 0
BBX 4 7 0 0
BITMAP
08
00
16
A6
90
60
2A
ENDCHAR
STARTCHAR Eogonek
ENCODING 280
SWIDTH 625 0
DWIDTH 6 0
BBX 6 9 0 -2
BITMAP
79A0
2410
2440
2980
2400
2410
79A0
0040
0090
ENDCHAR
STARTCHAR eogonek
ENCODING 281
SWIDTH 464 0
DWIDTH 5 0
BBX 4 7 0 -2
BITMAP
16
A6
90
60
29
04
09
ENDCHAR
STARTCHAR Ecaron
ENCODING 282
SWIDTH 626 0
DWIDTH 6 0
BBX 6 9 0 0
BITMAP
0440
0600
79A0
2410
2440
2980
2400
2410
79A0
ENDCHAR
STARTCHAR ecaron
ENCODING 283
SWIDTH 464 0
DWIDTH 5 0
BBX 4 7 0 0
BITMAP
11
18
16
A6
90
60
2A
ENDCHAR
STARTCHAR Gcircumflex
ENCODING 284
SWIDTH 720 0
DWIDTH 7 0
BBX 7 9 0 0
BITMAP
0100
0580
19B0
3020
6000
6064
6024
3024
19A0
ENDCHAR
STARTCHAR gcircumflex
ENCODING 285
SWIDTH 484 0
DWIDTH 5 0
BBX 5 9 0 -2
BITMAP
0400
1500
2740
5200
6500
5000
7A40
4080
6900
ENDCHAR
STARTCHAR Gbreve
ENCODING 286
SWIDTH 720 0
DWIDTH 7 0
BBX 7 9 0 0
BITMAP
0400
0680
19B0
3020
6000
6064
6024
3024
19A0
ENDCHAR
STARTCHAR gbreve
ENCODING 287
SWIDTH 484 0
DWIDTH 5 0
BBX 5 9 0 -2
BITMAP
1100
2D00
2740
5200
6500
5000
7A40
4080
6900
ENDCHAR
STARTCHAR Gdotaccent
ENCODING 288
SWIDTH 720 0
DWIDTH 7 0
BBX 7 8 0 0
BITMAP
0240
1AB0
3020
6000
6064
6024
3024
19A0
ENDCHAR
STARTCHAR gdotaccent
ENCODING 289
SWIDTH 484 0
DWIDTH 5 0
BBX 5 9 0 -2
BITMAP
0800
0000
2740
5200
6500
5000
7A40
4080
6900
ENDCHAR
STARTCHAR Gcommaaccent
ENCODING 290
SWIDTH 720 0
DWIDTH 7 0
BBX 7 10 0 -3
BITMAP
19B0
3020
6000
6064
6024
3024
19A0
0000
0200
0100
ENDCHAR
STARTCHAR gcommaaccent
ENCODING 291
SWIDTH 484 0
DWIDTH 5 0
BBX 5 9 0 -2
BITMAP
0400
0C00
2740
5200
6500
5000
7A40
4080
6900
ENDCHAR
STARTCHAR Hcircumflex
ENCODING 292
SWIDTH 777 0
DWIDTH 8 0
BBX 7 9 0 0
BITMAP
0140
0580
7828
2414
2414
2964
2414
2414
7828
ENDCHAR
STARTCHAR hcircumflex
ENCODING 293
SWIDTH 577 0
DWIDTH 6 0
BBX 6 9 0 0
BITMAP
0400
1600
6000
2000
3640
3080
2080
2080
75D0
ENDCHAR
STARTCHAR Hbar
ENCODING 294
SWIDTH 788 0
DWIDTH 8 0
BBX 8 7 0 0
BITMAP
7828
2418
6969
2968
2418
2418
6828
ENDCHAR
STARTCHAR hbar
ENCODING 295
SWIDTH 579 0
DWIDTH 6 0
BBX 6 7 0 0
BITMAP
6000
7500
3640
3080
2080
2080
75D0
ENDCHAR
STARTCHAR Itilde
ENCODING 296
SWIDTH 357 0
DWIDTH 4 0
BBX 3 8 0 0
BITMAP
68
78
24
24
24
24
24
78
ENDCHAR
STARTCHAR itilde
ENCODING 297
SWIDTH 285 0
DWIDTH 3 0
BBX 3 7 0 0
BITMAP
94
24
60
20
20
20
74
ENDCHAR
STARTCHAR Imacron
ENCODING 298
SWIDTH 357 0
DWIDTH 4 0
BBX 3 8 0 0
BITMAP
68
78
24
24
24
24
24
78
ENDCHAR
STARTCHAR imacron
ENCODING 299
SWIDTH 285 0
DWIDTH 3 0
BBX 3 7 0 0
BITMAP
A4
00
60
20
20
20
74
ENDCHAR
STARTCHAR Ibreve
ENCODING 300
SWIDTH 357 0
DWIDTH 4 0
BBX 3 9 0 0
BITMAP
40
68
78
24
24
24
24
24
78
ENDCHAR
STARTCHAR ibreve
ENCODING 301
SWIDTH 285 0
DWIDTH 3 0
BBX 3 7 0 0
BITMAP
44
60
60
20
20
20
74
ENDCHAR
STARTCHAR Iogonek
ENCODING 302
SWIDTH 357 0
DWIDTH 4 0
BBX 3 9 0 -2
BITMAP
78
24
24
24
24
24
78
10
24
ENDCHAR
STARTCHAR iogonek
ENCODING 303
SWIDTH 285 0
DWIDTH 3 0
BBX 3 9 0 -2
BITMAP
30
00
60
20
20
20
74
50
64
ENDCHAR
STARTCHAR Idotaccent
ENCODING 304
SWIDTH 357 0
DWIDTH 4 0
BBX 3 8 0 0
BITMAP
24
78
24
24
24
24
24
78
ENDCHAR
STARTCHAR dotlessi
ENCODING 305
SWIDTH 285 0
DWIDTH 3 0
BBX 3 5 0 0
BITMAP
60
20
20
20
74
ENDCHAR
STARTCHAR IJ
ENCODING 306
SWIDTH 753 0
DWIDTH 8 0
BBX 7 7 0 0
BITMAP
7868
2424
2424
2424
2424
2424
79A0
ENDCHAR
STARTCHAR ij
ENCODING 307
SWIDTH 548 0
DWIDTH 5 0
BBX 5 9 0 -2
BITMAP
3180
0000
6180
2080
2080
2080
7480
0180
0A40
ENDCHAR
STARTCHAR Jcircumflex
ENCODING 308
SWIDTH 396 0
DWIDTH 4 0
BBX 4 9 0 0
BITMAP
04
25
2D
0C
08
08
08
08
A4
ENDCHAR
STARTCHAR jcircumflex
ENCODING 309
SWIDTH 263 0
DWIDTH 3 0
BBX 4 9 -1 -2
BITMAP
04
15
18
08
08
08
08
08
A4
ENDCHAR
STARTCHAR Kcommaaccent
ENCODING 310
SWIDTH 702 0
DWIDTH 7 0
BBX 7 10 0 -3
BITMAP
78A4
2480
2600
2900
2640
24D0
78B4
0000
0300
0100
ENDCHAR
STARTCHAR kcommaaccent
ENCODING 311
SWIDTH 542 0
DWIDTH 5 0
BBX 5 10 0 -3
BITMAP
6000
2000
2240
2500
3800
2600
7680
0000
0900
0500
ENDCHAR
STARTCHAR kgreenlandic
ENCODING 312
SWIDTH 542 0
DWIDTH 5 0
BBX 5 5 0 0
BITMAP
6280
2500
3800
2600
7680
ENDCHAR
STARTCHAR Lacute
ENCODING 313
SWIDTH 585 0
DWIDTH 6 0
BBX 6 9 0 0
BITMAP
0400
1400
7800
2400
2400
2400
2400
2410
7990
ENDCHAR
STARTCHAR lacute
ENCODING 314
SWIDTH 283 0
DWIDTH 3 0
BBX 3 9 0 0
BITMAP
14
20
60
20
20
20
20
20
74
ENDCHAR
STARTCHAR Lcommaaccent
ENCODING 315
SWIDTH 585 0
DWIDTH 6 0
BBX 6 10 0 -3
BITMAP
7800
2400
2400
2400
2400
2410
7990
0000
0900
0500
ENDCHAR
STARTCHAR lcommaaccent
ENCODING 316
SWIDTH 283 0
DWIDTH 3 0
BBX 3 10 0 -3
BITMAP
60
20
20
20
20
20
74
00
30
10
ENDCHAR
STARTCHAR Lcaron
ENCODING 317
SWIDTH 585 0
DWIDTH 6 0
BBX 6 7 0 0
BITMAP
7880
2480
2400
2400
2400
2410
7990
ENDCHAR
STARTCHAR lcaron
ENCODING 318
SWIDTH 366 0
DWIDTH 4 0
BBX 4 7 0 0
BITMAP
65
24
20
20
20
20
74
ENDCHAR
STARTCHAR Ldot
ENCODING 319
SWIDTH 605 0
DWIDTH 6 0
BBX 6 7 0 0
BITMAP
7800
2400
2400
2490
2400
2410
7990
ENDCHAR
STARTCHAR ldot
ENCODING 320
SWIDTH 357 0
DWIDTH 4 0
BBX 4 7 0 0
BITMAP
60
20
20
26
20
20
74
ENDCHAR
STARTCHAR Lslash
ENCODING 321
SWIDTH 590 0
DWIDTH 6 0
BBX 6 7 0 0
BITMAP
7800
2400
2500
2400
6400
2410
79A0
ENDCHAR
STARTCHAR lslash
ENCODING 322
SWIDTH 290 0
DWIDTH 3 0
BBX 3 7 0 0
BITMAP
60
20
34
70
20
20
74
ENDCHAR
STARTCHAR Nacute
ENCODING 323
SWIDTH 742 0
DWIDTH 7 0
BBX 7 9 0 0
BITMAP
0040
0200
7428
2C14
1614
1254
10D4
2074
7414
ENDCHAR
STARTCHAR nacute
ENCODING 324
SWIDTH 576 0
DWIDTH 6 0
BBX 6 7 0 0
BITMAP
0100
0500
6640
3080
2080
2080
75D0
ENDCHAR
STARTCHAR Ncommaaccent
ENCODING 325
SWIDTH 742 0
DWIDTH 7 0
BBX 7 10 0 -3
BITMAP
7428
2C14
1614
1254
10D4
2074
7414
0000
0200
0100
ENDCHAR
STARTCHAR ncommaaccent
ENCODING 326
SWIDTH 576 0
DWIDTH 6 0
BBX 6 8 0 -3
BITMAP
6640
3080
2080
2080
75D0
0000
0900
0500
ENDCHAR
STARTCHAR Ncaron
ENCODING 327
SWIDTH 742 0
DWIDTH 7 0
BBX 7 9 0 0
BITMAP
0440
0240
7428
2C14
1614
1254
10D4
2074
7414
ENDCHAR
STARTCHAR ncaron
ENCODING 328
SWIDTH 576 0
DWIDTH 6 0
BBX 6 6 0 0
BITMAP
0A00
6640
3080
2080
2080
75D0
ENDCHAR
STARTCHAR napostrophe
ENCODING 329
SWIDTH 576 0
DWIDTH 6 0
BBX 8 7 -2 0
BITMAP
6000
2000
0664
0308
0208
0208
075D
ENDCHAR
STARTCHAR Eng
ENCODING 330
SWIDTH 742 0
DWIDTH 7 0
BBX 7 9 0 -2
BITMAP
7428
2C14
1614
1254
10D4
2074
7424
0010
0190
ENDCHAR
STARTCHAR eng
ENCODING 331
SWIDTH 559 0
DWIDTH 6 0
BBX 5 7 0 -2
BITMAP
6640
3080
2080
2080
7480
0080
0A40
ENDCHAR
STARTCHAR Omacron
ENCODING 332
SWIDTH 738 0
DWIDTH 7 0
BBX 7 8 0 0
BITMAP
0680
1990
3024
6018
601C
6018
3024
1950
ENDCHAR
STARTCHAR omacron
ENCODING 333
SWIDTH 514 0
DWIDTH 5 0
BBX 5 7 0 0
BITMAP
1A00
0000
2600
5180
9080
5180
2600
ENDCHAR
STARTCHAR Obreve
ENCODING 334
SWIDTH 738 0
DWIDTH 7 0
BBX 7 9 0 0
BITMAP
0440
0680
1990
3024
6018
601C
6018
3024
1950
ENDCHAR
STARTCHAR obreve
ENCODING 335
SWIDTH 514 0
DWIDTH 5 0
BBX 5 7 0 0
BITMAP
1100
1E00
2600
5180
9080
5180
2600
ENDCHAR
STARTCHAR Ohungarumlaut
ENCODING 336
SWIDTH 738 0
DWIDTH 7 0
BBX 7 8 0 0
BITMAP
0290
1990
3024
6018
601C
6018
3024
1950
ENDCHAR
STARTCHAR ohungarumlaut
ENCODING 337
SWIDTH 514 0
DWIDTH 5 0
BBX 5 7 0 0
BITMAP
0A40
0600
2600
5180
9080
5180
2600
ENDCHAR
STARTCHAR OE
ENCODING 338
SWIDTH 945 0
DWIDTH 9 0
BBX 9 7 0 0
BITMAP
19A580
306040
606100
606600
606000
306040
19A5C0
ENDCHAR
STARTCHAR oe
ENCODING 339
SWIDTH 807 0
DWIDTH 8 0
BBX 8 5 0 0
BITMAP
2659
5195
9180
51C1
2568
ENDCHAR
STARTCHAR Racute
ENCODING 340
SWIDTH 659 0
DWIDTH 7 0
BBX 7 9 0 0
BITMAP
0100
0500
7980
2490
2490
2A40
2680
24D0
7874
ENDCHAR
STARTCHAR racute
ENCODING 341
SWIDTH 380 0
DWIDTH 4 0
BBX 4 7 0 0
BITMAP
04
14
6A
30
20
20
74
ENDCHAR
STARTCHAR Rcommaaccent
ENCODING 342
SWIDTH 659 0
DWIDTH 7 0
BBX 7 10 0 -3
BITMAP
7980
2490
2490
2A40
2680
24D0
7874
0000
0600
0100
ENDCHAR
STARTCHAR rcommaaccent
ENCODING 343
SWIDTH 380 0
DWIDTH 4 0
BBX 4 8 0 -3
BITMAP
6A
30
20
20
74
00
30
10
ENDCHAR
STARTCHAR Rcaron
ENCODING 344
SWIDTH 659 0
DWIDTH 7 0
BBX 7 9 0 0
BITMAP
0440
0A00
7980
2490
2490
2A40
2680
24D0
7874
ENDCHAR
STARTCHAR rcaron
ENCODING 345
SWIDTH 380 0
DWIDTH 4 0
BBX 4 6 0 0
BITMAP
28
6A
30
20
20
74
ENDCHAR
STARTCHAR Sacute
ENCODING 346
SWIDTH 504 0
DWIDTH 5 0
BBX 5 9 0 0
BITMAP
0500
0800
2640
5040
7400
1E00
0280
8180
A600
ENDCHAR
STARTCHAR sacute
ENCODING 347
SWIDTH 394 0
DWIDTH 4 0
BBX 4 7 0 0
BITMAP
04
14
55
91
28
46
99
ENDCHAR
STARTCHAR Scircumflex
ENCODING 348
SWIDTH 504 0
DWIDTH 5 0
BBX 5 9 0 0
BITMAP
0400
1500
2640
5040
7400
1E00
0280
8180
A600
ENDCHAR
STARTCHAR scircumflex
ENCODING 349
SWIDTH 394 0
DWIDTH 4 0
BBX 4 7 0 0
BITMAP
14
14
55
91
28
46
99
ENDCHAR
STARTCHAR uni015E
ENCODING 350
SWIDTH 504 0
DWIDTH 5 0
BBX 5 9 0 -2
BITMAP
2640
5040
7400
1E00
0280
8180
AA00
0900
0500
ENDCHAR
STARTCHAR uni015F
ENCODING 351
SWIDTH 394 0
DWIDTH 4 0
BBX 4 7 0 -2
BITMAP
55
91
28
46
A9
14
14
ENDCHAR
STARTCHAR Scaron
ENCODING 352
SWIDTH 504 0
DWIDTH 5 0
BBX 5 9 0 0
BITMAP
1100
1900
2640
5040
7400
1E00
0280
8180
A600
ENDCHAR
STARTCHAR scaron
ENCODING 353
SWIDTH 394 0
DWIDTH 4 0
BBX 4 6 0 0
BITMAP
28
55
91
28
46
99
ENDCHAR
STARTCHAR uni0162
ENCODING 354
SWIDTH 603 0
DWIDTH 6 0
BBX 6 9 0 -2
BITMAP
AA60
4510
0500
0500
0500
0500
0A00
0500
0500
ENDCHAR
STARTCHAR uni0163
ENCODING 355
SWIDTH 315 0
DWIDTH 3 0
BBX 3 9 0 -2
BITMAP
10
20
74
20
20
20
34
14
14
ENDCHAR
STARTCHAR Tcaron
ENCODING 356
SWIDTH 603 0
DWIDTH 6 0
BBX 6 8 0 0
BITMAP
0A00
AA60
4510
0500
0500
0500
0500
0A00
ENDCHAR
STARTCHAR tcaron
ENCODING 357
SWIDTH 353 0
DWIDTH 4 0
BBX 4 7 0 0
BITMAP
15
24
74
20
20
20
24
ENDCHAR
STARTCHAR Tbar
ENCODING 358
SWIDTH 603 0
DWIDTH 6 0
BBX 6 7 0 0
BITMAP
AA60
4510
0500
1A40
0500
0500
0A00
ENDCHAR
STARTCHAR tbar
ENCODING 359
SWIDTH 328 0
DWIDTH 3 0
BBX 3 7 0 0
BITMAP
10
20
74
74
20
20
28
ENDCHAR
STARTCHAR Utilde
ENCODING 360
SWIDTH 752 0
DWIDTH 8 0
BBX 7 8 0 0
BITMAP
0690
7828
2014
2014
2014
2014
2410
0A90
ENDCHAR
STARTCHAR utilde
ENCODING 361
SWIDTH 570 0
DWIDTH 6 0
BBX 5 6 0 0
BITMAP
1A00
6180
2080
2080
2080
2980
ENDCHAR
STARTCHAR Umacron
ENCODING 362
SWIDTH 752 0
DWIDTH 8 0
BBX 7 8 0 0
BITMAP
0690
7828
2014
2014
2014
2014
2410
0A90
ENDCHAR
STARTCHAR umacron
ENCODING 363
SWIDTH 570 0
DWIDTH 6 0
BBX 5 7 0 0
BITMAP
1A00
0000
6180
2080
2080
2080
2980
ENDCHAR
STARTCHAR Ubreve
ENCODING 364
SWIDTH 752 0
DWIDTH 8 0
BBX 7 9 0 0
BITMAP
0410
0280
7828
2014
2014
2014
2014
2410
0A90
ENDCHAR
STARTCHAR ubreve
ENCODING 365
SWIDTH 570 0
DWIDTH 6 0
BBX 5 7 0 0
BITMAP
1100
1E00
6180
2080
2080
2080
2980
ENDCHAR
STARTCHAR Uring
ENCODING 366
SWIDTH 752 0
DWIDTH 8 0
BBX 7 10 0 0
BITMAP
0140
0140
0140
7828
2014
2014
2014
2014
2410
0A90
ENDCHAR
STARTCHAR uring
ENCODING 367
SWIDTH 570 0
DWIDTH 6 0
BBX 5 8 0 0
BITMAP
0500
1500
0500
6180
2080
2080
2080
2980
ENDCHAR
STARTCHAR Uhungarumlaut
ENCODING 368
SWIDTH 752 0
DWIDTH 8 0
BBX 7 8 0 0
BITMAP
0260
7828
2014
2014
2014
2014
2410
0A90
ENDCHAR
STARTCHAR uhungarumlaut
ENCODING 369
SWIDTH 570 0
DWIDTH 6 0
BBX 5 7 0 0
BITMAP
0940
0A00
6180
2080
2080
2080
2980
ENDCHAR
STARTCHAR Uogonek
ENCODING 370
SWIDTH 753 0
DWIDTH 8 0
BBX 7 9 0 -2
BITMAP
7828
2014
2014
2014
2014
2410
0A90
0100
0180
ENDCHAR
STARTCHAR uogonek
ENCODING 371
SWIDTH 570 0
DWIDTH 6 0
BBX 5 7 0 -2
BITMAP
6180
2080
2080
2080
2980
0200
0240
ENDCHAR
STARTCHAR Wcircumflex
ENCODING 372
SWIDTH 944 0
DWIDTH 9 0
BBX 9 9 0 0
BITMAP
004000
016000
B5D1C0
309040
24A100
187200
0D6900
071C00
020800
ENDCHAR
STARTCHAR wcircumflex
ENCODING 373
SWIDTH 749 0
DWIDTH 7 0
BBX 8 7 0 0
BITMAP
0100
0540
A249
2184
2184
19A0
0860
ENDCHAR
STARTCHAR Ycircumflex
ENCODING 374
SWIDTH 647 0
DWIDTH 6 0
BBX 7 9 0 0
BITMAP
0100
0940
B464
2440
0C40
0A00
0600
0600
0B40
ENDCHAR
STARTCHAR ycircumflex
ENCODING 375
SWIDTH 483 0
DWIDTH 5 0
BBX 5 9 0 -2
BITMAP
0400
1500
A180
2100
2500
1900
0800
0400
A000
ENDCHAR
STARTCHAR Ydieresis
ENCODING 376
SWIDTH 647 0
DWIDTH 6 0
BBX 7 8 0 0
BITMAP
0880
B464
2440
0C40
0A00
0600
0600
0B40
ENDCHAR
STARTCHAR Zacute
ENCODING 377
SWIDTH 594 0
DWIDTH 6 0
BBX 6 9 0 0
BITMAP
0100
0500
65D0
4180
0300
0900
1800
3410
B590
ENDCHAR
STARTCHAR zacute
ENCODING 378
SWIDTH 458 0
DWIDTH 5 0
BBX 5 7 0 0
BITMAP
0500
0800
5700
4900
1800
2000
A640
ENDCHAR
STARTCHAR Zdotaccent
ENCODING 379
SWIDTH 594 0
DWIDTH 6 0
BBX 6 8 0 0
BITMAP
0600
6AD0
4180
0300
0900
1800
3410
B590
ENDCHAR
STARTCHAR zdotaccent
ENCODING 380
SWIDTH 458 0
DWIDTH 5 0
BBX 5 7 0 0
BITMAP
0800
0000
5700
4900
1800
2000
A640
ENDCHAR
STARTCHAR Zcaron
ENCODING 381
SWIDTH 594 0
DWIDTH 6 0
BBX 6 9 0 0
BITMAP
0440
0A00
65D0
4180
0300
0900
1800
3410
B590
ENDCHAR
STARTCHAR zcaron
ENCODING 382
SWIDTH 458 0
DWIDTH 5 0
BBX 5 7 0 0
BITMAP
1100
1800
5700
4900
1800
2000
A640
ENDCHAR
STARTCHAR longs
ENCODING 383
SWIDTH 285 0
DWIDTH 3 0
BBX 4 7 0 0
BITMAP
16
20
70
20
20
30
74
ENDCHAR
STARTCHAR uni0180
ENCODING 384
SWIDTH 522 0
DWIDTH 5 0
BBX 5 7 0 0
BITMAP
6000
6500
6B40
6180
60C0
6180
2600
ENDCHAR
STARTCHAR uni0188
ENCODING 392
SWIDTH 446 0
DWIDTH 4 0
BBX 6 7 0 0
BITMAP
0190
0100
1600
5100
8000
9000
2A00
ENDCHAR
STARTCHAR uni0190
ENCODING 400
SWIDTH 518 0
DWIDTH 5 0
BBX 5 7 0 0
BITMAP
2640
5140
6000
2900
6000
A040
2A40
ENDCHAR
STARTCHAR uni0192
ENCODING 402
SWIDTH 301 0
DWIDTH 3 0
BBX 5 9 -1 -2
BITMAP
0580
0800
1D00
0800
0800
0800
0800
0800
9400
ENDCHAR
STARTCHAR uni0195
ENCODING 405
SWIDTH 798 0
DWIDTH 8 0
BBX 8 7 0 0
BITMAP
6000
2000
3648
3185
2081
2081
74A4
ENDCHAR
STARTCHAR uni0199
ENCODING 409
SWIDTH 538 0
DWIDTH 5 0
BBX 5 7 0 0
BITMAP
1600
2000
2240
2500
3800
2600
7680
ENDCHAR
STARTCHAR uni019A
ENCODING 410
SWIDTH 287 0
DWIDTH 3 0
BBX 3 7 0 0
BITMAP
60
20
20
74
20
20
74
ENDCHAR
STARTCHAR uni019B
ENCODING 411
SWIDTH 495 0
DWIDTH 5 0
BBX 5 7 0 0
BITMAP
A500
1800
0800
0900
2500
2100
A180
ENDCHAR
STARTCHAR uni019E
ENCODING 414
SWIDTH 559 0
DWIDTH 6 0
BBX 6 7 0 -2
BITMAP
6640
3080
2080
2080
7480
0080
00D0
ENDCHAR
STARTCHAR Ohorn
ENCODING 416
SWIDTH 737 0
DWIDTH 7 0
BBX 7 9 0 0
BITMAP
0004
0008
19B4
3024
6018
601C
6018
3024
1950
ENDCHAR
STARTCHAR ohorn
ENCODING 417
SWIDTH 516 0
DWIDTH 5 0
BBX 5 7 0 0
BITMAP
0040
0080
2640
5180
9080
5180
2600
ENDCHAR
STARTCHAR uni01A5
ENCODING 421
SWIDTH 522 0
DWIDTH 5 0
BBX 5 9 0 -2
BITMAP
1600
2000
6B40
6180
60C0
6180
7600
6000
A400
ENDCHAR
STARTCHAR uni01AA
ENCODING 426
SWIDTH 298 0
DWIDTH 3 0
BBX 5 9 -1 -2
BITMAP
5800
4800
1800
0800
0800
0800
0800
0800
0680
ENDCHAR
STARTCHAR uni01AB
ENCODING 427
SWIDTH 321 0
DWIDTH 3 0
BBX 3 9 0 -2
BITMAP
10
20
74
20
20
20
28
04
24
ENDCHAR
STARTCHAR uni01AD
ENCODING 429
SWIDTH 315 0
DWIDTH 3 0
BBX 4 7 0 0
BITMAP
16
20
74
20
20
20
24
ENDCHAR
STARTCHAR Uhorn
ENCODING 431
SWIDTH 762 0
DWIDTH 8 0
BBX 8 9 0 0
BITMAP
0001
0002
782D
2014
2014
2014
2014
2414
0A90
ENDCHAR
STARTCHAR uhorn
ENCODING 432
SWIDTH 574 0
DWIDTH 6 0
BBX 6 7 0 0
BITMAP
0010
0020
6180
2080
2080
2080
2980
ENDCHAR
STARTCHAR uni01B5
ENCODING 437
SWIDTH 594 0
DWIDTH 6 0
BBX 6 7 0 0
BITMAP
65D0
4180
0240
1A40
1C00
2410
B590
ENDCHAR
STARTCHAR uni01BA
ENCODING 442
SWIDTH 430 0
DWIDTH 4 0
BBX 4 7 0 -2
BITMAP
9A
58
29
02
09
50
59
ENDCHAR
STARTCHAR uni01BB
ENCODING 443
SWIDTH 508 0
DWIDTH 5 0
BBX 5 7 0 0
BITMAP
2A00
4240
0240
5A40
0800
2040
BB40
ENDCHAR
STARTCHAR uni01BE
ENCODING 446
SWIDTH 406 0
DWIDTH 4 0
BBX 4 7 0 0
BITMAP
10
20
74
18
06
42
95
ENDCHAR
STARTCHAR uni01C0
ENCODING 448
SWIDTH 250 0
DWIDTH 3 0
BBX 1 7 1 0
BITMAP
80
80
80
80
80
80
80
ENDCHAR
STARTCHAR uni01C1
ENCODING 449
SWIDTH 423 0
DWIDTH 4 0
BBX 3 7 1 0
BITMAP
94
94
94
94
94
94
94
ENDCHAR
STARTCHAR uni01C2
ENCODING 450
SWIDTH 422 0
DWIDTH 4 0
BBX 4 7 0 0
BITMAP
18
18
69
69
18
18
18
ENDCHAR
STARTCHAR uni01C3
ENCODING 451
SWIDTH 245 0
DWIDTH 2 0
BBX 2 7 0 0
BITMAP
60
60
20
20
10
00
60
ENDCHAR
STARTCHAR uni01DE
ENCODING 478
SWIDTH 718 0
DWIDTH 7 0
BBX 7 9 0 0
BITMAP
0A80
0880
0200
0640
0980
04D0
15A0
2030
A078
ENDCHAR
STARTCHAR uni01DF
ENCODING 479
SWIDTH 480 0
DWIDTH 5 0
BBX 5 9 0 0
BITMAP
2900
0000
6200
0000
1500
5200
1700
9200
6640
ENDCHAR
STARTCHAR uni01F0
ENCODING 496
SWIDTH 263 0
DWIDTH 3 0
BBX 4 9 -1 -2
BITMAP
11
18
18
08
08
08
08
08
A4
ENDCHAR
STARTCHAR Aringacute
ENCODING 506
SWIDTH 718 0
DWIDTH 7 0
BBX 7 11 0 0
BITMAP
0140
0740
0440
0140
0200
0640
0980
04D0
15A0
2030
A078
ENDCHAR
STARTCHAR aringacute
ENCODING 507
SWIDTH 480 0
DWIDTH 5 0
BBX 5 9 0 0
BITMAP
0400
2C00
1500
1400
1500
5200
1700
9200
6640
ENDCHAR
STARTCHAR AEacute
ENCODING 508
SWIDTH 894 0
DWIDTH 9 0
BBX 9 9 0 0
BITMAP
001400
002000
02D640
01C040
04C000
09DA00
10C100
10C040
A1D640
ENDCHAR
STARTCHAR aeacute
ENCODING 509
SWIDTH 709 0
DWIDTH 7 0
BBX 7 7 0 0
BITMAP
0100
0200
6664
0754
6200
9304
65E0
ENDCHAR
STARTCHAR Oslashacute
ENCODING 510
SWIDTH 737 0
DWIDTH 7 0
BBX 7 9 0 0
BITMAP
0140
0200
19A0
3064
6058
611C
6418
3424
2990
ENDCHAR
STARTCHAR oslashacute
ENCODING 511
SWIDTH 514 0
DWIDTH 5 0
BBX 5 7 0 0
BITMAP
0500
0800
2640
5280
9480
6180
6600
ENDCHAR
STARTCHAR uni0218
ENCODING 536
SWIDTH 504 0
DWIDTH 5 0
BBX 5 10 0 -3
BITMAP
2640
5040
7400
1E00
0280
8180
A600
0000
0C00
0400
ENDCHAR
STARTCHAR uni0219
ENCODING 537
SWIDTH 394 0
DWIDTH 4 0
BBX 4 8 0 -3
BITMAP
55
91
28
46
99
00
24
14
ENDCHAR
STARTCHAR uni021A
ENCODING 538
SWIDTH 603 0
DWIDTH 6 0
BBX 6 10 0 -3
BITMAP
AA60
4510
0500
0500
0500
0500
0A00
0000
0600
0100
ENDCHAR
STARTCHAR uni021B
ENCODING 539
SWIDTH 315 0
DWIDTH 3 0
BBX 3 10 0 -3
BITMAP
10
20
74
20
20
20
24
00
24
14
ENDCHAR
STARTCHAR uni0221
ENCODING 545
SWIDTH 674 0
DWIDTH 7 0
BBX 7 8 0 -1
BITMAP
0240
0140
2640
5140
9140
9154
3994
0040
ENDCHAR
STARTCHAR uni0228
ENCODING 552
SWIDTH 626 0
DWIDTH 6 0
BBX 6 9 0 -2
BITMAP
79A0
2410
2440
2980
2400
2410
7AA0
0200
0500
ENDCHAR
STARTCHAR uni0229
ENCODING 553
SWIDTH 464 0
DWIDTH 5 0
BBX 4 7 0 -2
BITMAP
16
A6
90
60
2E
08
04
ENDCHAR
STARTCHAR uni0234
ENCODING 564
SWIDTH 399 0
DWIDTH 4 0
BBX 4 8 0 -1
BITMAP
60
60
60
60
60
65
25
10
ENDCHAR
STARTCHAR uni0235
ENCODING 565
SWIDTH 702 0
DWIDTH 7 0
BBX 7 6 0 -1
BITMAP
6640
3180
2080
2094
7494
0040
ENDCHAR
STARTCHAR uni0236
ENCODING 566
SWIDTH 406 0
DWIDTH 4 0
BBX 4 8 0 -1
BITMAP
10
20
74
20
20
25
29
10
ENDCHAR
STARTCHAR uni0237
ENCODING 567
SWIDTH 263 0
DWIDTH 3 0
BBX 3 7 -1 -2
BITMAP
18
08
08
08
08
08
A4
ENDCHAR
STARTCHAR uni0250
ENCODING 592
SWIDTH 475 0
DWIDTH 5 0
BBX 5 5 0 0
BITMAP
AB00
2240
2500
2100
2600
ENDCHAR
STARTCHAR uni0251
ENCODING 593
SWIDTH 542 0
DWIDTH 5 0
BBX 5 5 0 0
BITMAP
2640
5140
9140
9140
3A80
ENDCHAR
STARTCHAR uni0252
ENCODING 594
SWIDTH 544 0
DWIDTH 5 0
BBX 5 5 0 0
BITMAP
7A40
30C0
2080
3080
3540
ENDCHAR
STARTCHAR uni0253
ENCODING 595
SWIDTH 518 0
DWIDTH 5 0
BBX 5 7 0 0
BITMAP
1600
2000
6B40
6180
6080
6180
2600
ENDCHAR
STARTCHAR uni0254
ENCODING 596
SWIDTH 454 0
DWIDTH 5 0
BBX 4 5 0 0
BITMAP
2D
43
02
42
65
ENDCHAR
STARTCHAR uni0255
ENCODING 597
SWIDTH 447 0
DWIDTH 4 0
BBX 4 6 0 -1
BITMAP
16
51
90
95
2A
10
ENDCHAR
STARTCHAR uni0256
ENCODING 598
SWIDTH 528 0
DWIDTH 5 0
BBX 7 9 0 -2
BITMAP
0240
0140
2640
5140
9140
9140
3A40
0140
00A4
ENDCHAR
STARTCHAR uni0257
ENCODING 599
SWIDTH 542 0
DWIDTH 5 0
BBX 7 7 0 0
BITMAP
00A4
0140
2640
5140
9140
9140
3A80
ENDCHAR
STARTCHAR uni0258
ENCODING 600
SWIDTH 466 0
DWIDTH 5 0
BBX 5 5 0 0
BITMAP
2500
6640
0240
4300
2D00
ENDCHAR
STARTCHAR uni0259
ENCODING 601
SWIDTH 464 0
DWIDTH 5 0
BBX 5 5 0 0
BITMAP
6D00
0200
5640
5200
2500
ENDCHAR
STARTCHAR uni025A
ENCODING 602
SWIDTH 642 0
DWIDTH 6 0
BBX 6 5 0 0
BITMAP
6E00
0260
5640
5200
2500
ENDCHAR
STARTCHAR uni025B
ENCODING 603
SWIDTH 399 0
DWIDTH 4 0
BBX 4 5 0 0
BITMAP
69
50
24
90
69
ENDCHAR
STARTCHAR uni025C
ENCODING 604
SWIDTH 398 0
DWIDTH 4 0
BBX 4 5 0 0
BITMAP
69
05
18
06
69
ENDCHAR
STARTCHAR uni025D
ENCODING 605
SWIDTH 575 0
DWIDTH 6 0
BBX 6 5 0 0
BITMAP
5900
0590
1D00
0600
6900
ENDCHAR
STARTCHAR uni025E
ENCODING 606
SWIDTH 500 0
DWIDTH 5 0
BBX 5 5 0 0
BITMAP
2640
5140
9600
5180
2640
ENDCHAR
STARTCHAR uni025F
ENCODING 607
SWIDTH 272 0
DWIDTH 3 0
BBX 4 7 -1 -2
BITMAP
1C
08
1D
08
08
08
A4
ENDCHAR
STARTCHAR uni0260
ENCODING 608
SWIDTH 541 0
DWIDTH 5 0
BBX 7 9 0 -2
BITMAP
0064
0140
2640
5140
9140
9140
2A40
0140
6500
ENDCHAR
STARTCHAR uni0261
ENCODING 609
SWIDTH 521 0
DWIDTH 5 0
BBX 5 7 0 -2
BITMAP
2640
5140
9140
9140
2A40
0140
6500
ENDCHAR
STARTCHAR uni0262
ENCODING 610
SWIDTH 535 0
DWIDTH 5 0
BBX 5 5 0 0
BITMAP
2680
5040
9180
5080
2540
ENDCHAR
STARTCHAR uni0263
ENCODING 611
SWIDTH 479 0
DWIDTH 5 0
BBX 5 7 0 -2
BITMAP
A180
2100
2500
1800
0C00
1900
1900
ENDCHAR
STARTCHAR uni0264
ENCODING 612
SWIDTH 466 0
DWIDTH 5 0
BBX 5 5 0 0
BITMAP
9A40
5900
1600
1200
1900
ENDCHAR
STARTCHAR uni0265
ENCODING 613
SWIDTH 553 0
DWIDTH 6 0
BBX 5 7 0 -2
BITMAP
6180
2080
2080
2080
2980
0080
00C0
ENDCHAR
STARTCHAR uni0266
ENCODING 614
SWIDTH 577 0
DWIDTH 6 0
BBX 6 7 0 0
BITMAP
1600
2000
3640
3080
2080
2080
75D0
ENDCHAR
STARTCHAR uni0267
ENCODING 615
SWIDTH 562 0
DWIDTH 6 0
BBX 5 9 0 -2
BITMAP
1600
2000
3640
3080
2080
2080
7480
0080
0A40
ENDCHAR
STARTCHAR uni0268
ENCODING 616
SWIDTH 295 0
DWIDTH 3 0
BBX 3 7 0 0
BITMAP
30
00
70
30
74
30
74
ENDCHAR
STARTCHAR uni0269
ENCODING 617
SWIDTH 286 0
DWIDTH 3 0
BBX 3 5 0 0
BITMAP
60
20
20
20
24
ENDCHAR
STARTCHAR uni026A
ENCODING 618
SWIDTH 287 0
DWIDTH 3 0
BBX 3 5 0 0
BITMAP
74
20
20
20
74
ENDCHAR
STARTCHAR uni026B
ENCODING 619
SWIDTH 290 0
DWIDTH 3 0
BBX 3 7 0 0
BITMAP
60
20
74
74
20
20
74
ENDCHAR
STARTCHAR uni026C
ENCODING 620
SWIDTH 318 0
DWIDTH 3 0
BBX 3 7 0 0
BITMAP
20
20
A0
A4
64
20
34
ENDCHAR
STARTCHAR uni026D
ENCODING 621
SWIDTH 248 0
DWIDTH 2 0
BBX 4 9 0 -2
BITMAP
60
60
60
60
60
60
60
20
29
ENDCHAR
STARTCHAR uni026E
ENCODING 622
SWIDTH 590 0
DWIDTH 6 0
BBX 6 9 0 -2
BITMAP
6000
2000
3590
2180
2200
2280
7460
0060
0980
ENDCHAR
STARTCHAR uni026F
ENCODING 623
SWIDTH 846 0
DWIDTH 8 0
BBX 8 5 0 0
BITMAP
6289
2185
2185
2185
299A
ENDCHAR
STARTCHAR uni0270
ENCODING 624
SWIDTH 826 0
DWIDTH 8 0
BBX 8 7 0 -2
BITMAP
6289
2185
2185
2185
29A9
0005
0006
ENDCHAR
STARTCHAR uni0271
ENCODING 625
SWIDTH 835 0
DWIDTH 8 0
BBX 8 7 0 -2
BITMAP
6669
3086
2086
2086
75C6
0005
0028
ENDCHAR
STARTCHAR uni0272
ENCODING 626
SWIDTH 574 0
DWIDTH 6 0
BBX 6 7 -1 -2
BITMAP
1990
0C20
0820
0820
0870
0800
A400
ENDCHAR
STARTCHAR uni0273
ENCODING 627
SWIDTH 563 0
DWIDTH 6 0
BBX 7 7 0 -2
BITMAP
6640
3080
2080
2080
7480
0080
0068
ENDCHAR
STARTCHAR uni0274
ENCODING 628
SWIDTH 568 0
DWIDTH 6 0
BBX 6 5 0 0
BITMAP
7090
2840
1A40
1280
6080
ENDCHAR
STARTCHAR uni0275
ENCODING 629
SWIDTH 514 0
DWIDTH 5 0
BBX 5 5 0 0
BITMAP
2600
5180
A580
5180
2600
ENDCHAR
STARTCHAR uni0276
ENCODING 630
SWIDTH 732 0
DWIDTH 7 0
BBX 7 5 0 0
BITMAP
2698
5244
92A0
5240
2698
ENDCHAR
STARTCHAR uni0277
ENCODING 631
SWIDTH 672 0
DWIDTH 7 0
BBX 7 5 0 0
BITMAP
1590
6020
9324
9224
2560
ENDCHAR
STARTCHAR uni0278
ENCODING 632
SWIDTH 658 0
DWIDTH 7 0
BBX 7 9 0 -2
BITMAP
0600
0200
2690
5230
9224
5220
2650
0200
0700
ENDCHAR
STARTCHAR uni0279
ENCODING 633
SWIDTH 380 0
DWIDTH 4 0
BBX 4 5 0 0
BITMAP
1D
08
08
18
9C
ENDCHAR
STARTCHAR uni027A
ENCODING 634
SWIDTH 374 0
DWIDTH 4 0
BBX 3 7 0 0
BITMAP
18
08
08
08
08
08
9C
ENDCHAR
STARTCHAR uni027B
ENCODING 635
SWIDTH 375 0
DWIDTH 4 0
BBX 5 7 0 -2
BITMAP
1D00
0800
0800
1800
9800
0800
0680
ENDCHAR
STARTCHAR uni027C
ENCODING 636
SWIDTH 378 0
DWIDTH 4 0
BBX 4 7 0 -2
BITMAP
6A
30
20
20
20
20
74
ENDCHAR
STARTCHAR uni027D
ENCODING 637
SWIDTH 373 0
DWIDTH 4 0
BBX 4 7 0 -2
BITMAP
6A
30
20
20
20
20
19
ENDCHAR
STARTCHAR uni027E
ENCODING 638
SWIDTH 371 0
DWIDTH 4 0
BBX 4 5 0 0
BITMAP
19
20
20
20
74
ENDCHAR
STARTCHAR uni027F
ENCODING 639
SWIDTH 371 0
DWIDTH 4 0
BBX 3 5 0 0
BITMAP
94
08
08
08
1C
ENDCHAR
STARTCHAR uni0280
ENCODING 640
SWIDTH 494 0
DWIDTH 5 0
BBX 5 5 0 0
BITMAP
7600
2200
3900
2600
7280
ENDCHAR
STARTCHAR uni0281
ENCODING 641
SWIDTH 494 0
DWIDTH 5 0
BBX 5 5 0 0
BITMAP
7280
2600
3900
2200
7600
ENDCHAR
STARTCHAR uni0282
ENCODING 642
SWIDTH 395 0
DWIDTH 4 0
BBX 4 7 0 -2
BITMAP
55
91
28
46
99
40
54
ENDCHAR
STARTCHAR uni0283
ENCODING 643
SWIDTH 253 0
DWIDTH 3 0
BBX 5 9 -1 -2
BITMAP
0640
0800
0800
0800
0800
0800
0800
0800
9400
ENDCHAR
STARTCHAR uni0284
ENCODING 644
SWIDTH 286 0
DWIDTH 3 0
BBX 5 9 -1 -2
BITMAP
0540
0800
0C00
0C00
0C00
0C00
1D00
0800
9400
ENDCHAR
STARTCHAR uni0285
ENCODING 645
SWIDTH 361 0
DWIDTH 4 0
BBX 5 7 0 -2
BITMAP
9400
0800
0800
0800
0800
0800
0640
ENDCHAR
STARTCHAR uni0286
ENCODING 646
SWIDTH 253 0
DWIDTH 3 0
BBX 5 9 -1 -2
BITMAP
0640
0800
0800
0800
0800
0800
0800
6800
6400
ENDCHAR
STARTCHAR uni0287
ENCODING 647
SWIDTH 315 0
DWIDTH 3 0
BBX 3 7 0 -2
BITMAP
70
24
24
24
64
24
10
ENDCHAR
STARTCHAR uni0288
ENCODING 648
SWIDTH 309 0
DWIDTH 3 0
BBX 4 9 0 -2
BITMAP
10
20
74
20
20
20
20
20
1A
ENDCHAR
STARTCHAR uni0289
ENCODING 649
SWIDTH 580 0
DWIDTH 6 0
BBX 5 5 0 0
BITMAP
6180
2080
75C0
3080
29C0
ENDCHAR
STARTCHAR uni028A
ENCODING 650
SWIDTH 548 0
DWIDTH 5 0
BBX 5 5 0 0
BITMAP
2240
6080
90C0
50C0
2540
ENDCHAR
STARTCHAR uni028B
ENCODING 651
SWIDTH 530 0
DWIDTH 5 0
BBX 5 5 0 0
BITMAP
6140
2080
2040
2040
2A00
ENDCHAR
STARTCHAR uni028C
ENCODING 652
SWIDTH 495 0
DWIDTH 5 0
BBX 5 5 0 0
BITMAP
0800
1900
1600
1300
9280
ENDCHAR
STARTCHAR uni028D
ENCODING 653
SWIDTH 764 0
DWIDTH 8 0
BBX 8 5 0 0
BITMAP
0860
1970
1664
1318
924D
ENDCHAR
STARTCHAR uni028E
ENCODING 654
SWIDTH 492 0
DWIDTH 5 0
BBX 5 7 0 0
BITMAP
0280
0400
0800
1800
1600
1300
9280
ENDCHAR
STARTCHAR uni028F
ENCODING 655
SWIDTH 454 0
DWIDTH 5 0
BBX 5 5 0 0
BITMAP
A240
2100
1800
0800
1C00
ENDCHAR
STARTCHAR uni0290
ENCODING 656
SWIDTH 458 0
DWIDTH 5 0
BBX 6 7 0 -2
BITMAP
5700
4900
1800
2000
A640
0100
0060
ENDCHAR
STARTCHAR uni0291
ENCODING 657
SWIDTH 458 0
DWIDTH 5 0
BBX 5 7 0 -2
BITMAP
5700
4900
1800
2540
A940
1000
1000
ENDCHAR
STARTCHAR uni0292
ENCODING 658
SWIDTH 443 0
DWIDTH 4 0
BBX 5 7 0 -2
BITMAP
AB00
4900
1800
1A00
0240
4200
A500
ENDCHAR
STARTCHAR uni0293
ENCODING 659
SWIDTH 443 0
DWIDTH 4 0
BBX 4 9 0 -4
BITMAP
9B
49
18
19
03
52
5A
05
01
ENDCHAR
STARTCHAR uni0294
ENCODING 660
SWIDTH 383 0
DWIDTH 4 0
BBX 4 7 0 0
BITMAP
55
42
06
18
20
20
74
ENDCHAR
STARTCHAR uni0295
ENCODING 661
SWIDTH 383 0
DWIDTH 4 0
BBX 4 7 0 0
BITMAP
59
C1
80
64
08
08
1D
ENDCHAR
STARTCHAR uni0296
ENCODING 662
SWIDTH 408 0
DWIDTH 4 0
BBX 4 7 0 0
BITMAP
70
30
30
18
06
42
55
ENDCHAR
STARTCHAR uni0297
ENCODING 663
SWIDTH 437 0
DWIDTH 4 0
BBX 4 7 0 -2
BITMAP
16
51
90
80
90
61
29
ENDCHAR
STARTCHAR uni0298
ENCODING 664
SWIDTH 736 0
DWIDTH 7 0
BBX 7 7 0 0
BITMAP
1550
2014
900C
934C
900C
2014
1550
ENDCHAR
STARTCHAR uni0299
ENCODING 665
SWIDTH 485 0
DWIDTH 5 0
BBX 5 5 0 0
BITMAP
7600
2240
3600
2240
7640
ENDCHAR
STARTCHAR uni029A
ENCODING 666
SWIDTH 500 0
DWIDTH 5 0
BBX 5 5 0 0
BITMAP
6600
5140
2580
9140
6600
ENDCHAR
STARTCHAR uni029B
ENCODING 667
SWIDTH 536 0
DWIDTH 5 0
BBX 7 7 0 0
BITMAP
0064
0040
2580
5040
9180
5080
2540
ENDCHAR
STARTCHAR uni029C
ENCODING 668
SWIDTH 599 0
DWIDTH 6 0
BBX 6 5 0 0
BITMAP
75D0
2080
35C0
2080
75D0
ENDCHAR
STARTCHAR uni029D
ENCODING 669
SWIDTH 263 0
DWIDTH 3 0
BBX 4 9 -1 -2
BITMAP
08
00
18
08
08
08
08
5D
54
ENDCHAR
STARTCHAR uni029E
ENCODING 670
SWIDTH 542 0
DWIDTH 5 0
BBX 5 7 0 -2
BITMAP
7280
1940
0A40
0540
6540
0140
0180
ENDCHAR
STARTCHAR uni029F
ENCODING 671
SWIDTH 440 0
DWIDTH 4 0
BBX 4 5 0 0
BITMAP
70
20
20
20
76
ENDCHAR
STARTCHAR uni02A0
ENCODING 672
SWIDTH 541 0
DWIDTH 5 0
BBX 7 9 0 -2
BITMAP
00A8
0140
2640
5140
9140
9140
2A40
0140
0280
ENDCHAR
STARTCHAR uni02A1
ENCODING 673
SWIDTH 393 0
DWIDTH 4 0
BBX 4 7 0 0
BITMAP
55
42
06
24
74
30
74
ENDCHAR
STARTCHAR uni02A2
ENCODING 674
SWIDTH 393 0
DWIDTH 4 0
BBX 4 7 0 0
BITMAP
59
C1
90
18
1D
0C
1D
ENDCHAR
STARTCHAR uni02A3
ENCODING 675
SWIDTH 830 0
DWIDTH 8 0
BBX 8 7 0 0
BITMAP
0240
0140
269A
5149
9168
91A1
3AE6
ENDCHAR
STARTCHAR uni02A4
ENCODING 676
SWIDTH 838 0
DWIDTH 8 0
BBX 8 9 0 -2
BITMAP
0240
0140
269B
5149
9158
9159
3A83
0002
0095
ENDCHAR
STARTCHAR uni02A5
ENCODING 677
SWIDTH 829 0
DWIDTH 8 0
BBX 8 9 0 -2
BITMAP
0240
0140
269A
5149
9168
91A5
3AE9
0010
0010
ENDCHAR
STARTCHAR uni02A6
ENCODING 678
SWIDTH 614 0
DWIDTH 6 0
BBX 6 7 0 0
BITMAP
1000
2000
7A60
2610
22D0
2060
2550
ENDCHAR
STARTCHAR uni02A7
ENCODING 679
SWIDTH 513 0
DWIDTH 5 0
BBX 6 9 0 -2
BITMAP
00A0
2240
7640
2240
2240
2240
2640
0240
1A00
ENDCHAR
STARTCHAR uni02A8
ENCODING 680
SWIDTH 687 0
DWIDTH 7 0
BBX 7 7 0 0
BITMAP
1000
2000
7564
2214
2600
2254
2694
ENDCHAR
STARTCHAR uni02A9
ENCODING 681
SWIDTH 866 0
DWIDTH 9 0
BBX 8 9 0 -2
BITMAP
1600
2000
75D9
20C2
2082
3082
75D2
0002
0029
ENDCHAR
STARTCHAR uni02AA
ENCODING 682
SWIDTH 595 0
DWIDTH 6 0
BBX 6 7 0 0
BITMAP
6000
6000
6550
6510
6280
6060
2590
ENDCHAR
STARTCHAR uni02AB
ENCODING 683
SWIDTH 580 0
DWIDTH 6 0
BBX 6 7 0 0
BITMAP
6000
2000
35D0
2180
2200
2910
7D90
ENDCHAR
STARTCHAR uni02AC
ENCODING 684
SWIDTH 599 0
DWIDTH 6 0
BBX 6 7 0 0
BITMAP
9620
2640
1540
5510
6610
2640
1540
ENDCHAR
STARTCHAR uni02AD
ENCODING 685
SWIDTH 479 0
DWIDTH 5 0
BBX 4 7 0 0
BITMAP
6B
51
51
01
6A
51
51
ENDCHAR
STARTCHAR uni02AE
ENCODING 686
SWIDTH 595 0
DWIDTH 6 0
BBX 7 7 -1 -2
BITMAP
6420
0820
0920
0920
0660
0020
0024
ENDCHAR
STARTCHAR uni02AF
ENCODING 687
SWIDTH 600 0
DWIDTH 6 0
BBX 8 7 -1 -2
BITMAP
6420
0820
0920
0920
0660
0024
001A
ENDCHAR
STARTCHAR uni02B0
ENCODING 688
SWIDTH 488 0
DWIDTH 5 0
BBX 5 6 0 3
BITMAP
6000
2000
2A00
2200
2200
6240
ENDCHAR
STARTCHAR uni02B1
ENCODING 689
SWIDTH 488 0
DWIDTH 5 0
BBX 5 7 0 3
BITMAP
1500
2100
2000
2A00
2200
2200
6240
ENDCHAR
STARTCHAR uni02B2
ENCODING 690
SWIDTH 222 0
DWIDTH 2 0
BBX 3 8 -1 1
BITMAP
18
00
18
08
08
08
08
A4
ENDCHAR
STARTCHAR uni02B3
ENCODING 691
SWIDTH 325 0
DWIDTH 3 0
BBX 3 4 0 3
BITMAP
68
20
20
60
ENDCHAR
STARTCHAR uni02B4
ENCODING 692
SWIDTH 325 0
DWIDTH 3 0
BBX 3 4 0 3
BITMAP
18
08
18
A8
ENDCHAR
STARTCHAR uni02B5
ENCODING 693
SWIDTH 325 0
DWIDTH 3 0
BBX 4 6 0 1
BITMAP
18
08
18
A8
08
05
ENDCHAR
STARTCHAR uni02B6
ENCODING 694
SWIDTH 443 0
DWIDTH 4 0
BBX 4 4 0 3
BITMAP
66
28
22
69
ENDCHAR
STARTCHAR uni02B7
ENCODING 695
SWIDTH 653 0
DWIDTH 7 0
BBX 7 4 0 3
BITMAP
9624
2310
2550
1880
ENDCHAR
STARTCHAR uni02B8
ENCODING 696
SWIDTH 427 0
DWIDTH 4 0
BBX 4 6 0 1
BITMAP
A2
21
24
18
14
A0
ENDCHAR
STARTCHAR uni02B9
ENCODING 697
SWIDTH 296 0
DWIDTH 3 0
BBX 3 3 0 4
BITMAP
24
20
50
ENDCHAR
STARTCHAR uni02BA
ENCODING 698
SWIDTH 456 0
DWIDTH 5 0
BBX 4 3 0 4
BITMAP
26
25
54
ENDCHAR
STARTCHAR uni02BB
ENCODING 699
SWIDTH 245 0
DWIDTH 2 0
BBX 2 3 0 5
BITMAP
10
50
60
ENDCHAR
STARTCHAR uni02BC
ENCODING 700
SWIDTH 244 0
DWIDTH 2 0
BBX 2 2 0 5
BITMAP
60
10
ENDCHAR
STARTCHAR uni02BD
ENCODING 701
SWIDTH 244 0
DWIDTH 2 0
BBX 2 3 0 4
BITMAP
60
50
10
ENDCHAR
STARTCHAR uni02BE
ENCODING 702
SWIDTH 203 0
DWIDTH 2 0
BBX 2 3 0 5
BITMAP
50
20
50
ENDCHAR
STARTCHAR uni02BF
ENCODING 703
SWIDTH 203 0
DWIDTH 2 0
BBX 2 3 0 5
BITMAP
50
80
50
ENDCHAR
STARTCHAR uni02C0
ENCODING 704
SWIDTH 364 0
DWIDTH 4 0
BBX 4 4 0 4
BITMAP
14
49
08
20
ENDCHAR
STARTCHAR uni02C1
ENCODING 705
SWIDTH 364 0
DWIDTH 4 0
BBX 3 4 0 4
BITMAP
14
94
50
14
ENDCHAR
STARTCHAR uni02C2
ENCODING 706
SWIDTH 324 0
DWIDTH 3 0
BBX 3 4 0 4
BITMAP
04
64
64
04
ENDCHAR
STARTCHAR uni02C3
ENCODING 707
SWIDTH 324 0
DWIDTH 3 0
BBX 3 4 0 4
BITMAP
40
24
24
40
ENDCHAR
STARTCHAR uni02C4
ENCODING 708
SWIDTH 324 0
DWIDTH 3 0
BBX 3 3 0 5
BITMAP
10
24
88
ENDCHAR
STARTCHAR uni02C5
ENCODING 709
SWIDTH 324 0
DWIDTH 3 0
BBX 3 3 0 5
BITMAP
44
58
20
ENDCHAR
STARTCHAR circumflex
ENCODING 710
SWIDTH 342 0
DWIDTH 3 0
BBX 3 2 0 5
BITMAP
10
58
ENDCHAR
STARTCHAR caron
ENCODING 711
SWIDTH 342 0
DWIDTH 3 0
BBX 3 2 0 5
BITMAP
44
24
ENDCHAR
STARTCHAR uni02C8
ENCODING 712
SWIDTH 284 0
DWIDTH 3 0
BBX 1 3 1 5
BITMAP
40
40
40
ENDCHAR
STARTCHAR uni02C9
ENCODING 713
SWIDTH 350 0
DWIDTH 4 0
BBX 3 1 0 6
BITMAP
68
ENDCHAR
STARTCHAR uni02CA
ENCODING 714
SWIDTH 222 0
DWIDTH 2 0
BBX 2 2 0 5
BITMAP
10
50
ENDCHAR
STARTCHAR uni02CB
ENCODING 715
SWIDTH 222 0
DWIDTH 2 0
BBX 2 2 0 5
BITMAP
50
20
ENDCHAR
STARTCHAR uni02CC
ENCODING 716
SWIDTH 284 0
DWIDTH 3 0
BBX 1 3 1 -2
BITMAP
40
40
40
ENDCHAR
STARTCHAR uni02CD
ENCODING 717
SWIDTH 342 0
DWIDTH 3 0
BBX 4 1 0 -2
BITMAP
A9
ENDCHAR
STARTCHAR uni02CE
ENCODING 718
SWIDTH 222 0
DWIDTH 2 0
BBX 2 2 0 -2
BITMAP
50
20
ENDCHAR
STARTCHAR uni02CF
ENCODING 719
SWIDTH 223 0
DWIDTH 2 0
BBX 2 2 0 -2
BITMAP
10
50
ENDCHAR
STARTCHAR uni02D0
ENCODING 720
SWIDTH 341 0
DWIDTH 3 0
BBX 2 5 1 0
BITMAP
90
80
00
80
D0
ENDCHAR
STARTCHAR uni02D1
ENCODING 721
SWIDTH 341 0
DWIDTH 3 0
BBX 2 2 1 3
BITMAP
90
80
ENDCHAR
STARTCHAR uni02D2
ENCODING 722
SWIDTH 341 0
DWIDTH 3 0
BBX 2 3 1 1
BITMAP
90
20
90
ENDCHAR
STARTCHAR uni02D3
ENCODING 723
SWIDTH 341 0
DWIDTH 3 0
BBX 3 3 0 1
BITMAP
24
50
24
ENDCHAR
STARTCHAR uni02D4
ENCODING 724
SWIDTH 341 0
DWIDTH 3 0
BBX 3 2 0 1
BITMAP
10
64
ENDCHAR
STARTCHAR uni02D5
ENCODING 725
SWIDTH 341 0
DWIDTH 3 0
BBX 3 2 0 2
BITMAP
64
10
ENDCHAR
STARTCHAR uni02D6
ENCODING 726
SWIDTH 341 0
DWIDTH 3 0
BBX 2 2 1 2
BITMAP
90
40
ENDCHAR
STARTCHAR uni02D7
ENCODING 727
SWIDTH 341 0
DWIDTH 3 0
BBX 2 1 1 2
BITMAP
50
ENDCHAR
STARTCHAR breve
ENCODING 728
SWIDTH 353 0
DWIDTH 4 0
BBX 3 2 0 5
BITMAP
44
78
ENDCHAR
STARTCHAR dotaccent
ENCODING 729
SWIDTH 194 0
DWIDTH 2 0
BBX 2 1 0 6
BITMAP
50
ENDCHAR
STARTCHAR ring
ENCODING 730
SWIDTH 265 0
DWIDTH 3 0
BBX 3 3 0 5
BITMAP
50
44
50
ENDCHAR
STARTCHAR ogonek
ENCODING 731
SWIDTH 277 0
DWIDTH 3 0
BBX 2 3 0 -2
BITMAP
10
80
60
ENDCHAR
STARTCHAR tilde
ENCODING 732
SWIDTH 381 0
DWIDTH 4 0
BBX 3 1 0 5
BITMAP
68
ENDCHAR
STARTCHAR hungarumlaut
ENCODING 733
SWIDTH 350 0
DWIDTH 4 0
BBX 3 2 0 5
BITMAP
28
54
ENDCHAR
STARTCHAR uni02DE
ENCODING 734
SWIDTH 205 0
DWIDTH 2 0
BBX 2 2 0 2
BITMAP
40
50
ENDCHAR
STARTCHAR uni02DF
ENCODING 735
SWIDTH 302 0
DWIDTH 3 0
BBX 3 2 0 5
BITMAP
64
54
ENDCHAR
STARTCHAR uni02E0
ENCODING 736
SWIDTH 413 0
DWIDTH 4 0
BBX 4 6 0 1
BITMAP
A2
21
24
18
18
18
ENDCHAR
STARTCHAR uni02E1
ENCODING 737
SWIDTH 244 0
DWIDTH 2 0
BBX 2 6 0 3
BITMAP
60
20
20
20
20
60
ENDCHAR
STARTCHAR uni02E2
ENCODING 738
SWIDTH 337 0
DWIDTH 3 0
BBX 3 4 0 3
BITMAP
58
64
58
98
ENDCHAR
STARTCHAR uni02E3
ENCODING 739
SWIDTH 445 0
DWIDTH 4 0
BBX 4 4 0 3
BITMAP
76
18
18
56
ENDCHAR
STARTCHAR uni02E4
ENCODING 740
SWIDTH 364 0
DWIDTH 4 0
BBX 4 6 0 3
BITMAP
29
91
50
18
08
1D
ENDCHAR
STARTCHAR uni02E5
ENCODING 741
SWIDTH 423 0
DWIDTH 4 0
BBX 4 7 0 0
BITMAP
6A
02
02
02
02
02
02
ENDCHAR
STARTCHAR uni02E6
ENCODING 742
SWIDTH 414 0
DWIDTH 4 0
BBX 4 7 0 0
BITMAP
01
02
6A
02
02
02
02
ENDCHAR
STARTCHAR uni02E7
ENCODING 743
SWIDTH 414 0
DWIDTH 4 0
BBX 4 7 0 0
BITMAP
02
02
02
6A
02
02
01
ENDCHAR
STARTCHAR uni02E8
ENCODING 744
SWIDTH 414 0
DWIDTH 4 0
BBX 4 7 0 0
BITMAP
02
02
02
02
6A
02
01
ENDCHAR
STARTCHAR uni02E9
ENCODING 745
SWIDTH 414 0
DWIDTH 4 0
BBX 4 7 0 0
BITMAP
02
02
02
02
02
02
6A
ENDCHAR
STARTCHAR uni02EC
ENCODING 748
SWIDTH 341 0
DWIDTH 3 0
BBX 3 3 0 -2
BITMAP
44
68
20
ENDCHAR
STARTCHAR uni02ED
ENCODING 749
SWIDTH 380 0
DWIDTH 4 0
BBX 4 2 0 5
BITMAP
69
69
ENDCHAR
STARTCHAR uni02F7
ENCODING 759
SWIDTH 381 0
DWIDTH 4 0
BBX 4 1 0 -2
BITMAP
7D
ENDCHAR
STARTCHAR uni0300
ENCODING 768
SWIDTH 0 0
DWIDTH 0 0
BBX 1 2 -3 5
BITMAP
40
80
ENDCHAR
STARTCHAR uni0301
ENCODING 769
SWIDTH 0 0
DWIDTH 0 0
BBX 2 2 -3 5
BITMAP
10
80
ENDCHAR
STARTCHAR uni0302
ENCODING 770
SWIDTH 0 0
DWIDTH 0 0
BBX 3 2 -4 5
BITMAP
10
54
ENDCHAR
STARTCHAR uni0303
ENCODING 771
SWIDTH 0 0
DWIDTH 0 0
BBX 3 1 -4 5
BITMAP
68
ENDCHAR
STARTCHAR uni0304
ENCODING 772
SWIDTH 0 0
DWIDTH 0 0
BBX 3 1 -4 6
BITMAP
68
ENDCHAR
STARTCHAR uni0305
ENCODING 773
SWIDTH 0 0
DWIDTH 0 0
BBX 4 1 -4 6
BITMAP
AA
ENDCHAR
STARTCHAR uni0306
ENCODING 774
SWIDTH 0 0
DWIDTH 0 0
BBX 3 2 -4 5
BITMAP
44
78
ENDCHAR
STARTCHAR uni0307
ENCODING 775
SWIDTH 0 0
DWIDTH 0 0
BBX 1 1 -3 6
BITMAP
80
ENDCHAR
STARTCHAR uni0308
ENCODING 776
SWIDTH 0 0
DWIDTH 0 0
BBX 4 1 -4 6
BITMAP
89
ENDCHAR
STARTCHAR uni0309
ENCODING 777
SWIDTH 0 0
DWIDTH 0 0
BBX 2 3 -3 5
BITMAP
50
20
40
ENDCHAR
STARTCHAR uni030A
ENCODING 778
SWIDTH 0 0
DWIDTH 0 0
BBX 3 3 -4 5
BITMAP
14
54
14
ENDCHAR
STARTCHAR uni030B
ENCODING 779
SWIDTH 0 0
DWIDTH 0 0
BBX 3 2 -3 5
BITMAP
94
60
ENDCHAR
STARTCHAR uni030C
ENCODING 780
SWIDTH 0 0
DWIDTH 0 0
BBX 3 2 -4 5
BITMAP
44
24
ENDCHAR
STARTCHAR uni030D
ENCODING 781
SWIDTH 0 0
DWIDTH 0 0
BBX 1 2 -3 5
BITMAP
80
80
ENDCHAR
STARTCHAR uni030E
ENCODING 782
SWIDTH 0 0
DWIDTH 0 0
BBX 3 2 -4 5
BITMAP
58
58
ENDCHAR
STARTCHAR uni030F
ENCODING 783
SWIDTH 0 0
DWIDTH 0 0
BBX 3 2 -4 5
BITMAP
A0
54
ENDCHAR
STARTCHAR uni0310
ENCODING 784
SWIDTH 0 0
DWIDTH 0 0
BBX 3 2 -4 5
BITMAP
64
78
ENDCHAR
STARTCHAR uni0311
ENCODING 785
SWIDTH 0 0
DWIDTH 0 0
BBX 3 2 -4 5
BITMAP
78
44
ENDCHAR
STARTCHAR uni0312
ENCODING 786
SWIDTH 0 0
DWIDTH 0 0
BBX 2 2 -3 5
BITMAP
40
90
ENDCHAR
STARTCHAR uni0313
ENCODING 787
SWIDTH 0 0
DWIDTH 0 0
BBX 2 2 -3 6
BITMAP
90
40
ENDCHAR
STARTCHAR uni0314
ENCODING 788
SWIDTH 0 0
DWIDTH 0 0
BBX 2 2 -3 6
BITMAP
90
40
ENDCHAR
STARTCHAR uni0315
ENCODING 789
SWIDTH 0 0
DWIDTH 0 0
BBX 2 2 -3 5
BITMAP
50
40
ENDCHAR
STARTCHAR uni0316
ENCODING 790
SWIDTH 0 0
DWIDTH 0 0
BBX 1 2 -3 -2
BITMAP
40
80
ENDCHAR
STARTCHAR uni0317
ENCODING 791
SWIDTH 0 0
DWIDTH 0 0
BBX 2 2 -3 -2
BITMAP
10
50
ENDCHAR
STARTCHAR uni0318
ENCODING 792
SWIDTH 0 0
DWIDTH 0 0
BBX 2 2 -3 -3
BITMAP
50
10
ENDCHAR
STARTCHAR uni0319
ENCODING 793
SWIDTH 0 0
DWIDTH 0 0
BBX 1 2 -3 -3
BITMAP
80
40
ENDCHAR
STARTCHAR uni031A
ENCODING 794
SWIDTH 0 0
DWIDTH 0 0
BBX 3 2 -4 5
BITMAP
68
08
ENDCHAR
STARTCHAR uni031B
ENCODING 795
SWIDTH 0 0
DWIDTH 0 0
BBX 2 3 -2 4
BITMAP
10
20
50
ENDCHAR
STARTCHAR uni031C
ENCODING 796
SWIDTH 0 0
DWIDTH 0 0
BBX 1 3 -3 -3
BITMAP
40
40
40
ENDCHAR
STARTCHAR uni031D
ENCODING 797
SWIDTH 0 0
DWIDTH 0 0
BBX 2 2 -3 -2
BITMAP
40
90
ENDCHAR
STARTCHAR uni031E
ENCODING 798
SWIDTH 0 0
DWIDTH 0 0
BBX 2 2 -3 -2
BITMAP
90
40
ENDCHAR
STARTCHAR uni031F
ENCODING 799
SWIDTH 0 0
DWIDTH 0 0
BBX 2 2 -3 -3
BITMAP
90
40
ENDCHAR
STARTCHAR uni0320
ENCODING 800
SWIDTH 0 0
DWIDTH 0 0
BBX 2 1 -3 -2
BITMAP
50
ENDCHAR
STARTCHAR uni0321
ENCODING 801
SWIDTH 0 0
DWIDTH 0 0
BBX 3 3 -4 -3
BITMAP
14
54
90
ENDCHAR
STARTCHAR uni0322
ENCODING 802
SWIDTH 0 0
DWIDTH 0 0
BBX 4 3 -3 -3
BITMAP
50
24
19
ENDCHAR
STARTCHAR uni0323
ENCODING 803
SWIDTH 0 0
DWIDTH 0 0
BBX 1 1 -3 -2
BITMAP
80
ENDCHAR
STARTCHAR uni0324
ENCODING 804
SWIDTH 0 0
DWIDTH 0 0
BBX 4 1 -4 -2
BITMAP
89
ENDCHAR
STARTCHAR uni0325
ENCODING 805
SWIDTH 0 0
DWIDTH 0 0
BBX 3 3 -4 -3
BITMAP
14
54
14
ENDCHAR
STARTCHAR uni0326
ENCODING 806
SWIDTH 0 0
DWIDTH 0 0
BBX 2 2 -3 -3
BITMAP
90
40
ENDCHAR
STARTCHAR uni0327
ENCODING 807
SWIDTH 0 0
DWIDTH 0 0
BBX 2 2 -3 -2
BITMAP
50
50
ENDCHAR
STARTCHAR uni0328
ENCODING 808
SWIDTH 0 0
DWIDTH 0 0
BBX 3 3 -4 -2
BITMAP
10
50
24
ENDCHAR
STARTCHAR uni0329
ENCODING 809
SWIDTH 0 0
DWIDTH 0 0
BBX 1 2 -3 -2
BITMAP
40
80
ENDCHAR
STARTCHAR uni032A
ENCODING 810
SWIDTH 0 0
DWIDTH 0 0
BBX 3 2 -4 -2
BITMAP
54
44
ENDCHAR
STARTCHAR uni032B
ENCODING 811
SWIDTH 0 0
DWIDTH 0 0
BBX 3 1 -4 -2
BITMAP
54
ENDCHAR
STARTCHAR uni032C
ENCODING 812
SWIDTH 0 0
DWIDTH 0 0
BBX 3 2 -4 -2
BITMAP
44
24
ENDCHAR
STARTCHAR uni032D
ENCODING 813
SWIDTH 0 0
DWIDTH 0 0
BBX 3 2 -4 -2
BITMAP
10
54
ENDCHAR
STARTCHAR uni032E
ENCODING 814
SWIDTH 0 0
DWIDTH 0 0
BBX 3 2 -4 -2
BITMAP
44
78
ENDCHAR
STARTCHAR uni032F
ENCODING 815
SWIDTH 0 0
DWIDTH 0 0
BBX 3 2 -4 -2
BITMAP
78
44
ENDCHAR
STARTCHAR uni0330
ENCODING 816
SWIDTH 0 0
DWIDTH 0 0
BBX 3 1 -4 -2
BITMAP
BC
ENDCHAR
STARTCHAR uni0331
ENCODING 817
SWIDTH 0 0
DWIDTH 0 0
BBX 3 1 -4 -2
BITMAP
68
ENDCHAR
STARTCHAR uni0332
ENCODING 818
SWIDTH 0 0
DWIDTH 0 0
BBX 5 1 -5 -2
BITMAP
6A80
ENDCHAR
STARTCHAR uni0333
ENCODING 819
SWIDTH 0 0
DWIDTH 0 0
BBX 5 2 -5 -3
BITMAP
6A80
6A80
ENDCHAR
STARTCHAR uni0334
ENCODING 820
SWIDTH 0 0
DWIDTH 0 0
BBX 4 2 -4 2
BITMAP
A5
58
ENDCHAR
STARTCHAR uni0335
ENCODING 821
SWIDTH 0 0
DWIDTH 0 0
BBX 3 1 -4 2
BITMAP
54
ENDCHAR
STARTCHAR uni0336
ENCODING 822
SWIDTH 0 0
DWIDTH 0 0
BBX 5 1 -5 2
BITMAP
5540
ENDCHAR
STARTCHAR uni0337
ENCODING 823
SWIDTH 0 0
DWIDTH 0 0
BBX 2 2 -3 3
BITMAP
10
40
ENDCHAR
STARTCHAR uni0338
ENCODING 824
SWIDTH 0 0
DWIDTH 0 0
BBX 4 9 -4 -2
BITMAP
01
01
04
08
14
20
50
80
40
ENDCHAR
STARTCHAR uni0339
ENCODING 825
SWIDTH 0 0
DWIDTH 0 0
BBX 2 3 -3 -3
BITMAP
40
10
40
ENDCHAR
STARTCHAR uni033A
ENCODING 826
SWIDTH 0 0
DWIDTH 0 0
BBX 3 2 -4 -2
BITMAP
44
54
ENDCHAR
STARTCHAR uni033B
ENCODING 827
SWIDTH 0 0
DWIDTH 0 0
BBX 2 2 -3 -3
BITMAP
50
50
ENDCHAR
STARTCHAR uni033C
ENCODING 828
SWIDTH 0 0
DWIDTH 0 0
BBX 3 1 -4 -1
BITMAP
58
ENDCHAR
STARTCHAR uni033D
ENCODING 829
SWIDTH 0 0
DWIDTH 0 0
BBX 2 2 -3 5
BITMAP
90
50
ENDCHAR
STARTCHAR uni033E
ENCODING 830
SWIDTH 0 0
DWIDTH 0 0
BBX 1 3 -3 5
BITMAP
80
40
40
ENDCHAR
STARTCHAR uni033F
ENCODING 831
SWIDTH 0 0
DWIDTH 0 0
BBX 4 2 -4 5
BITMAP
A9
A9
ENDCHAR
STARTCHAR uni0346
ENCODING 838
SWIDTH 0 0
DWIDTH 0 0
BBX 3 2 -4 5
BITMAP
A8
44
ENDCHAR
STARTCHAR uni0347
ENCODING 839
SWIDTH 0 0
DWIDTH 0 0
BBX 3 2 -4 -2
BITMAP
A8
A8
ENDCHAR
STARTCHAR uni034C
ENCODING 844
SWIDTH 0 0
DWIDTH 0 0
BBX 4 3 -4 5
BITMAP
61
58
68
ENDCHAR
STARTCHAR uni034D
ENCODING 845
SWIDTH 0 0
DWIDTH 0 0
BBX 5 3 -5 -3
BITMAP
1000
6A80
1000
ENDCHAR
STARTCHAR uni0359
ENCODING 857
SWIDTH 0 0
DWIDTH 0 0
BBX 3 3 -4 -4
BITMAP
68
68
20
ENDCHAR
STARTCHAR uni035C
ENCODING 860
SWIDTH 0 0
DWIDTH 0 0
BBX 6 2 -3 -3
BITMAP
4010
BFE0
ENDCHAR
STARTCHAR uni0360
ENCODING 864
SWIDTH 0 0
DWIDTH 0 0
BBX 6 2 -3 5
BITMAP
2810
4280
ENDCHAR
STARTCHAR uni0361
ENCODING 865
SWIDTH 0 0
DWIDTH 0 0
BBX 6 2 -3 5
BITMAP
2F80
5050
ENDCHAR
STARTCHAR uni0362
ENCODING 866
SWIDTH 0 0
DWIDTH 0 0
BBX 8 1 -4 -2
BITMAP
6AAA
ENDCHAR
STARTCHAR uni037E
ENCODING 894
SWIDTH 261 0
DWIDTH 3 0
BBX 1 6 1 -1
BITMAP
80
00
00
00
80
40
ENDCHAR
STARTCHAR tonos
ENCODING 900
SWIDTH 165 0
DWIDTH 2 0
BBX 2 2 0 5
BITMAP
90
80
ENDCHAR
STARTCHAR dieresistonos
ENCODING 901
SWIDTH 426 0
DWIDTH 4 0
BBX 4 2 0 5
BITMAP
18
56
ENDCHAR
STARTCHAR Alphatonos
ENCODING 902
SWIDTH 718 0
DWIDTH 7 0
BBX 7 7 0 0
BITMAP
5200
4640
0980
04D0
15A0
2030
A078
ENDCHAR
STARTCHAR anoteleia
ENCODING 903
SWIDTH 261 0
DWIDTH 3 0
BBX 1 1 1 4
BITMAP
80
ENDCHAR
STARTCHAR Epsilontonos
ENCODING 904
SWIDTH 745 0
DWIDTH 7 0
BBX 7 7 0 0
BITMAP
8A58
4504
0510
0660
0500
0504
0A6C
ENDCHAR
STARTCHAR Etatonos
ENCODING 905
SWIDTH 896 0
DWIDTH 9 0
BBX 9 7 0 0
BITMAP
8A0B40
450600
050600
065A00
050600
050600
0A0B40
ENDCHAR
STARTCHAR Iotatonos
ENCODING 906
SWIDTH 478 0
DWIDTH 5 0
BBX 4 7 0 0
BITMAP
8A
45
05
05
05
05
0A
ENDCHAR
STARTCHAR Omicrontonos
ENCODING 908
SWIDTH 806 0
DWIDTH 8 0
BBX 8 7 0 0
BITMAP
8664
580C
2409
240A
2409
1808
0664
ENDCHAR
STARTCHAR Upsilontonos
ENCODING 910
SWIDTH 787 0
DWIDTH 8 0
BBX 9 7 -1 0
BITMAP
678240
518100
009400
003400
002000
002000
007800
ENDCHAR
STARTCHAR Omegatonos
ENCODING 911
SWIDTH 830 0
DWIDTH 8 0
BBX 8 7 0 0
BITMAP
87E4
5C1D
2809
2409
1808
1915
2E3E
ENDCHAR
STARTCHAR iotadieresistonos
ENCODING 912
SWIDTH 259 0
DWIDTH 3 0
BBX 4 8 -1 0
BITMAP
08
56
00
18
14
14
14
09
ENDCHAR
STARTCHAR Alpha
ENCODING 913
SWIDTH 718 0
DWIDTH 7 0
BBX 7 7 0 0
BITMAP
0200
0640
0980
04D0
15A0
2030
A078
ENDCHAR
STARTCHAR Beta
ENCODING 914
SWIDTH 618 0
DWIDTH 6 0
BBX 6 7 0 0
BITMAP
7980
2490
2490
2A80
2460
2460
7990
ENDCHAR
STARTCHAR Gamma
ENCODING 915
SWIDTH 569 0
DWIDTH 6 0
BBX 6 7 0 0
BITMAP
BFD0
2410
2400
2400
2400
2400
BD00
ENDCHAR
STARTCHAR Delta
ENCODING 916
SWIDTH 667 0
DWIDTH 7 0
BBX 7 7 0 0
BITMAP
0200
0600
0580
14C0
2090
5060
BAB4
ENDCHAR
STARTCHAR Epsilon
ENCODING 917
SWIDTH 626 0
DWIDTH 6 0
BBX 6 7 0 0
BITMAP
79A0
2410
2440
2980
2400
2410
79A0
ENDCHAR
STARTCHAR Zeta
ENCODING 918
SWIDTH 594 0
DWIDTH 6 0
BBX 6 7 0 0
BITMAP
65D0
4180
0300
0900
1800
3410
B590
ENDCHAR
STARTCHAR Eta
ENCODING 919
SWIDTH 777 0
DWIDTH 8 0
BBX 7 7 0 0
BITMAP
7828
2414
2414
2964
2414
2414
7828
ENDCHAR
STARTCHAR Theta
ENCODING 920
SWIDTH 738 0
DWIDTH 7 0
BBX 7 7 0 0
BITMAP
1BD0
3424
6018
6BDC
6458
3424
1BD0
ENDCHAR
STARTCHAR Iota
ENCODING 921
SWIDTH 357 0
DWIDTH 4 0
BBX 3 7 0 0
BITMAP
78
24
24
24
24
24
78
ENDCHAR
STARTCHAR Kappa
ENCODING 922
SWIDTH 702 0
DWIDTH 7 0
BBX 7 7 0 0
BITMAP
78A4
2480
2600
2900
2640
24D0
78B4
ENDCHAR
STARTCHAR Lambda
ENCODING 923
SWIDTH 710 0
DWIDTH 7 0
BBX 7 7 0 0
BITMAP
0200
0640
0580
1490
2060
2034
F0BC
ENDCHAR
STARTCHAR Mu
ENCODING 924
SWIDTH 895 0
DWIDTH 9 0
BBX 8 7 0 0
BITMAP
780B
2C0A
1916
1626
1356
11C6
748B
ENDCHAR
STARTCHAR Nu
ENCODING 925
SWIDTH 742 0
DWIDTH 7 0
BBX 7 7 0 0
BITMAP
7428
2C14
1614
1254
10D4
2074
7414
ENDCHAR
STARTCHAR Xi
ENCODING 926
SWIDTH 648 0
DWIDTH 6 0
BBX 6 7 0 0
BITMAP
7FE0
4010
1040
1FC0
0000
4010
7FF0
ENDCHAR
STARTCHAR Omicron
ENCODING 927
SWIDTH 738 0
DWIDTH 7 0
BBX 7 7 0 0
BITMAP
1990
3024
6018
601C
6018
3024
1950
ENDCHAR
STARTCHAR Pi
ENCODING 928
SWIDTH 759 0
DWIDTH 8 0
BBX 8 7 0 0
BITMAP
BFFD
2424
2424
2424
2424
2424
BCBD
ENDCHAR
STARTCHAR Rho
ENCODING 929
SWIDTH 569 0
DWIDTH 6 0
BBX 6 7 0 0
BITMAP
7980
2490
2490
2940
2400
2400
7800
ENDCHAR
STARTCHAR Sigma
ENCODING 931
SWIDTH 604 0
DWIDTH 6 0
BBX 6 7 0 0
BITMAP
BFD0
2410
0C00
0500
0800
2020
BFE0
ENDCHAR
STARTCHAR Tau
ENCODING 932
SWIDTH 603 0
DWIDTH 6 0
BBX 6 7 0 0
BITMAP
AA60
4510
0500
0500
0500
0500
0A00
ENDCHAR
STARTCHAR Upsilon
ENCODING 933
SWIDTH 647 0
DWIDTH 6 0
BBX 7 7 0 0
BITMAP
B464
2440
0C40
0A00
0600
0600
0B40
ENDCHAR
STARTCHAR Phi
ENCODING 934
SWIDTH 718 0
DWIDTH 7 0
BBX 7 7 0 0
BITMAP
0BC0
0300
2764
9318
A328
2FE0
0BC0
ENDCHAR
STARTCHAR Chi
ENCODING 935
SWIDTH 664 0
DWIDTH 7 0
BBX 7 7 0 0
BITMAP
7864
1880
0A40
0700
0A80
10D0
60B4
ENDCHAR
STARTCHAR Psi
ENCODING 936
SWIDTH 720 0
DWIDTH 7 0
BBX 7 7 0 0
BITMAP
DBDC
6318
6318
7324
1BE0
0300
0BC0
ENDCHAR
STARTCHAR Omega
ENCODING 937
SWIDTH 777 0
DWIDTH 8 0
BBX 8 7 0 0
BITMAP
0BE0
2828
301C
300C
2018
5825
7D7C
ENDCHAR
STARTCHAR Iotadieresis
ENCODING 938
SWIDTH 357 0
DWIDTH 4 0
BBX 4 8 0 0
BITMAP
89
78
24
24
24
24
24
78
ENDCHAR
STARTCHAR Upsilondieresis
ENCODING 939
SWIDTH 647 0
DWIDTH 6 0
BBX 7 8 0 0
BITMAP
0880
B464
2440
0C40
0A00
0600
0600
0B40
ENDCHAR
STARTCHAR alphatonos
ENCODING 940
SWIDTH 561 0
DWIDTH 6 0
BBX 6 7 0 0
BITMAP
0500
0800
29C0
4280
4200
4240
2990
ENDCHAR
STARTCHAR epsilontonos
ENCODING 941
SWIDTH 381 0
DWIDTH 4 0
BBX 4 7 0 0
BITMAP
08
08
2D
50
24
80
7D
ENDCHAR
STARTCHAR etatonos
ENCODING 942
SWIDTH 510 0
DWIDTH 5 0
BBX 5 9 0 -2
BITMAP
0600
0500
A700
2540
2040
2040
2140
0140
0240
ENDCHAR
STARTCHAR iotatonos
ENCODING 943
SWIDTH 259 0
DWIDTH 3 0
BBX 3 7 0 0
BITMAP
20
20
60
50
50
50
24
ENDCHAR
STARTCHAR upsilondieresistonos
ENCODING 944
SWIDTH 491 0
DWIDTH 5 0
BBX 5 8 0 0
BITMAP
0800
5600
0000
A100
2140
1140
1240
2E00
ENDCHAR
STARTCHAR alpha
ENCODING 945
SWIDTH 561 0
DWIDTH 6 0
BBX 6 5 0 0
BITMAP
29C0
4280
4200
4240
2990
ENDCHAR
STARTCHAR beta
ENCODING 946
SWIDTH 530 0
DWIDTH 5 0
BBX 5 10 0 -2
BITMAP
0B40
2080
2040
1140
5A00
5080
6080
6B40
5000
9000
ENDCHAR
STARTCHAR gamma
ENCODING 947
SWIDTH 466 0
DWIDTH 5 0
BBX 5 7 0 -2
BITMAP
A240
2200
1900
1800
1400
2400
2400
ENDCHAR
STARTCHAR delta
ENCODING 948
SWIDTH 479 0
DWIDTH 5 0
BBX 5 8 0 0
BITMAP
2E00
2100
0800
2A00
5240
4140
4240
3D00
ENDCHAR
STARTCHAR epsilon
ENCODING 949
SWIDTH 381 0
DWIDTH 4 0
BBX 4 5 0 0
BITMAP
2D
50
24
80
7D
ENDCHAR
STARTCHAR zeta
ENCODING 950
SWIDTH 386 0
DWIDTH 4 0
BBX 4 9 0 -2
BITMAP
26
19
20
50
40
50
3D
02
19
ENDCHAR
STARTCHAR eta
ENCODING 951
SWIDTH 510 0
DWIDTH 5 0
BBX 5 7 0 -2
BITMAP
A700
2540
2040
2040
2140
0140
0240
ENDCHAR
STARTCHAR theta
ENCODING 952
SWIDTH 514 0
DWIDTH 5 0
BBX 5 8 0 0
BITMAP
1E00
2140
5080
4080
7F80
4040
1140
1E00
ENDCHAR
STARTCHAR iota
ENCODING 953
SWIDTH 259 0
DWIDTH 3 0
BBX 3 5 0 0
BITMAP
60
50
50
50
24
ENDCHAR
STARTCHAR kappa
ENCODING 954
SWIDTH 495 0
DWIDTH 5 0
BBX 5 5 0 0
BITMAP
A280
2900
2800
2400
2280
ENDCHAR
STARTCHAR lambda
ENCODING 955
SWIDTH 506 0
DWIDTH 5 0
BBX 5 8 0 0
BITMAP
2400
0800
0400
0900
1900
2100
6200
9280
ENDCHAR
STARTCHAR mu
ENCODING 956
SWIDTH 552 0
DWIDTH 6 0
BBX 6 7 0 -2
BITMAP
6140
5140
5100
5240
6990
9000
9000
ENDCHAR
STARTCHAR nu
ENCODING 957
SWIDTH 453 0
DWIDTH 5 0
BBX 5 5 0 0
BITMAP
A200
2240
2200
1500
1800
ENDCHAR
STARTCHAR xi
ENCODING 958
SWIDTH 390 0
DWIDTH 4 0
BBX 4 10 0 -2
BITMAP
10
2A
24
50
29
40
90
2E
01
19
ENDCHAR
STARTCHAR omicron
ENCODING 959
SWIDTH 475 0
DWIDTH 5 0
BBX 5 5 0 0
BITMAP
2E00
5140
4040
9140
2E00
ENDCHAR
STARTCHAR pi
ENCODING 960
SWIDTH 591 0
DWIDTH 6 0
BBX 6 5 0 0
BITMAP
6FE0
0440
1540
2140
21D0
ENDCHAR
STARTCHAR rho
ENCODING 961
SWIDTH 515 0
DWIDTH 5 0
BBX 5 7 0 -2
BITMAP
1E40
2080
5040
6040
6E00
5000
5000
ENDCHAR
STARTCHAR uni03C2
ENCODING 962
SWIDTH 377 0
DWIDTH 4 0
BBX 4 7 0 -2
BITMAP
2D
40
40
64
19
01
19
ENDCHAR
STARTCHAR sigma
ENCODING 963
SWIDTH 545 0
DWIDTH 5 0
BBX 6 5 0 0
BITMAP
2FD0
5100
8040
9140
2E00
ENDCHAR
STARTCHAR tau
ENCODING 964
SWIDTH 392 0
DWIDTH 4 0
BBX 4 5 0 0
BITMAP
BE
14
10
24
1D
ENDCHAR
STARTCHAR upsilon
ENCODING 965
SWIDTH 491 0
DWIDTH 5 0
BBX 5 5 0 0
BITMAP
A100
2140
1140
1240
2E00
ENDCHAR
STARTCHAR phi
ENCODING 966
SWIDTH 603 0
DWIDTH 6 0
BBX 6 7 0 -2
BITMAP
26D0
4520
4520
5990
1E40
0900
0900
ENDCHAR
STARTCHAR chi
ENCODING 967
SWIDTH 462 0
DWIDTH 5 0
BBX 6 7 -1 -2
BITMAP
2860
0480
0240
0600
0A00
2540
60D0
ENDCHAR
STARTCHAR psi
ENCODING 968
SWIDTH 620 0
DWIDTH 6 0
BBX 6 10 0 -2
BITMAP
0100
0200
0200
A250
2220
1120
2150
2F80
0500
0600
ENDCHAR
STARTCHAR omega
ENCODING 969
SWIDTH 660 0
DWIDTH 7 0
BBX 7 5 0 0
BITMAP
2410
5220
4214
4220
29E0
ENDCHAR
STARTCHAR iotadieresis
ENCODING 970
SWIDTH 259 0
DWIDTH 3 0
BBX 4 7 -1 0
BITMAP
52
00
18
14
14
14
09
ENDCHAR
STARTCHAR upsilondieresis
ENCODING 971
SWIDTH 491 0
DWIDTH 5 0
BBX 5 7 0 0
BITMAP
5200
0000
A100
2140
1140
1240
2E00
ENDCHAR
STARTCHAR omicrontonos
ENCODING 972
SWIDTH 475 0
DWIDTH 5 0
BBX 5 7 0 0
BITMAP
0500
0800
2E00
5140
4040
9140
2E00
ENDCHAR
STARTCHAR upsilontonos
ENCODING 973
SWIDTH 491 0
DWIDTH 5 0
BBX 5 7 0 0
BITMAP
0800
0800
A100
2140
1140
1240
2E00
ENDCHAR
STARTCHAR omegatonos
ENCODING 974
SWIDTH 660 0
DWIDTH 7 0
BBX 7 7 0 0
BITMAP
0200
0200
2410
5220
4214
4220
29E0
ENDCHAR
STARTCHAR uni03D0
ENCODING 976
SWIDTH 438 0
DWIDTH 4 0
BBX 4 8 0 0
BITMAP
0A
21
21
5A
6D
51
61
2E
ENDCHAR
STARTCHAR uni03D1
ENCODING 977
SWIDTH 541 0
DWIDTH 5 0
BBX 5 8 0 0
BITMAP
1E00
2100
1040
1080
0BC0
6080
2140
1E00
ENDCHAR
STARTCHAR uni03D2
ENCODING 978
SWIDTH 616 0
DWIDTH 6 0
BBX 6 7 0 0
BITMAP
78B0
0D60
0A00
0600
0600
0600
1F80
ENDCHAR
STARTCHAR uni03D5
ENCODING 981
SWIDTH 575 0
DWIDTH 6 0
BBX 6 10 0 -2
BITMAP
0100
0600
0600
2E80
5550
4510
5980
2E40
0800
0800
ENDCHAR
STARTCHAR uni03D6
ENCODING 982
SWIDTH 821 0
DWIDTH 8 0
BBX 8 5 0 0
BITMAP
7FFF
1448
1085
1088
0A78
ENDCHAR
STARTCHAR uni03D8
ENCODING 984
SWIDTH 627 0
DWIDTH 6 0
BBX 6 7 0 0
BITMAP
2F80
60A0
9070
5060
2590
0600
0A40
ENDCHAR
STARTCHAR uni03D9
ENCODING 985
SWIDTH 475 0
DWIDTH 5 0
BBX 5 8 0 -3
BITMAP
2E00
5140
4040
8140
6A00
0800
0800
0400
ENDCHAR
STARTCHAR uni03DA
ENCODING 986
SWIDTH 578 0
DWIDTH 6 0
BBX 6 7 0 0
BITMAP
1FD0
6050
9000
9000
7400
1F00
0740
ENDCHAR
STARTCHAR uni03DB
ENCODING 987
SWIDTH 490 0
DWIDTH 5 0
BBX 5 7 0 -2
BITMAP
2F80
5000
4000
6000
1900
0100
1800
ENDCHAR
STARTCHAR uni03DC
ENCODING 988
SWIDTH 588 0
DWIDTH 6 0
BBX 6 7 0 0
BITMAP
79A0
2410
2440
2980
2400
2400
7800
ENDCHAR
STARTCHAR uni03DD
ENCODING 989
SWIDTH 386 0
DWIDTH 4 0
BBX 5 8 -1 -3
BITMAP
1F80
1400
0400
0A00
1400
1400
2000
9000
ENDCHAR
STARTCHAR uni03DE
ENCODING 990
SWIDTH 525 0
DWIDTH 5 0
BBX 5 7 0 0
BITMAP
2D00
1400
1000
BF80
0140
0100
0F00
ENDCHAR
STARTCHAR uni03DF
ENCODING 991
SWIDTH 434 0
DWIDTH 4 0
BBX 4 7 0 0
BITMAP
90
20
10
6D
55
04
06
ENDCHAR
STARTCHAR uni03E0
ENCODING 992
SWIDTH 697 0
DWIDTH 7 0
BBX 7 7 0 0
BITMAP
0A00
0300
0680
09C0
12A0
2530
88BC
ENDCHAR
STARTCHAR uni03E1
ENCODING 993
SWIDTH 458 0
DWIDTH 5 0
BBX 4 9 0 -2
BITMAP
D0
74
08
6A
52
1A
11
01
01
ENDCHAR
STARTCHAR uni03F0
ENCODING 1008
SWIDTH 504 0
DWIDTH 5 0
BBX 5 5 0 0
BITMAP
A180
2200
1900
2500
6280
ENDCHAR
STARTCHAR uni03F1
ENCODING 1009
SWIDTH 467 0
DWIDTH 5 0
BBX 5 7 0 -2
BITMAP
2E00
5140
5140
6E00
2400
0900
2800
ENDCHAR
STARTCHAR uni03F4
ENCODING 1012
SWIDTH 737 0
DWIDTH 7 0
BBX 7 7 0 0
BITMAP
1BD0
3424
6018
7FFC
6018
3424
1BD0
ENDCHAR
STARTCHAR uni03F5
ENCODING 1013
SWIDTH 380 0
DWIDTH 4 0
BBX 4 5 0 0
BITMAP
2D
40
B8
40
2D
ENDCHAR
STARTCHAR uni03F6
ENCODING 1014
SWIDTH 382 0
DWIDTH 4 0
BBX 4 5 0 0
BITMAP
B8
05
3D
05
B8
ENDCHAR
STARTCHAR uni0400
ENCODING 1024
SWIDTH 626 0
DWIDTH 6 0
BBX 6 9 0 0
BITMAP
0400
0200
79A0
2410
2440
2980
2400
2410
79A0
ENDCHAR
STARTCHAR uni0401
ENCODING 1025
SWIDTH 626 0
DWIDTH 6 0
BBX 6 8 0 0
BITMAP
1880
79A0
2410
2440
2980
2400
2410
79A0
ENDCHAR
STARTCHAR uni0402
ENCODING 1026
SWIDTH 731 0
DWIDTH 7 0
BBX 7 7 0 0
BITMAP
AA70
4510
0500
0664
050C
050C
0994
ENDCHAR
STARTCHAR uni0403
ENCODING 1027
SWIDTH 548 0
DWIDTH 5 0
BBX 6 9 0 0
BITMAP
0100
0500
7990
2450
2400
2400
2400
2400
7800
ENDCHAR
STARTCHAR uni0404
ENCODING 1028
SWIDTH 668 0
DWIDTH 7 0
BBX 6 7 0 0
BITMAP
19B0
3020
6000
6540
6000
3010
1A90
ENDCHAR
STARTCHAR uni0405
ENCODING 1029
SWIDTH 504 0
DWIDTH 5 0
BBX 5 7 0 0
BITMAP
2640
5040
7400
1E00
0280
8180
A600
ENDCHAR
STARTCHAR uni0406
ENCODING 1030
SWIDTH 357 0
DWIDTH 4 0
BBX 3 7 0 0
BITMAP
78
24
24
24
24
24
78
ENDCHAR
STARTCHAR uni0407
ENCODING 1031
SWIDTH 357 0
DWIDTH 4 0
BBX 4 8 0 0
BITMAP
89
78
24
24
24
24
24
78
ENDCHAR
STARTCHAR uni0408
ENCODING 1032
SWIDTH 396 0
DWIDTH 4 0
BBX 4 7 0 0
BITMAP
2D
0C
08
08
08
08
A4
ENDCHAR
STARTCHAR uni0409
ENCODING 1033
SWIDTH 924 0
DWIDTH 9 0
BBX 9 7 0 0
BITMAP
19A000
045000
045000
046600
045180
1051C0
E0A640
ENDCHAR
STARTCHAR uni040A
ENCODING 1034
SWIDTH 1013 0
DWIDTH 10 0
BBX 10 7 0 0
BITMAP
786800
242400
242400
296A80
242460
242460
782990
ENDCHAR
STARTCHAR uni040B
ENCODING 1035
SWIDTH 761 0
DWIDTH 8 0
BBX 7 7 0 0
BITMAP
AA70
4510
0500
0660
0518
0518
0A2C
ENDCHAR
STARTCHAR uni040C
ENCODING 1036
SWIDTH 658 0
DWIDTH 7 0
BBX 7 9 0 0
BITMAP
0140
0200
7874
2440
2440
2A00
2580
2490
7864
ENDCHAR
STARTCHAR uni040D
ENCODING 1037
SWIDTH 780 0
DWIDTH 8 0
BBX 7 9 0 0
BITMAP
0500
0200
7828
2424
2464
2554
2514
2814
7828
ENDCHAR
STARTCHAR uni040E
ENCODING 1038
SWIDTH 625 0
DWIDTH 6 0
BBX 7 9 0 0
BITMAP
1880
0540
B464
2450
1840
0940
0700
0100
3800
ENDCHAR
STARTCHAR uni040F
ENCODING 1039
SWIDTH 759 0
DWIDTH 8 0
BBX 7 9 0 -2
BITMAP
7878
2424
2424
2424
2424
2424
7968
0100
0240
ENDCHAR
STARTCHAR uni0410
ENCODING 1040
SWIDTH 718 0
DWIDTH 7 0
BBX 7 7 0 0
BITMAP
0200
0640
0980
04D0
15A0
2030
A078
ENDCHAR
STARTCHAR uni0411
ENCODING 1041
SWIDTH 617 0
DWIDTH 6 0
BBX 6 7 0 0
BITMAP
7990
2410
2400
2940
2460
2460
7980
ENDCHAR
STARTCHAR uni0412
ENCODING 1042
SWIDTH 618 0
DWIDTH 6 0
BBX 6 7 0 0
BITMAP
7980
2490
2490
2A80
2460
2460
7990
ENDCHAR
STARTCHAR uni0413
ENCODING 1043
SWIDTH 548 0
DWIDTH 5 0
BBX 6 7 0 0
BITMAP
7990
2450
2400
2400
2400
2400
7800
ENDCHAR
STARTCHAR uni0414
ENCODING 1044
SWIDTH 663 0
DWIDTH 7 0
BBX 7 9 0 -2
BITMAP
19A0
0490
0490
1490
2090
2090
A5A0
8024
4014
ENDCHAR
STARTCHAR uni0415
ENCODING 1045
SWIDTH 626 0
DWIDTH 6 0
BBX 6 7 0 0
BITMAP
79A0
2410
2440
2980
2400
2410
79A0
ENDCHAR
STARTCHAR uni0416
ENCODING 1046
SWIDTH 937 0
DWIDTH 9 0
BBX 9 7 0 0
BITMAP
A1D1C0
148100
048500
06D800
088900
248300
71E180
ENDCHAR
STARTCHAR uni0417
ENCODING 1047
SWIDTH 545 0
DWIDTH 5 0
BBX 5 7 0 0
BITMAP
6640
4180
0140
0A40
00C0
40C0
2A40
ENDCHAR
STARTCHAR uni0418
ENCODING 1048
SWIDTH 780 0
DWIDTH 8 0
BBX 7 7 0 0
BITMAP
7828
2424
2464
2554
2514
2814
7828
ENDCHAR
STARTCHAR uni0419
ENCODING 1049
SWIDTH 780 0
DWIDTH 8 0
BBX 7 9 0 0
BITMAP
0850
0540
7828
2424
2464
2554
2514
2814
7828
ENDCHAR
STARTCHAR uni041A
ENCODING 1050
SWIDTH 658 0
DWIDTH 7 0
BBX 7 7 0 0
BITMAP
7874
2440
2440
2A00
2580
2490
7864
ENDCHAR
STARTCHAR uni041B
ENCODING 1051
SWIDTH 684 0
DWIDTH 7 0
BBX 6 7 0 0
BITMAP
19A0
0460
0460
0460
0460
1060
E0A0
ENDCHAR
STARTCHAR uni041C
ENCODING 1052
SWIDTH 895 0
DWIDTH 9 0
BBX 8 7 0 0
BITMAP
780B
2C0A
1916
1626
1356
11C6
748B
ENDCHAR
STARTCHAR uni041D
ENCODING 1053
SWIDTH 777 0
DWIDTH 8 0
BBX 7 7 0 0
BITMAP
7828
2414
2414
2964
2414
2414
7828
ENDCHAR
STARTCHAR uni041E
ENCODING 1054
SWIDTH 738 0
DWIDTH 7 0
BBX 7 7 0 0
BITMAP
1990
3024
6018
601C
6018
3024
1950
ENDCHAR
STARTCHAR uni041F
ENCODING 1055
SWIDTH 759 0
DWIDTH 8 0
BBX 8 7 0 0
BITMAP
BFFD
2424
2424
2424
2424
2424
BCBD
ENDCHAR
STARTCHAR uni0420
ENCODING 1056
SWIDTH 569 0
DWIDTH 6 0
BBX 6 7 0 0
BITMAP
7980
2490
2490
2940
2400
2400
7800
ENDCHAR
STARTCHAR uni0421
ENCODING 1057
SWIDTH 670 0
DWIDTH 7 0
BBX 6 7 0 0
BITMAP
19B0
3020
6000
6000
6000
3410
1A90
ENDCHAR
STARTCHAR uni0422
ENCODING 1058
SWIDTH 603 0
DWIDTH 6 0
BBX 6 7 0 0
BITMAP
AA60
4510
0500
0500
0500
0500
0A00
ENDCHAR
STARTCHAR uni0423
ENCODING 1059
SWIDTH 625 0
DWIDTH 6 0
BBX 7 7 0 0
BITMAP
B464
2450
1840
0940
0700
0100
3800
ENDCHAR
STARTCHAR uni0424
ENCODING 1060
SWIDTH 725 0
DWIDTH 7 0
BBX 7 7 0 0
BITMAP
0740
2760
6218
920C
6218
1760
0740
ENDCHAR
STARTCHAR uni0425
ENCODING 1061
SWIDTH 664 0
DWIDTH 7 0
BBX 7 7 0 0
BITMAP
7864
1880
0A40
0700
0A80
10D0
60B4
ENDCHAR
STARTCHAR uni0426
ENCODING 1062
SWIDTH 756 0
DWIDTH 8 0
BBX 7 9 0 -2
BITMAP
7878
2424
2424
2424
2424
2424
7968
0008
0004
ENDCHAR
STARTCHAR uni0427
ENCODING 1063
SWIDTH 650 0
DWIDTH 7 0
BBX 6 7 0 0
BITMAP
75E0
2090
3090
19D0
0090
0090
01E0
ENDCHAR
STARTCHAR uni0428
ENCODING 1064
SWIDTH 1053 0
DWIDTH 11 0
BBX 10 7 0 0
BITMAP
78B5E0
246090
246090
246090
246090
246090
79B5A0
ENDCHAR
STARTCHAR uni0429
ENCODING 1065
SWIDTH 1044 0
DWIDTH 10 0
BBX 10 9 0 -2
BITMAP
78B5D0
246080
246080
246080
246080
246080
79A5E0
000020
000010
ENDCHAR
STARTCHAR uni042A
ENCODING 1066
SWIDTH 723 0
DWIDTH 7 0
BBX 7 7 0 0
BITMAP
9A00
4600
0600
0660
0618
061C
0A64
ENDCHAR
STARTCHAR uni042B
ENCODING 1067
SWIDTH 887 0
DWIDTH 9 0
BBX 9 7 0 0
BITMAP
780A40
240600
240600
2A4600
249600
249600
799A40
ENDCHAR
STARTCHAR uni042C
ENCODING 1068
SWIDTH 606 0
DWIDTH 6 0
BBX 6 7 0 0
BITMAP
7800
2400
2400
2980
2460
2460
7980
ENDCHAR
STARTCHAR uni042D
ENCODING 1069
SWIDTH 667 0
DWIDTH 7 0
BBX 6 7 0 0
BITMAP
7A80
5060
0030
0570
0030
4060
2A80
ENDCHAR
STARTCHAR uni042E
ENCODING 1070
SWIDTH 1042 0
DWIDTH 10 0
BBX 10 7 0 0
BITMAP
782580
249090
24C060
2A8030
24C060
248050
782540
ENDCHAR
STARTCHAR uni042F
ENCODING 1071
SWIDTH 654 0
DWIDTH 7 0
BBX 6 7 0 0
BITMAP
19E0
3090
2490
0AD0
1890
2490
71E0
ENDCHAR
STARTCHAR uni0430
ENCODING 1072
SWIDTH 480 0
DWIDTH 5 0
BBX 5 5 0 0
BITMAP
1500
5200
1700
9200
6640
ENDCHAR
STARTCHAR uni0431
ENCODING 1073
SWIDTH 520 0
DWIDTH 5 0
BBX 5 8 0 0
BITMAP
0040
1A40
2000
5640
9180
9080
6180
2600
ENDCHAR
STARTCHAR uni0432
ENCODING 1074
SWIDTH 505 0
DWIDTH 5 0
BBX 5 5 0 0
BITMAP
7640
3140
3600
3180
7640
ENDCHAR
STARTCHAR uni0433
ENCODING 1075
SWIDTH 429 0
DWIDTH 4 0
BBX 4 5 0 0
BITMAP
76
31
30
30
74
ENDCHAR
STARTCHAR uni0434
ENCODING 1076
SWIDTH 530 0
DWIDTH 5 0
BBX 5 7 0 -2
BITMAP
2680
1240
1240
1240
A680
8080
4040
ENDCHAR
STARTCHAR uni0435
ENCODING 1077
SWIDTH 464 0
DWIDTH 5 0
BBX 4 5 0 0
BITMAP
16
A6
90
60
2A
ENDCHAR
STARTCHAR uni0436
ENCODING 1078
SWIDTH 754 0
DWIDTH 8 0
BBX 8 5 0 0
BITMAP
A249
1250
0AA0
2664
6249
ENDCHAR
STARTCHAR uni0437
ENCODING 1079
SWIDTH 435 0
DWIDTH 4 0
BBX 4 5 0 0
BITMAP
59
42
19
03
59
ENDCHAR
STARTCHAR uni0438
ENCODING 1080
SWIDTH 609 0
DWIDTH 6 0
BBX 6 5 0 0
BITMAP
70D0
31C0
3580
3480
74D0
ENDCHAR
STARTCHAR uni0439
ENCODING 1081
SWIDTH 609 0
DWIDTH 6 0
BBX 6 7 0 0
BITMAP
2580
0540
70D0
31C0
3580
3480
74D0
ENDCHAR
STARTCHAR uni043A
ENCODING 1082
SWIDTH 521 0
DWIDTH 5 0
BBX 5 5 0 0
BITMAP
7580
3100
3900
3200
7580
ENDCHAR
STARTCHAR uni043B
ENCODING 1083
SWIDTH 553 0
DWIDTH 6 0
BBX 5 5 0 0
BITMAP
1A80
0580
1580
1180
D280
ENDCHAR
STARTCHAR uni043C
ENCODING 1084
SWIDTH 697 0
DWIDTH 7 0
BBX 7 5 0 0
BITMAP
7074
2870
1C70
1630
6274
ENDCHAR
STARTCHAR uni043D
ENCODING 1085
SWIDTH 605 0
DWIDTH 6 0
BBX 6 5 0 0
BITMAP
74D0
3080
35C0
3080
74D0
ENDCHAR
STARTCHAR uni043E
ENCODING 1086
SWIDTH 514 0
DWIDTH 5 0
BBX 5 5 0 0
BITMAP
2600
5180
9080
5180
2600
ENDCHAR
STARTCHAR uni043F
ENCODING 1087
SWIDTH 591 0
DWIDTH 6 0
BBX 6 5 0 0
BITMAP
75D0
30C0
30C0
30C0
75D0
ENDCHAR
STARTCHAR uni0440
ENCODING 1088
SWIDTH 537 0
DWIDTH 5 0
BBX 5 7 0 -2
BITMAP
6A40
30C0
20C0
2080
3640
2000
7400
ENDCHAR
STARTCHAR uni0441
ENCODING 1089
SWIDTH 446 0
DWIDTH 4 0
BBX 4 5 0 0
BITMAP
16
51
80
90
2A
ENDCHAR
STARTCHAR uni0442
ENCODING 1090
SWIDTH 456 0
DWIDTH 5 0
BBX 5 5 0 0
BITMAP
9A40
4840
0800
0800
1C00
ENDCHAR
STARTCHAR uni0443
ENCODING 1091
SWIDTH 483 0
DWIDTH 5 0
BBX 5 7 0 -2
BITMAP
A180
2100
2500
1900
0800
0400
A000
ENDCHAR
STARTCHAR uni0444
ENCODING 1092
SWIDTH 710 0
DWIDTH 7 0
BBX 7 10 0 -2
BITMAP
0100
0200
0200
2760
5218
9218
5218
2760
0200
0740
ENDCHAR
STARTCHAR uni0445
ENCODING 1093
SWIDTH 479 0
DWIDTH 5 0
BBX 5 5 0 0
BITMAP
7240
2500
0C00
1600
9340
ENDCHAR
STARTCHAR uni0446
ENCODING 1094
SWIDTH 590 0
DWIDTH 6 0
BBX 6 7 0 -2
BITMAP
75D0
3080
3080
3080
35C0
0020
0010
ENDCHAR
STARTCHAR uni0447
ENCODING 1095
SWIDTH 535 0
DWIDTH 5 0
BBX 5 5 0 0
BITMAP
A280
6240
2640
0240
0280
ENDCHAR
STARTCHAR uni0448
ENCODING 1096
SWIDTH 812 0
DWIDTH 8 0
BBX 8 5 0 0
BITMAP
728D
2148
2148
2148
769D
ENDCHAR
STARTCHAR uni0449
ENCODING 1097
SWIDTH 814 0
DWIDTH 8 0
BBX 8 7 0 -2
BITMAP
728D
2148
2148
2148
369D
0002
0001
ENDCHAR
STARTCHAR uni044A
ENCODING 1098
SWIDTH 568 0
DWIDTH 6 0
BBX 6 5 0 0
BITMAP
9C00
4800
0940
0890
1980
ENDCHAR
STARTCHAR uni044B
ENCODING 1099
SWIDTH 728 0
DWIDTH 7 0
BBX 7 5 0 0
BITMAP
7428
3024
3624
3164
7668
ENDCHAR
STARTCHAR uni044C
ENCODING 1100
SWIDTH 489 0
DWIDTH 5 0
BBX 5 5 0 0
BITMAP
7400
3000
3600
3180
7640
ENDCHAR
STARTCHAR uni044D
ENCODING 1101
SWIDTH 467 0
DWIDTH 5 0
BBX 5 5 0 0
BITMAP
5500
4200
1640
0200
5900
ENDCHAR
STARTCHAR uni044E
ENCODING 1102
SWIDTH 774 0
DWIDTH 8 0
BBX 8 5 0 0
BITMAP
7598
2209
3709
2209
7554
ENDCHAR
STARTCHAR uni044F
ENCODING 1103
SWIDTH 518 0
DWIDTH 5 0
BBX 5 5 0 0
BITMAP
2640
6200
2A00
2600
6240
ENDCHAR
STARTCHAR uni0450
ENCODING 1104
SWIDTH 464 0
DWIDTH 5 0
BBX 4 7 0 0
BITMAP
14
08
16
A6
90
60
2A
ENDCHAR
STARTCHAR uni0451
ENCODING 1105
SWIDTH 464 0
DWIDTH 5 0
BBX 4 7 0 0
BITMAP
22
00
16
A6
90
60
2A
ENDCHAR
STARTCHAR uni0452
ENCODING 1106
SWIDTH 563 0
DWIDTH 6 0
BBX 5 10 0 -2
BITMAP
5000
3000
7500
3640
3080
30C0
3080
7480
0080
0900
ENDCHAR
STARTCHAR uni0453
ENCODING 1107
SWIDTH 429 0
DWIDTH 4 0
BBX 4 7 0 0
BITMAP
04
04
76
31
30
30
74
ENDCHAR
STARTCHAR uni0454
ENCODING 1108
SWIDTH 460 0
DWIDTH 5 0
BBX 4 5 0 0
BITMAP
26
51
A4
50
2A
ENDCHAR
STARTCHAR uni0455
ENCODING 1109
SWIDTH 394 0
DWIDTH 4 0
BBX 4 5 0 0
BITMAP
55
91
28
46
99
ENDCHAR
STARTCHAR uni0456
ENCODING 1110
SWIDTH 285 0
DWIDTH 3 0
BBX 3 7 0 0
BITMAP
30
00
60
20
20
20
74
ENDCHAR
STARTCHAR uni0457
ENCODING 1111
SWIDTH 285 0
DWIDTH 3 0
BBX 4 7 -1 0
BITMAP
66
00
18
08
08
08
1D
ENDCHAR
STARTCHAR uni0458
ENCODING 1112
SWIDTH 263 0
DWIDTH 3 0
BBX 3 9 -1 -2
BITMAP
08
00
18
08
08
08
08
08
A4
ENDCHAR
STARTCHAR uni0459
ENCODING 1113
SWIDTH 742 0
DWIDTH 7 0
BBX 7 5 0 0
BITMAP
1A80
0540
1594
114C
D298
ENDCHAR
STARTCHAR uni045A
ENCODING 1114
SWIDTH 790 0
DWIDTH 8 0
BBX 8 5 0 0
BITMAP
75D0
20C0
35D8
20C6
75D9
ENDCHAR
STARTCHAR uni045B
ENCODING 1115
SWIDTH 579 0
DWIDTH 6 0
BBX 6 7 0 0
BITMAP
6000
7500
3640
3080
2080
2080
75D0
ENDCHAR
STARTCHAR uni045C
ENCODING 1116
SWIDTH 521 0
DWIDTH 5 0
BBX 5 7 0 0
BITMAP
0500
0800
7580
3100
3900
3200
7580
ENDCHAR
STARTCHAR uni045D
ENCODING 1117
SWIDTH 609 0
DWIDTH 6 0
BBX 6 7 0 0
BITMAP
0400
0500
70D0
31C0
3580
3480
74D0
ENDCHAR
STARTCHAR uni045E
ENCODING 1118
SWIDTH 483 0
DWIDTH 5 0
BBX 5 10 0 -2
BITMAP
1100
2240
1500
A180
2100
2500
1900
0800
0400
A000
ENDCHAR
STARTCHAR uni045F
ENCODING 1119
SWIDTH 587 0
DWIDTH 6 0
BBX 6 7 0 -2
BITMAP
75D0
3080
3080
3080
75D0
0500
0500
ENDCHAR
STARTCHAR uni0462
ENCODING 1122
SWIDTH 727 0
DWIDTH 7 0
BBX 7 8 0 0
BITMAP
1A00
9A64
4914
0900
0A60
0918
0918
0A64
ENDCHAR
STARTCHAR uni0463
ENCODING 1123
SWIDTH 561 0
DWIDTH 6 0
BBX 6 8 0 0
BITMAP
0400
2800
1800
AA40
5840
1940
1890
1980
ENDCHAR
STARTCHAR uni046A
ENCODING 1130
SWIDTH 881 0
DWIDTH 9 0
BBX 9 7 0 0
BITMAP
1EA800
0A1400
025000
06E400
18CC00
24C600
A1D340
ENDCHAR
STARTCHAR uni046B
ENCODING 1131
SWIDTH 667 0
DWIDTH 7 0
BBX 7 5 0 0
BITMAP
2990
0840
0B40
2660
A734
ENDCHAR
STARTCHAR uni0472
ENCODING 1138
SWIDTH 737 0
DWIDTH 7 0
BBX 7 7 0 0
BITMAP
1990
2024
6018
7AAC
6018
2024
1950
ENDCHAR
STARTCHAR uni0473
ENCODING 1139
SWIDTH 514 0
DWIDTH 5 0
BBX 5 5 0 0
BITMAP
2600
5180
AA80
5180
2600
ENDCHAR
STARTCHAR uni0474
ENCODING 1140
SWIDTH 705 0
DWIDTH 7 0
BBX 8 7 0 0
BITMAP
B41D
3020
2850
0C80
0980
0740
0200
ENDCHAR
STARTCHAR uni0475
ENCODING 1141
SWIDTH 520 0
DWIDTH 5 0
BBX 6 5 0 0
BITMAP
A090
2100
2100
1900
0800
ENDCHAR
STARTCHAR uni0490
ENCODING 1168
SWIDTH 525 0
DWIDTH 5 0
BBX 5 8 0 0
BITMAP
0040
7940
2400
2400
2400
2400
2400
7800
ENDCHAR
STARTCHAR uni0491
ENCODING 1169
SWIDTH 404 0
DWIDTH 4 0
BBX 4 7 0 0
BITMAP
01
02
75
30
30
30
74
ENDCHAR
STARTCHAR uni1D00
ENCODING 7424
SWIDTH 511 0
DWIDTH 5 0
BBX 5 5 0 0
BITMAP
0C00
1900
2600
2740
9280
ENDCHAR
STARTCHAR uni1D07
ENCODING 7431
SWIDTH 495 0
DWIDTH 5 0
BBX 5 5 0 0
BITMAP
7540
2100
3600
2000
7540
ENDCHAR
STARTCHAR uni1D1C
ENCODING 7452
SWIDTH 584 0
DWIDTH 6 0
BBX 6 5 0 0
BITMAP
7090
2040
2040
2040
2940
ENDCHAR
STARTCHAR uni1D81
ENCODING 7553
SWIDTH 539 0
DWIDTH 5 0
BBX 5 9 0 -2
BITMAP
0240
0140
2640
5140
9140
9140
3A80
0040
0240
ENDCHAR
STARTCHAR uni1D84
ENCODING 7556
SWIDTH 542 0
DWIDTH 5 0
BBX 6 9 0 -2
BITMAP
6000
2000
2240
2500
3800
2600
7680
0010
0240
ENDCHAR
STARTCHAR uni1D85
ENCODING 7557
SWIDTH 283 0
DWIDTH 3 0
BBX 3 9 0 -2
BITMAP
60
20
20
20
20
20
74
04
54
ENDCHAR
STARTCHAR uni1D8A
ENCODING 7562
SWIDTH 395 0
DWIDTH 4 0
BBX 4 7 0 -2
BITMAP
55
91
28
46
99
01
24
ENDCHAR
STARTCHAR uni1D8D
ENCODING 7565
SWIDTH 479 0
DWIDTH 5 0
BBX 5 7 0 -2
BITMAP
7240
2500
0C00
1600
9340
0040
0240
ENDCHAR
STARTCHAR uni1D8E
ENCODING 7566
SWIDTH 458 0
DWIDTH 5 0
BBX 5 7 0 -2
BITMAP
5700
4900
1800
2000
A640
0100
0900
ENDCHAR
STARTCHAR uni1D98
ENCODING 7576
SWIDTH 368 0
DWIDTH 4 0
BBX 5 9 0 -2
BITMAP
0580
0800
0800
0800
0800
0800
9400
4000
6000
ENDCHAR
STARTCHAR uni1D9B
ENCODING 7579
SWIDTH 462 0
DWIDTH 5 0
BBX 5 4 0 3
BITMAP
AA00
5240
5200
6500
ENDCHAR
STARTCHAR uni1DA3
ENCODING 7587
SWIDTH 488 0
DWIDTH 5 0
BBX 5 6 0 1
BITMAP
6340
6200
6200
2A00
0200
0240
ENDCHAR
STARTCHAR uni1E00
ENCODING 7680
SWIDTH 718 0
DWIDTH 7 0
BBX 7 10 0 -3
BITMAP
0200
0640
0980
04D0
15A0
2030
A078
0500
0440
0500
ENDCHAR
STARTCHAR uni1E01
ENCODING 7681
SWIDTH 480 0
DWIDTH 5 0
BBX 5 8 0 -3
BITMAP
1500
5200
1700
9200
6640
1400
1500
1400
ENDCHAR
STARTCHAR uni1E02
ENCODING 7682
SWIDTH 618 0
DWIDTH 6 0
BBX 6 8 0 0
BITMAP
0500
7980
2490
2490
2A80
2460
2460
7990
ENDCHAR
STARTCHAR uni1E03
ENCODING 7683
SWIDTH 522 0
DWIDTH 5 0
BBX 5 8 0 0
BITMAP
0800
6000
6000
6B40
6180
60C0
6180
2600
ENDCHAR
STARTCHAR uni1E04
ENCODING 7684
SWIDTH 618 0
DWIDTH 6 0
BBX 6 9 0 -2
BITMAP
7980
2490
2490
2A80
2460
2460
7990
0000
0500
ENDCHAR
STARTCHAR uni1E05
ENCODING 7685
SWIDTH 522 0
DWIDTH 5 0
BBX 5 9 0 -2
BITMAP
6000
6000
6B40
6180
60C0
6180
2600
0000
0800
ENDCHAR
STARTCHAR uni1E06
ENCODING 7686
SWIDTH 618 0
DWIDTH 6 0
BBX 6 9 0 -2
BITMAP
7980
2490
2490
2A80
2460
2460
7990
0000
1A40
ENDCHAR
STARTCHAR uni1E07
ENCODING 7687
SWIDTH 522 0
DWIDTH 5 0
BBX 5 9 0 -2
BITMAP
6000
6000
6B40
6180
60C0
6180
2600
0000
2A00
ENDCHAR
STARTCHAR uni1E08
ENCODING 7688
SWIDTH 670 0
DWIDTH 7 0
BBX 6 11 0 -2
BITMAP
0040
0200
19B0
3020
6000
6000
6000
3410
1A90
0140
0140
ENDCHAR
STARTCHAR uni1E09
ENCODING 7689
SWIDTH 446 0
DWIDTH 4 0
BBX 4 9 0 -2
BITMAP
05
08
16
51
80
90
2A
08
05
ENDCHAR
STARTCHAR uni1E0A
ENCODING 7690
SWIDTH 730 0
DWIDTH 7 0
BBX 7 8 0 0
BITMAP
0200
7A90
2424
2418
2418
2418
2424
7990
ENDCHAR
STARTCHAR uni1E0B
ENCODING 7691
SWIDTH 539 0
DWIDTH 5 0
BBX 5 8 0 0
BITMAP
0800
0240
0140
2640
5140
9140
9140
3A80
ENDCHAR
STARTCHAR uni1E0C
ENCODING 7692
SWIDTH 730 0
DWIDTH 7 0
BBX 7 9 0 -2
BITMAP
7990
2424
2418
2418
2418
2424
7990
0000
0600
ENDCHAR
STARTCHAR uni1E0D
ENCODING 7693
SWIDTH 539 0
DWIDTH 5 0
BBX 5 9 0 -2
BITMAP
0240
0140
2640
5140
9140
9140
3A80
0000
0800
ENDCHAR
STARTCHAR uni1E0E
ENCODING 7694
SWIDTH 730 0
DWIDTH 7 0
BBX 7 9 0 -2
BITMAP
7990
2424
2418
2418
2418
2424
7990
0000
0A40
ENDCHAR
STARTCHAR uni1E0F
ENCODING 7695
SWIDTH 539 0
DWIDTH 5 0
BBX 5 9 0 -2
BITMAP
0240
0140
2640
5140
9140
9140
3A80
0000
1A00
ENDCHAR
STARTCHAR uni1E10
ENCODING 7696
SWIDTH 730 0
DWIDTH 7 0
BBX 7 10 0 -3
BITMAP
7990
2424
2418
2418
2418
2424
7990
0000
0600
0100
ENDCHAR
STARTCHAR uni1E11
ENCODING 7697
SWIDTH 539 0
DWIDTH 5 0
BBX 5 10 0 -3
BITMAP
0240
0140
2640
5140
9140
9140
3A80
0000
0900
0400
ENDCHAR
STARTCHAR uni1E12
ENCODING 7698
SWIDTH 730 0
DWIDTH 7 0
BBX 7 9 0 -2
BITMAP
7990
2424
2418
2418
2418
2424
7990
0100
0940
ENDCHAR
STARTCHAR uni1E13
ENCODING 7699
SWIDTH 539 0
DWIDTH 5 0
BBX 5 9 0 -2
BITMAP
0240
0140
2640
5140
9140
9140
3A80
0400
1500
ENDCHAR
STARTCHAR uni1E14
ENCODING 7700
SWIDTH 626 0
DWIDTH 6 0
BBX 6 10 0 0
BITMAP
0400
0200
0A40
79A0
2410
2440
2980
2400
2410
79A0
ENDCHAR
STARTCHAR uni1E15
ENCODING 7701
SWIDTH 464 0
DWIDTH 5 0
BBX 4 8 0 0
BITMAP
14
2D
00
16
A6
90
60
2A
ENDCHAR
STARTCHAR uni1E16
ENCODING 7702
SWIDTH 626 0
DWIDTH 6 0
BBX 6 10 0 0
BITMAP
0100
0500
0A40
79A0
2410
2440
2980
2400
2410
79A0
ENDCHAR
STARTCHAR uni1E17
ENCODING 7703
SWIDTH 464 0
DWIDTH 5 0
BBX 4 8 0 0
BITMAP
05
2E
00
16
A6
90
60
2A
ENDCHAR
STARTCHAR uni1E18
ENCODING 7704
SWIDTH 626 0
DWIDTH 6 0
BBX 6 9 0 -2
BITMAP
79A0
2410
2440
2980
2400
2410
79A0
0100
0940
ENDCHAR
STARTCHAR uni1E19
ENCODING 7705
SWIDTH 464 0
DWIDTH 5 0
BBX 4 7 0 -2
BITMAP
16
A6
90
60
2A
04
15
ENDCHAR
STARTCHAR uni1E1A
ENCODING 7706
SWIDTH 626 0
DWIDTH 6 0
BBX 6 9 0 -2
BITMAP
79A0
2410
2440
2980
2400
2410
79A0
0000
1F40
ENDCHAR
STARTCHAR uni1E1B
ENCODING 7707
SWIDTH 464 0
DWIDTH 5 0
BBX 4 7 0 -2
BITMAP
16
A6
90
60
2A
00
3E
ENDCHAR
STARTCHAR uni1E1C
ENCODING 7708
SWIDTH 626 0
DWIDTH 6 0
BBX 6 11 0 -2
BITMAP
0040
0A40
79A0
2410
2440
2980
2400
2410
7AA0
0200
0500
ENDCHAR
STARTCHAR uni1E1D
ENCODING 7709
SWIDTH 464 0
DWIDTH 5 0
BBX 4 9 0 -2
BITMAP
11
2D
16
A6
90
60
2E
08
04
ENDCHAR
STARTCHAR uni1E1E
ENCODING 7710
SWIDTH 588 0
DWIDTH 6 0
BBX 6 8 0 0
BITMAP
0600
7AA0
2410
2440
2980
2400
2400
7800
ENDCHAR
STARTCHAR uni1E1F
ENCODING 7711
SWIDTH 307 0
DWIDTH 3 0
BBX 4 8 0 0
BITMAP
30
26
20
74
20
20
30
74
ENDCHAR
STARTCHAR uni1E20
ENCODING 7712
SWIDTH 720 0
DWIDTH 7 0
BBX 7 8 0 0
BITMAP
0680
19B0
3020
6000
6064
6024
3024
19A0
ENDCHAR
STARTCHAR uni1E21
ENCODING 7713
SWIDTH 484 0
DWIDTH 5 0
BBX 5 9 0 -2
BITMAP
2900
0000
2740
5200
6500
5000
7A40
4080
6900
ENDCHAR
STARTCHAR uni1E22
ENCODING 7714
SWIDTH 777 0
DWIDTH 8 0
BBX 7 8 0 0
BITMAP
0240
7828
2414
2414
2964
2414
2414
7828
ENDCHAR
STARTCHAR uni1E23
ENCODING 7715
SWIDTH 577 0
DWIDTH 6 0
BBX 6 8 0 0
BITMAP
0500
6000
2000
3640
3080
2080
2080
75D0
ENDCHAR
STARTCHAR uni1E24
ENCODING 7716
SWIDTH 777 0
DWIDTH 8 0
BBX 7 9 0 -2
BITMAP
7828
2414
2414
2964
2414
2414
7828
0000
0240
ENDCHAR
STARTCHAR uni1E25
ENCODING 7717
SWIDTH 577 0
DWIDTH 6 0
BBX 6 9 0 -2
BITMAP
6000
2000
3640
3080
2080
2080
75D0
0000
0500
ENDCHAR
STARTCHAR uni1E26
ENCODING 7718
SWIDTH 777 0
DWIDTH 8 0
BBX 7 8 0 0
BITMAP
0950
7868
2414
2414
2964
2414
2414
7828
ENDCHAR
STARTCHAR uni1E27
ENCODING 7719
SWIDTH 577 0
DWIDTH 6 0
BBX 6 8 0 0
BITMAP
2540
7000
2000
3640
3080
2080
2080
75D0
ENDCHAR
STARTCHAR uni1E28
ENCODING 7720
SWIDTH 777 0
DWIDTH 8 0
BBX 7 9 0 -2
BITMAP
7828
2414
2414
2964
2414
2414
7828
1400
1400
ENDCHAR
STARTCHAR uni1E29
ENCODING 7721
SWIDTH 577 0
DWIDTH 6 0
BBX 6 9 0 -2
BITMAP
6000
2000
3640
3080
2080
2080
75D0
2000
1000
ENDCHAR
STARTCHAR uni1E2A
ENCODING 7722
SWIDTH 777 0
DWIDTH 8 0
BBX 7 9 0 -2
BITMAP
7828
2414
2414
2964
2414
2414
7828
0400
07C0
ENDCHAR
STARTCHAR uni1E2B
ENCODING 7723
SWIDTH 577 0
DWIDTH 6 0
BBX 6 9 0 -2
BITMAP
6000
2000
3640
3080
2080
2080
75D0
1000
1F00
ENDCHAR
STARTCHAR uni1E2C
ENCODING 7724
SWIDTH 357 0
DWIDTH 4 0
BBX 3 9 0 -2
BITMAP
78
24
24
24
24
24
78
00
BC
ENDCHAR
STARTCHAR uni1E2D
ENCODING 7725
SWIDTH 285 0
DWIDTH 3 0
BBX 3 9 0 -2
BITMAP
30
00
60
20
20
20
74
00
F8
ENDCHAR
STARTCHAR uni1E2E
ENCODING 7726
SWIDTH 357 0
DWIDTH 4 0
BBX 4 10 0 0
BITMAP
04
20
89
78
24
24
24
24
24
78
ENDCHAR
STARTCHAR uni1E2F
ENCODING 7727
SWIDTH 285 0
DWIDTH 3 0
BBX 4 9 -1 0
BITMAP
04
08
66
00
18
08
08
08
1D
ENDCHAR
STARTCHAR uni1E30
ENCODING 7728
SWIDTH 702 0
DWIDTH 7 0
BBX 7 9 0 0
BITMAP
0140
0200
78A4
2480
2600
2900
2640
24D0
78B4
ENDCHAR
STARTCHAR uni1E31
ENCODING 7729
SWIDTH 542 0
DWIDTH 5 0
BBX 5 9 0 0
BITMAP
0500
0800
6000
2000
2240
2500
3800
2600
7680
ENDCHAR
STARTCHAR uni1E32
ENCODING 7730
SWIDTH 702 0
DWIDTH 7 0
BBX 7 9 0 -2
BITMAP
78A4
2480
2600
2900
2640
24D0
78B4
0000
0200
ENDCHAR
STARTCHAR uni1E33
ENCODING 7731
SWIDTH 542 0
DWIDTH 5 0
BBX 5 9 0 -2
BITMAP
6000
2000
2240
2500
3800
2600
7680
0000
0800
ENDCHAR
STARTCHAR uni1E34
ENCODING 7732
SWIDTH 702 0
DWIDTH 7 0
BBX 7 9 0 -2
BITMAP
78A4
2480
2600
2900
2640
24D0
78B4
0000
0A80
ENDCHAR
STARTCHAR uni1E35
ENCODING 7733
SWIDTH 542 0
DWIDTH 5 0
BBX 5 9 0 -2
BITMAP
6000
2000
2240
2500
3800
2600
7680
0000
1A00
ENDCHAR
STARTCHAR uni1E36
ENCODING 7734
SWIDTH 585 0
DWIDTH 6 0
BBX 6 9 0 -2
BITMAP
7800
2400
2400
2400
2400
2410
7990
0000
0900
ENDCHAR
STARTCHAR uni1E37
ENCODING 7735
SWIDTH 283 0
DWIDTH 3 0
BBX 3 9 0 -2
BITMAP
60
20
20
20
20
20
74
00
20
ENDCHAR
STARTCHAR uni1E38
ENCODING 7736
SWIDTH 585 0
DWIDTH 6 0
BBX 6 10 0 -2
BITMAP
6800
7800
2400
2400
2400
2400
2410
7990
0000
0900
ENDCHAR
STARTCHAR uni1E39
ENCODING 7737
SWIDTH 283 0
DWIDTH 3 0
BBX 3 10 0 -2
BITMAP
A4
60
20
20
20
20
20
74
00
20
ENDCHAR
STARTCHAR uni1E3A
ENCODING 7738
SWIDTH 585 0
DWIDTH 6 0
BBX 6 9 0 -2
BITMAP
7800
2400
2400
2400
2400
2410
7990
0000
1A40
ENDCHAR
STARTCHAR uni1E3B
ENCODING 7739
SWIDTH 283 0
DWIDTH 3 0
BBX 3 9 0 -2
BITMAP
60
20
20
20
20
20
74
00
A4
ENDCHAR
STARTCHAR uni1E3C
ENCODING 7740
SWIDTH 585 0
DWIDTH 6 0
BBX 6 9 0 -2
BITMAP
7800
2400
2400
2400
2400
2410
7990
0500
1500
ENDCHAR
STARTCHAR uni1E3D
ENCODING 7741
SWIDTH 283 0
DWIDTH 3 0
BBX 3 9 0 -2
BITMAP
60
20
20
20
20
20
74
10
54
ENDCHAR
STARTCHAR uni1E3E
ENCODING 7742
SWIDTH 895 0
DWIDTH 9 0
BBX 8 9 0 0
BITMAP
0050
0140
780B
2C0A
1916
1626
1356
11C6
748B
ENDCHAR
STARTCHAR uni1E3F
ENCODING 7743
SWIDTH 852 0
DWIDTH 9 0
BBX 8 7 0 0
BITMAP
0040
0080
6659
3086
2086
2086
75CA
ENDCHAR
STARTCHAR uni1E40
ENCODING 7744
SWIDTH 895 0
DWIDTH 9 0
BBX 8 8 0 0
BITMAP
0080
780B
2C0A
1916
1626
1356
11C6
748B
ENDCHAR
STARTCHAR uni1E41
ENCODING 7745
SWIDTH 852 0
DWIDTH 9 0
BBX 8 7 0 0
BITMAP
0080
0000
6659
3086
2086
2086
75CA
ENDCHAR
STARTCHAR uni1E42
ENCODING 7746
SWIDTH 895 0
DWIDTH 9 0
BBX 8 9 0 -2
BITMAP
780B
2C0A
1916
1626
1356
11C6
748B
0000
0180
ENDCHAR
STARTCHAR uni1E43
ENCODING 7747
SWIDTH 852 0
DWIDTH 9 0
BBX 8 7 0 -2
BITMAP
6659
3086
2086
2086
75CA
0000
0080
ENDCHAR
STARTCHAR uni1E44
ENCODING 7748
SWIDTH 742 0
DWIDTH 7 0
BBX 7 8 0 0
BITMAP
0240
7428
2C14
1614
1254
10D4
2074
7414
ENDCHAR
STARTCHAR uni1E45
ENCODING 7749
SWIDTH 576 0
DWIDTH 6 0
BBX 6 7 0 0
BITMAP
0500
0000
6640
3080
2080
2080
75D0
ENDCHAR
STARTCHAR uni1E46
ENCODING 7750
SWIDTH 742 0
DWIDTH 7 0
BBX 7 9 0 -2
BITMAP
7428
2C14
1614
1254
10D4
2074
7414
0000
0200
ENDCHAR
STARTCHAR uni1E47
ENCODING 7751
SWIDTH 576 0
DWIDTH 6 0
BBX 6 7 0 -2
BITMAP
6640
3080
2080
2080
75D0
0000
0900
ENDCHAR
STARTCHAR uni1E48
ENCODING 7752
SWIDTH 742 0
DWIDTH 7 0
BBX 7 9 0 -2
BITMAP
7428
2C14
1614
1254
10D4
2074
7414
0000
0680
ENDCHAR
STARTCHAR uni1E49
ENCODING 7753
SWIDTH 576 0
DWIDTH 6 0
BBX 6 7 0 -2
BITMAP
6640
3080
2080
2080
75D0
0000
1A40
ENDCHAR
STARTCHAR uni1E4A
ENCODING 7754
SWIDTH 742 0
DWIDTH 7 0
BBX 7 9 0 -2
BITMAP
7428
2C14
1614
1254
10D4
2074
7414
0100
0540
ENDCHAR
STARTCHAR uni1E4B
ENCODING 7755
SWIDTH 576 0
DWIDTH 6 0
BBX 6 7 0 -2
BITMAP
6640
3080
2080
2080
75D0
0500
1500
ENDCHAR
STARTCHAR uni1E4C
ENCODING 7756
SWIDTH 738 0
DWIDTH 7 0
BBX 7 10 0 0
BITMAP
0140
0200
0680
1990
3024
6018
601C
6018
3024
1950
ENDCHAR
STARTCHAR uni1E4D
ENCODING 7757
SWIDTH 514 0
DWIDTH 5 0
BBX 5 9 0 0
BITMAP
0500
0800
0000
1A00
2600
5180
9080
5180
2600
ENDCHAR
STARTCHAR uni1E4E
ENCODING 7758
SWIDTH 738 0
DWIDTH 7 0
BBX 7 9 0 0
BITMAP
0890
0680
1990
3024
6018
601C
6018
3024
1950
ENDCHAR
STARTCHAR uni1E4F
ENCODING 7759
SWIDTH 514 0
DWIDTH 5 0
BBX 5 8 0 0
BITMAP
2200
0000
1A00
2600
5180
9080
5180
2600
ENDCHAR
STARTCHAR uni1E50
ENCODING 7760
SWIDTH 738 0
DWIDTH 7 0
BBX 7 10 0 0
BITMAP
0100
0140
0680
1990
3024
6018
601C
6018
3024
1950
ENDCHAR
STARTCHAR uni1E51
ENCODING 7761
SWIDTH 514 0
DWIDTH 5 0
BBX 5 8 0 0
BITMAP
1400
1E00
0000
2600
5180
9080
5180
2600
ENDCHAR
STARTCHAR uni1E52
ENCODING 7762
SWIDTH 738 0
DWIDTH 7 0
BBX 7 10 0 0
BITMAP
0140
0200
0680
1990
3024
6018
601C
6018
3024
1950
ENDCHAR
STARTCHAR uni1E53
ENCODING 7763
SWIDTH 514 0
DWIDTH 5 0
BBX 5 8 0 0
BITMAP
0500
1E00
0000
2600
5180
9080
5180
2600
ENDCHAR
STARTCHAR uni1E54
ENCODING 7764
SWIDTH 569 0
DWIDTH 6 0
BBX 6 9 0 0
BITMAP
0100
0900
7980
2490
2490
2940
2400
2400
7800
ENDCHAR
STARTCHAR uni1E55
ENCODING 7765
SWIDTH 537 0
DWIDTH 5 0
BBX 5 9 0 -2
BITMAP
0100
0800
6A40
30C0
20C0
2080
3640
2000
7400
ENDCHAR
STARTCHAR uni1E56
ENCODING 7766
SWIDTH 569 0
DWIDTH 6 0
BBX 6 8 0 0
BITMAP
0900
7A80
2490
2490
2940
2400
2400
7800
ENDCHAR
STARTCHAR uni1E57
ENCODING 7767
SWIDTH 537 0
DWIDTH 5 0
BBX 5 9 0 -2
BITMAP
0800
0000
6A40
30C0
20C0
2080
3640
2000
7400
ENDCHAR
STARTCHAR uni1E58
ENCODING 7768
SWIDTH 659 0
DWIDTH 7 0
BBX 7 8 0 0
BITMAP
0600
7980
2490
2490
2A40
2680
24D0
7874
ENDCHAR
STARTCHAR uni1E59
ENCODING 7769
SWIDTH 380 0
DWIDTH 4 0
BBX 4 7 0 0
BITMAP
14
00
6A
30
20
20
74
ENDCHAR
STARTCHAR uni1E5A
ENCODING 7770
SWIDTH 659 0
DWIDTH 7 0
BBX 7 9 0 -2
BITMAP
7980
2490
2490
2A40
2680
24D0
7874
0000
0200
ENDCHAR
STARTCHAR uni1E5B
ENCODING 7771
SWIDTH 380 0
DWIDTH 4 0
BBX 4 7 0 -2
BITMAP
6A
30
20
20
74
00
20
ENDCHAR
STARTCHAR uni1E5C
ENCODING 7772
SWIDTH 659 0
DWIDTH 7 0
BBX 7 10 0 -2
BITMAP
1A40
7980
2490
2490
2A40
2680
24D0
7874
0000
0200
ENDCHAR
STARTCHAR uni1E5D
ENCODING 7773
SWIDTH 380 0
DWIDTH 4 0
BBX 4 9 0 -2
BITMAP
69
00
6A
30
20
20
74
00
20
ENDCHAR
STARTCHAR uni1E5E
ENCODING 7774
SWIDTH 659 0
DWIDTH 7 0
BBX 7 9 0 -2
BITMAP
7980
2490
2490
2A40
2680
24D0
7874
0000
0A40
ENDCHAR
STARTCHAR uni1E5F
ENCODING 7775
SWIDTH 380 0
DWIDTH 4 0
BBX 4 7 0 -2
BITMAP
6A
30
20
20
74
00
A8
ENDCHAR
STARTCHAR uni1E60
ENCODING 7776
SWIDTH 504 0
DWIDTH 5 0
BBX 5 8 0 0
BITMAP
0800
2A40
5040
7400
1E00
0280
8180
A600
ENDCHAR
STARTCHAR uni1E61
ENCODING 7777
SWIDTH 394 0
DWIDTH 4 0
BBX 4 7 0 0
BITMAP
14
00
55
91
28
46
99
ENDCHAR
STARTCHAR uni1E62
ENCODING 7778
SWIDTH 504 0
DWIDTH 5 0
BBX 5 9 0 -2
BITMAP
2640
5040
7400
1E00
0280
8180
A600
0000
0800
ENDCHAR
STARTCHAR uni1E63
ENCODING 7779
SWIDTH 394 0
DWIDTH 4 0
BBX 4 7 0 -2
BITMAP
55
91
28
46
99
00
14
ENDCHAR
STARTCHAR uni1E64
ENCODING 7780
SWIDTH 504 0
DWIDTH 5 0
BBX 5 9 0 0
BITMAP
0100
2900
2640
5040
7400
1E00
0280
8180
A600
ENDCHAR
STARTCHAR uni1E65
ENCODING 7781
SWIDTH 394 0
DWIDTH 4 0
BBX 4 8 0 0
BITMAP
10
04
04
55
91
28
46
99
ENDCHAR
STARTCHAR uni1E66
ENCODING 7782
SWIDTH 504 0
DWIDTH 5 0
BBX 5 10 0 0
BITMAP
0400
1500
1900
2640
5040
7400
1E00
0280
8180
A600
ENDCHAR
STARTCHAR uni1E67
ENCODING 7783
SWIDTH 394 0
DWIDTH 4 0
BBX 4 8 0 0
BITMAP
14
14
28
55
91
28
46
99
ENDCHAR
STARTCHAR uni1E68
ENCODING 7784
SWIDTH 504 0
DWIDTH 5 0
BBX 5 10 0 -2
BITMAP
0800
2A40
5040
7400
1E00
0280
8180
A600
0000
0800
ENDCHAR
STARTCHAR uni1E69
ENCODING 7785
SWIDTH 394 0
DWIDTH 4 0
BBX 4 9 0 -2
BITMAP
14
00
55
91
28
46
99
00
14
ENDCHAR
STARTCHAR uni1E6A
ENCODING 7786
SWIDTH 603 0
DWIDTH 6 0
BBX 6 8 0 0
BITMAP
0500
AA60
4510
0500
0500
0500
0500
0A00
ENDCHAR
STARTCHAR uni1E6B
ENCODING 7787
SWIDTH 315 0
DWIDTH 3 0
BBX 3 8 0 0
BITMAP
20
10
20
74
20
20
20
24
ENDCHAR
STARTCHAR uni1E6C
ENCODING 7788
SWIDTH 603 0
DWIDTH 6 0
BBX 6 9 0 -2
BITMAP
AA60
4510
0500
0500
0500
0500
0A00
0000
0500
ENDCHAR
STARTCHAR uni1E6D
ENCODING 7789
SWIDTH 315 0
DWIDTH 3 0
BBX 3 9 0 -2
BITMAP
10
20
74
20
20
20
24
00
24
ENDCHAR
STARTCHAR uni1E6E
ENCODING 7790
SWIDTH 603 0
DWIDTH 6 0
BBX 6 9 0 -2
BITMAP
AA60
4510
0500
0500
0500
0500
0A00
0000
1A40
ENDCHAR
STARTCHAR uni1E6F
ENCODING 7791
SWIDTH 315 0
DWIDTH 3 0
BBX 4 9 0 -2
BITMAP
10
20
74
20
20
20
24
00
69
ENDCHAR
STARTCHAR uni1E70
ENCODING 7792
SWIDTH 603 0
DWIDTH 6 0
BBX 6 9 0 -2
BITMAP
AA60
4510
0500
0500
0500
0500
0A00
0500
0500
ENDCHAR
STARTCHAR uni1E71
ENCODING 7793
SWIDTH 315 0
DWIDTH 3 0
BBX 3 9 0 -2
BITMAP
10
20
74
20
20
20
24
14
54
ENDCHAR
STARTCHAR uni1E72
ENCODING 7794
SWIDTH 752 0
DWIDTH 8 0
BBX 7 9 0 -2
BITMAP
7828
2014
2014
2014
2014
2410
0A90
0000
0890
ENDCHAR
STARTCHAR uni1E73
ENCODING 7795
SWIDTH 570 0
DWIDTH 6 0
BBX 5 7 0 -2
BITMAP
6180
2080
2080
2080
2980
0000
2240
ENDCHAR
STARTCHAR uni1E74
ENCODING 7796
SWIDTH 752 0
DWIDTH 8 0
BBX 7 9 0 -2
BITMAP
7828
2014
2014
2014
2014
2410
0A90
0000
0BC0
ENDCHAR
STARTCHAR uni1E75
ENCODING 7797
SWIDTH 570 0
DWIDTH 6 0
BBX 5 7 0 -2
BITMAP
6180
2080
2080
2080
2980
0000
2F00
ENDCHAR
STARTCHAR uni1E76
ENCODING 7798
SWIDTH 752 0
DWIDTH 8 0
BBX 7 9 0 -2
BITMAP
7828
2014
2014
2014
2014
2410
0A90
0100
0580
ENDCHAR
STARTCHAR uni1E77
ENCODING 7799
SWIDTH 570 0
DWIDTH 6 0
BBX 5 7 0 -2
BITMAP
6180
2080
2080
2080
2980
0400
1600
ENDCHAR
STARTCHAR uni1E78
ENCODING 7800
SWIDTH 752 0
DWIDTH 8 0
BBX 7 10 0 0
BITMAP
0040
0240
0690
7828
2014
2014
2014
2014
2410
0A90
ENDCHAR
STARTCHAR uni1E79
ENCODING 7801
SWIDTH 570 0
DWIDTH 6 0
BBX 5 9 0 0
BITMAP
0100
0400
0000
1A00
6180
2080
2080
2080
2980
ENDCHAR
STARTCHAR uni1E7A
ENCODING 7802
SWIDTH 752 0
DWIDTH 8 0
BBX 7 9 0 0
BITMAP
0960
0690
7828
2014
2014
2014
2014
2410
0A90
ENDCHAR
STARTCHAR uni1E7B
ENCODING 7803
SWIDTH 570 0
DWIDTH 6 0
BBX 5 8 0 0
BITMAP
2240
1A00
0000
6180
2080
2080
2080
2980
ENDCHAR
STARTCHAR uni1E7C
ENCODING 7804
SWIDTH 680 0
DWIDTH 7 0
BBX 7 8 0 0
BITMAP
0A80
B424
3020
2810
0C40
0980
0740
0200
ENDCHAR
STARTCHAR uni1E7D
ENCODING 7805
SWIDTH 481 0
DWIDTH 5 0
BBX 5 6 0 0
BITMAP
1A00
A180
2100
2100
1900
0800
ENDCHAR
STARTCHAR uni1E7E
ENCODING 7806
SWIDTH 680 0
DWIDTH 7 0
BBX 7 9 0 -2
BITMAP
B424
3020
2810
0C40
0980
0740
0200
0000
0200
ENDCHAR
STARTCHAR uni1E7F
ENCODING 7807
SWIDTH 481 0
DWIDTH 5 0
BBX 5 7 0 -2
BITMAP
A180
2100
2100
1900
0800
0000
0800
ENDCHAR
STARTCHAR Wgrave
ENCODING 7808
SWIDTH 944 0
DWIDTH 9 0
BBX 9 9 0 0
BITMAP
014000
009000
B5D1C0
309040
24A100
187200
0D6900
071C00
020800
ENDCHAR
STARTCHAR wgrave
ENCODING 7809
SWIDTH 749 0
DWIDTH 7 0
BBX 8 7 0 0
BITMAP
0100
0200
A249
2184
2184
19A0
0860
ENDCHAR
STARTCHAR Wacute
ENCODING 7810
SWIDTH 944 0
DWIDTH 9 0
BBX 9 9 0 0
BITMAP
005000
008000
B5D1C0
309040
24A100
187200
0D6900
071C00
020800
ENDCHAR
STARTCHAR wacute
ENCODING 7811
SWIDTH 749 0
DWIDTH 7 0
BBX 8 7 0 0
BITMAP
0040
0100
A249
2184
2184
19A0
0860
ENDCHAR
STARTCHAR Wdieresis
ENCODING 7812
SWIDTH 944 0
DWIDTH 9 0
BBX 9 8 0 0
BITMAP
022000
B5E1C0
309040
24A100
187200
0D6900
071C00
020800
ENDCHAR
STARTCHAR wdieresis
ENCODING 7813
SWIDTH 749 0
DWIDTH 7 0
BBX 8 7 0 0
BITMAP
0890
0000
A249
2184
2184
19A0
0860
ENDCHAR
STARTCHAR uni1E86
ENCODING 7814
SWIDTH 944 0
DWIDTH 9 0
BBX 9 8 0 0
BITMAP
008000
B5D1C0
309040
24A100
187200
0D6900
071C00
020800
ENDCHAR
STARTCHAR uni1E87
ENCODING 7815
SWIDTH 749 0
DWIDTH 7 0
BBX 8 7 0 0
BITMAP
0240
0000
A249
2184
2184
19A0
0860
ENDCHAR
STARTCHAR uni1E88
ENCODING 7816
SWIDTH 944 0
DWIDTH 9 0
BBX 9 9 0 -2
BITMAP
B5D1C0
309040
24A100
187200
0D6900
071C00
020800
000000
009000
ENDCHAR
STARTCHAR uni1E89
ENCODING 7817
SWIDTH 749 0
DWIDTH 7 0
BBX 8 7 0 -2
BITMAP
A249
2184
2184
19A0
0860
0000
0240
ENDCHAR
STARTCHAR uni1E8A
ENCODING 7818
SWIDTH 664 0
DWIDTH 7 0
BBX 7 8 0 0
BITMAP
0200
7864
1880
0A40
0700
0A80
10D0
60B4
ENDCHAR
STARTCHAR uni1E8B
ENCODING 7819
SWIDTH 479 0
DWIDTH 5 0
BBX 5 7 0 0
BITMAP
0800
0000
7240
2500
0C00
1600
9340
ENDCHAR
STARTCHAR uni1E8C
ENCODING 7820
SWIDTH 664 0
DWIDTH 7 0
BBX 7 8 0 0
BITMAP
0880
7864
1880
0A40
0700
0A80
10D0
60B4
ENDCHAR
STARTCHAR uni1E8D
ENCODING 7821
SWIDTH 479 0
DWIDTH 5 0
BBX 5 7 0 0
BITMAP
2200
0000
7240
2500
0C00
1600
9340
ENDCHAR
STARTCHAR uni1E8E
ENCODING 7822
SWIDTH 647 0
DWIDTH 6 0
BBX 7 8 0 0
BITMAP
0200
B464
2440
0C40
0A00
0600
0600
0B40
ENDCHAR
STARTCHAR uni1E8F
ENCODING 7823
SWIDTH 483 0
DWIDTH 5 0
BBX 5 9 0 -2
BITMAP
0800
0000
A180
2100
2500
1900
0800
0400
A000
ENDCHAR
STARTCHAR uni1E90
ENCODING 7824
SWIDTH 594 0
DWIDTH 6 0
BBX 6 9 0 0
BITMAP
0500
0940
65D0
4180
0300
0900
1800
3410
B590
ENDCHAR
STARTCHAR uni1E91
ENCODING 7825
SWIDTH 458 0
DWIDTH 5 0
BBX 5 7 0 0
BITMAP
0400
1500
5700
4900
1800
2000
A640
ENDCHAR
STARTCHAR uni1E92
ENCODING 7826
SWIDTH 594 0
DWIDTH 6 0
BBX 6 9 0 -2
BITMAP
65D0
4180
0300
0900
1800
3410
B590
0000
0900
ENDCHAR
STARTCHAR uni1E93
ENCODING 7827
SWIDTH 458 0
DWIDTH 5 0
BBX 5 7 0 -2
BITMAP
5700
4900
1800
2000
A640
0000
0800
ENDCHAR
STARTCHAR uni1E94
ENCODING 7828
SWIDTH 594 0
DWIDTH 6 0
BBX 6 9 0 -2
BITMAP
65D0
4180
0300
0900
1800
3410
B590
0000
1A40
ENDCHAR
STARTCHAR uni1E95
ENCODING 7829
SWIDTH 458 0
DWIDTH 5 0
BBX 5 7 0 -2
BITMAP
5700
4900
1800
2000
A640
0000
2900
ENDCHAR
STARTCHAR uni1E96
ENCODING 7830
SWIDTH 577 0
DWIDTH 6 0
BBX 6 9 0 -2
BITMAP
6000
2000
3640
3080
2080
2080
75D0
0000
1A40
ENDCHAR
STARTCHAR uni1E97
ENCODING 7831
SWIDTH 315 0
DWIDTH 3 0
BBX 3 8 0 0
BITMAP
88
10
20
74
20
20
20
24
ENDCHAR
STARTCHAR uni1E98
ENCODING 7832
SWIDTH 749 0
DWIDTH 7 0
BBX 8 8 0 0
BITMAP
0140
0540
0140
A249
2184
2184
19A0
0860
ENDCHAR
STARTCHAR uni1E99
ENCODING 7833
SWIDTH 483 0
DWIDTH 5 0
BBX 5 10 0 -2
BITMAP
0500
1100
0500
A180
2100
2500
1900
0800
0400
A000
ENDCHAR
STARTCHAR uni1E9A
ENCODING 7834
SWIDTH 480 0
DWIDTH 5 0
BBX 5 8 0 0
BITMAP
0400
0400
0400
1500
5200
1700
9200
6640
ENDCHAR
STARTCHAR uni1E9B
ENCODING 7835
SWIDTH 285 0
DWIDTH 3 0
BBX 4 8 0 0
BITMAP
30
26
20
70
20
20
30
74
ENDCHAR
STARTCHAR uni1E9C
ENCODING 7836
SWIDTH 300 0
DWIDTH 3 0
BBX 4 7 0 0
BITMAP
16
20
74
30
70
30
74
ENDCHAR
STARTCHAR uni1E9D
ENCODING 7837
SWIDTH 285 0
DWIDTH 3 0
BBX 4 7 0 0
BITMAP
16
74
70
20
20
30
74
ENDCHAR
STARTCHAR uni1E9E
ENCODING 7838
SWIDTH 684 0
DWIDTH 7 0
BBX 7 7 0 0
BITMAP
09A0
2490
20C0
21A0
2024
2024
7660
ENDCHAR
STARTCHAR uni1E9F
ENCODING 7839
SWIDTH 517 0
DWIDTH 5 0
BBX 5 8 0 0
BITMAP
1600
2140
2800
1A00
6280
9180
9180
2600
ENDCHAR
STARTCHAR uni1EA0
ENCODING 7840
SWIDTH 718 0
DWIDTH 7 0
BBX 7 9 0 -2
BITMAP
0200
0640
0980
04D0
15A0
2030
A078
0000
0200
ENDCHAR
STARTCHAR uni1EA1
ENCODING 7841
SWIDTH 480 0
DWIDTH 5 0
BBX 5 7 0 -2
BITMAP
1500
5200
1700
9200
6640
0000
0800
ENDCHAR
STARTCHAR uni1EA2
ENCODING 7842
SWIDTH 718 0
DWIDTH 7 0
BBX 7 10 0 0
BITMAP
0140
0040
0100
0200
0640
0980
04D0
15A0
2030
A078
ENDCHAR
STARTCHAR uni1EA3
ENCODING 7843
SWIDTH 480 0
DWIDTH 5 0
BBX 5 8 0 0
BITMAP
1400
0500
0400
1500
5200
1700
9200
6640
ENDCHAR
STARTCHAR uni1EA4
ENCODING 7844
SWIDTH 718 0
DWIDTH 7 0
BBX 7 9 0 0
BITMAP
0120
0680
0200
0640
0980
04D0
15A0
2030
A078
ENDCHAR
STARTCHAR uni1EA5
ENCODING 7845
SWIDTH 480 0
DWIDTH 5 0
BBX 5 8 0 0
BITMAP
0140
1900
1100
1500
5200
1700
9200
6640
ENDCHAR
STARTCHAR uni1EA6
ENCODING 7846
SWIDTH 718 0
DWIDTH 7 0
BBX 7 9 0 0
BITMAP
0190
0540
0200
0640
0980
04D0
15A0
2030
A078
ENDCHAR
STARTCHAR uni1EA7
ENCODING 7847
SWIDTH 480 0
DWIDTH 5 0
BBX 5 8 0 0
BITMAP
0600
1900
1100
1500
5200
1700
9200
6640
ENDCHAR
STARTCHAR uni1EA8
ENCODING 7848
SWIDTH 718 0
DWIDTH 7 0
BBX 7 11 0 0
BITMAP
0050
0020
0680
0440
0200
0640
0980
04D0
15A0
2030
A078
ENDCHAR
STARTCHAR uni1EA9
ENCODING 7849
SWIDTH 480 0
DWIDTH 5 0
BBX 5 9 0 0
BITMAP
0140
0140
1900
1100
1500
5200
1700
9200
6640
ENDCHAR
STARTCHAR uni1EAA
ENCODING 7850
SWIDTH 718 0
DWIDTH 7 0
BBX 7 10 0 0
BITMAP
0500
0140
0540
0200
0640
0980
04D0
15A0
2030
A078
ENDCHAR
STARTCHAR uni1EAB
ENCODING 7851
SWIDTH 480 0
DWIDTH 5 0
BBX 5 8 0 0
BITMAP
2900
1800
1100
1500
5200
1700
9200
6640
ENDCHAR
STARTCHAR uni1EAC
ENCODING 7852
SWIDTH 718 0
DWIDTH 7 0
BBX 7 11 0 -2
BITMAP
0100
0540
0200
0640
0980
04D0
15A0
2030
A078
0000
0200
ENDCHAR
STARTCHAR uni1EAD
ENCODING 7853
SWIDTH 480 0
DWIDTH 5 0
BBX 5 9 0 -2
BITMAP
0400
1500
1500
5200
1700
9200
6640
0000
0800
ENDCHAR
STARTCHAR uni1EAE
ENCODING 7854
SWIDTH 718 0
DWIDTH 7 0
BBX 7 9 0 0
BITMAP
0540
0640
0200
0640
0980
04D0
15A0
2030
A078
ENDCHAR
STARTCHAR uni1EAF
ENCODING 7855
SWIDTH 480 0
DWIDTH 5 0
BBX 5 8 0 0
BITMAP
0800
1500
2900
1500
5200
1700
9200
6640
ENDCHAR
STARTCHAR uni1EB0
ENCODING 7856
SWIDTH 718 0
DWIDTH 7 0
BBX 7 9 0 0
BITMAP
0540
0640
0200
0640
0980
04D0
15A0
2030
A078
ENDCHAR
STARTCHAR uni1EB1
ENCODING 7857
SWIDTH 480 0
DWIDTH 5 0
BBX 5 8 0 0
BITMAP
1400
1500
2900
1500
5200
1700
9200
6640
ENDCHAR
STARTCHAR uni1EB2
ENCODING 7858
SWIDTH 718 0
DWIDTH 7 0
BBX 7 10 0 0
BITMAP
0140
0540
0640
0200
0640
0980
04D0
15A0
2030
A078
ENDCHAR
STARTCHAR uni1EB3
ENCODING 7859
SWIDTH 480 0
DWIDTH 5 0
BBX 5 9 0 0
BITMAP
1400
0400
1500
2900
1500
5200
1700
9200
6640
ENDCHAR
STARTCHAR uni1EB4
ENCODING 7860
SWIDTH 718 0
DWIDTH 7 0
BBX 7 10 0 0
BITMAP
0680
0440
0640
0200
0640
0980
04D0
15A0
2030
A078
ENDCHAR
STARTCHAR uni1EB5
ENCODING 7861
SWIDTH 480 0
DWIDTH 5 0
BBX 5 9 0 0
BITMAP
2500
0500
1100
2900
1500
5200
1700
9200
6640
ENDCHAR
STARTCHAR uni1EB6
ENCODING 7862
SWIDTH 718 0
DWIDTH 7 0
BBX 7 11 0 -2
BITMAP
0440
0640
0200
0640
0980
04D0
15A0
2030
A078
0000
0200
ENDCHAR
STARTCHAR uni1EB7
ENCODING 7863
SWIDTH 480 0
DWIDTH 5 0
BBX 5 9 0 -2
BITMAP
1100
2D00
1500
5200
1700
9200
6640
0000
0800
ENDCHAR
STARTCHAR uni1EB8
ENCODING 7864
SWIDTH 626 0
DWIDTH 6 0
BBX 6 9 0 -2
BITMAP
79A0
2410
2440
2980
2400
2410
79A0
0000
0600
ENDCHAR
STARTCHAR uni1EB9
ENCODING 7865
SWIDTH 464 0
DWIDTH 5 0
BBX 4 7 0 -2
BITMAP
16
A6
90
60
2A
00
08
ENDCHAR
STARTCHAR uni1EBA
ENCODING 7866
SWIDTH 626 0
DWIDTH 6 0
BBX 6 10 0 0
BITMAP
0500
0100
0100
79A0
2410
2440
2980
2400
2410
79A0
ENDCHAR
STARTCHAR uni1EBB
ENCODING 7867
SWIDTH 464 0
DWIDTH 5 0
BBX 4 8 0 0
BITMAP
04
05
04
16
A6
90
60
2A
ENDCHAR
STARTCHAR uni1EBC
ENCODING 7868
SWIDTH 626 0
DWIDTH 6 0
BBX 6 8 0 0
BITMAP
0A40
79A0
2410
2440
2980
2400
2410
79A0
ENDCHAR
STARTCHAR uni1EBD
ENCODING 7869
SWIDTH 464 0
DWIDTH 5 0
BBX 4 6 0 0
BITMAP
19
16
A6
90
60
2A
ENDCHAR
STARTCHAR uni1EBE
ENCODING 7870
SWIDTH 626 0
DWIDTH 6 0
BBX 6 9 0 0
BITMAP
0560
0A80
79A0
2410
2440
2980
2400
2410
79A0
ENDCHAR
STARTCHAR uni1EBF
ENCODING 7871
SWIDTH 464 0
DWIDTH 5 0
BBX 5 8 0 0
BITMAP
0180
1900
1100
1600
A600
9000
6000
2A00
ENDCHAR
STARTCHAR uni1EC0
ENCODING 7872
SWIDTH 626 0
DWIDTH 6 0
BBX 6 9 0 0
BITMAP
0180
0940
79A0
2410
2440
2980
2400
2410
79A0
ENDCHAR
STARTCHAR uni1EC1
ENCODING 7873
SWIDTH 464 0
DWIDTH 5 0
BBX 4 8 0 0
BITMAP
02
19
11
16
A6
90
60
2A
ENDCHAR
STARTCHAR uni1EC2
ENCODING 7874
SWIDTH 626 0
DWIDTH 6 0
BBX 6 11 0 0
BITMAP
0040
0050
0640
0440
79A0
2410
2440
2980
2400
2410
79A0
ENDCHAR
STARTCHAR uni1EC3
ENCODING 7875
SWIDTH 464 0
DWIDTH 5 0
BBX 5 9 0 0
BITMAP
0140
0080
1900
1100
1600
A600
9000
6000
2A00
ENDCHAR
STARTCHAR uni1EC4
ENCODING 7876
SWIDTH 626 0
DWIDTH 6 0
BBX 6 10 0 0
BITMAP
0940
0240
0A40
79A0
2410
2440
2980
2400
2410
79A0
ENDCHAR
STARTCHAR uni1EC5
ENCODING 7877
SWIDTH 464 0
DWIDTH 5 0
BBX 4 8 0 0
BITMAP
19
1C
11
16
A6
90
60
2A
ENDCHAR
STARTCHAR uni1EC6
ENCODING 7878
SWIDTH 626 0
DWIDTH 6 0
BBX 6 11 0 -2
BITMAP
0500
0940
79A0
2410
2440
2980
2400
2410
79A0
0000
0600
ENDCHAR
STARTCHAR uni1EC7
ENCODING 7879
SWIDTH 464 0
DWIDTH 5 0
BBX 4 9 0 -2
BITMAP
04
15
16
A6
90
60
2A
00
08
ENDCHAR
STARTCHAR uni1EC8
ENCODING 7880
SWIDTH 357 0
DWIDTH 4 0
BBX 3 10 0 0
BITMAP
14
08
10
78
24
24
24
24
24
78
ENDCHAR
STARTCHAR uni1EC9
ENCODING 7881
SWIDTH 285 0
DWIDTH 3 0
BBX 3 8 0 0
BITMAP
50
14
10
60
20
20
20
74
ENDCHAR
STARTCHAR uni1ECA
ENCODING 7882
SWIDTH 357 0
DWIDTH 4 0
BBX 3 9 0 -2
BITMAP
78
24
24
24
24
24
78
00
24
ENDCHAR
STARTCHAR uni1ECB
ENCODING 7883
SWIDTH 285 0
DWIDTH 3 0
BBX 3 9 0 -2
BITMAP
30
00
60
20
20
20
74
00
20
ENDCHAR
STARTCHAR uni1ECC
ENCODING 7884
SWIDTH 738 0
DWIDTH 7 0
BBX 7 9 0 -2
BITMAP
1990
3024
6018
601C
6018
3024
1950
0000
0200
ENDCHAR
STARTCHAR uni1ECD
ENCODING 7885
SWIDTH 514 0
DWIDTH 5 0
BBX 5 7 0 -2
BITMAP
2600
5180
9080
5180
2600
0000
0800
ENDCHAR
STARTCHAR uni1ECE
ENCODING 7886
SWIDTH 738 0
DWIDTH 7 0
BBX 7 10 0 0
BITMAP
0140
0080
0100
1990
3024
6018
601C
6018
3024
1950
ENDCHAR
STARTCHAR uni1ECF
ENCODING 7887
SWIDTH 514 0
DWIDTH 5 0
BBX 5 8 0 0
BITMAP
0500
0200
0400
2600
5180
9080
5180
2600
ENDCHAR
STARTCHAR uni1ED0
ENCODING 7888
SWIDTH 738 0
DWIDTH 7 0
BBX 7 9 0 0
BITMAP
0124
0690
1990
3024
6018
601C
6018
3024
1950
ENDCHAR
STARTCHAR uni1ED1
ENCODING 7889
SWIDTH 514 0
DWIDTH 5 0
BBX 5 8 0 0
BITMAP
0080
0900
1100
2600
5180
9080
5180
2600
ENDCHAR
STARTCHAR uni1ED2
ENCODING 7890
SWIDTH 738 0
DWIDTH 7 0
BBX 7 9 0 0
BITMAP
0190
0580
1990
3024
6018
601C
6018
3024
1950
ENDCHAR
STARTCHAR uni1ED3
ENCODING 7891
SWIDTH 514 0
DWIDTH 5 0
BBX 5 8 0 0
BITMAP
0200
0900
1100
2600
5180
9080
5180
2600
ENDCHAR
STARTCHAR uni1ED4
ENCODING 7892
SWIDTH 738 0
DWIDTH 7 0
BBX 7 11 0 0
BITMAP
0050
0020
0290
0440
1990
3024
6018
601C
6018
3024
1950
ENDCHAR
STARTCHAR uni1ED5
ENCODING 7893
SWIDTH 514 0
DWIDTH 5 0
BBX 5 9 0 0
BITMAP
0140
0080
0A00
1100
2600
5180
9080
5180
2600
ENDCHAR
STARTCHAR uni1ED6
ENCODING 7894
SWIDTH 738 0
DWIDTH 7 0
BBX 7 10 0 0
BITMAP
0600
0140
0540
1990
3024
6018
601C
6018
3024
1950
ENDCHAR
STARTCHAR uni1ED7
ENCODING 7895
SWIDTH 514 0
DWIDTH 5 0
BBX 5 8 0 0
BITMAP
1A00
0D00
1100
2600
5180
9080
5180
2600
ENDCHAR
STARTCHAR uni1ED8
ENCODING 7896
SWIDTH 738 0
DWIDTH 7 0
BBX 7 11 0 -2
BITMAP
0100
0580
1990
3024
6018
601C
6018
3024
1950
0000
0200
ENDCHAR
STARTCHAR uni1ED9
ENCODING 7897
SWIDTH 514 0
DWIDTH 5 0
BBX 5 9 0 -2
BITMAP
0400
1500
2600
5180
9080
5180
2600
0000
0800
ENDCHAR
STARTCHAR uni1EDA
ENCODING 7898
SWIDTH 737 0
DWIDTH 7 0
BBX 7 9 0 0
BITMAP
0144
0208
19B4
3024
6018
601C
6018
3024
1950
ENDCHAR
STARTCHAR uni1EDB
ENCODING 7899
SWIDTH 516 0
DWIDTH 5 0
BBX 5 7 0 0
BITMAP
0540
0880
2640
5180
9080
5180
2600
ENDCHAR
STARTCHAR uni1EDC
ENCODING 7900
SWIDTH 737 0
DWIDTH 7 0
BBX 7 9 0 0
BITMAP
0104
0148
19B4
3024
6018
601C
6018
3024
1950
ENDCHAR
STARTCHAR uni1EDD
ENCODING 7901
SWIDTH 516 0
DWIDTH 5 0
BBX 5 7 0 0
BITMAP
1440
0880
2640
5180
9080
5180
2600
ENDCHAR
STARTCHAR uni1EDE
ENCODING 7902
SWIDTH 737 0
DWIDTH 7 0
BBX 7 10 0 0
BITMAP
0140
0084
0108
19B4
3024
6018
601C
6018
3024
1950
ENDCHAR
STARTCHAR uni1EDF
ENCODING 7903
SWIDTH 516 0
DWIDTH 5 0
BBX 5 8 0 0
BITMAP
0500
0240
0480
2640
5180
9080
5180
2600
ENDCHAR
STARTCHAR uni1EE0
ENCODING 7904
SWIDTH 737 0
DWIDTH 7 0
BBX 7 9 0 0
BITMAP
0004
0688
19B4
3024
6018
601C
6018
3024
1950
ENDCHAR
STARTCHAR uni1EE1
ENCODING 7905
SWIDTH 516 0
DWIDTH 5 0
BBX 5 7 0 0
BITMAP
1940
1580
2640
5180
9080
5180
2600
ENDCHAR
STARTCHAR uni1EE2
ENCODING 7906
SWIDTH 737 0
DWIDTH 7 0
BBX 7 11 0 -2
BITMAP
0004
0008
19B4
3024
6018
601C
6018
3024
1950
0000
0200
ENDCHAR
STARTCHAR uni1EE3
ENCODING 7907
SWIDTH 516 0
DWIDTH 5 0
BBX 5 9 0 -2
BITMAP
0040
0080
2640
5180
9080
5180
2600
0000
0800
ENDCHAR
STARTCHAR uni1EE4
ENCODING 7908
SWIDTH 752 0
DWIDTH 8 0
BBX 7 9 0 -2
BITMAP
7828
2014
2014
2014
2014
2410
0A90
0000
0240
ENDCHAR
STARTCHAR uni1EE5
ENCODING 7909
SWIDTH 570 0
DWIDTH 6 0
BBX 5 7 0 -2
BITMAP
6180
2080
2080
2080
2980
0000
0900
ENDCHAR
STARTCHAR uni1EE6
ENCODING 7910
SWIDTH 752 0
DWIDTH 8 0
BBX 7 10 0 0
BITMAP
0140
0080
0040
7828
2014
2014
2014
2014
2410
0A90
ENDCHAR
STARTCHAR uni1EE7
ENCODING 7911
SWIDTH 570 0
DWIDTH 6 0
BBX 5 8 0 0
BITMAP
0500
0200
0400
6180
2080
2080
2080
2980
ENDCHAR
STARTCHAR uni1EE8
ENCODING 7912
SWIDTH 762 0
DWIDTH 8 0
BBX 8 9 0 0
BITMAP
0041
0242
782D
2014
2014
2014
2014
2414
0A90
ENDCHAR
STARTCHAR uni1EE9
ENCODING 7913
SWIDTH 574 0
DWIDTH 6 0
BBX 6 7 0 0
BITMAP
0110
0820
6180
2080
2080
2080
2980
ENDCHAR
STARTCHAR uni1EEA
ENCODING 7914
SWIDTH 762 0
DWIDTH 8 0
BBX 8 9 0 0
BITMAP
0101
0182
782D
2014
2014
2014
2014
2414
0A90
ENDCHAR
STARTCHAR uni1EEB
ENCODING 7915
SWIDTH 574 0
DWIDTH 6 0
BBX 6 7 0 0
BITMAP
0410
0820
6180
2080
2080
2080
2980
ENDCHAR
STARTCHAR uni1EEC
ENCODING 7916
SWIDTH 762 0
DWIDTH 8 0
BBX 8 10 0 0
BITMAP
0140
0081
0042
782D
2014
2014
2014
2014
2414
0A90
ENDCHAR
STARTCHAR uni1EED
ENCODING 7917
SWIDTH 574 0
DWIDTH 6 0
BBX 6 8 0 0
BITMAP
0500
0210
0420
6180
2080
2080
2080
2980
ENDCHAR
STARTCHAR uni1EEE
ENCODING 7918
SWIDTH 762 0
DWIDTH 8 0
BBX 8 9 0 0
BITMAP
0001
0692
782D
2014
2014
2014
2014
2414
0A90
ENDCHAR
STARTCHAR uni1EEF
ENCODING 7919
SWIDTH 574 0
DWIDTH 6 0
BBX 6 7 0 0
BITMAP
0010
1A20
6180
2080
2080
2080
2980
ENDCHAR
STARTCHAR uni1EF0
ENCODING 7920
SWIDTH 762 0
DWIDTH 8 0
BBX 8 11 0 -2
BITMAP
0001
0002
782D
2014
2014
2014
2014
2414
0A90
0000
0240
ENDCHAR
STARTCHAR uni1EF1
ENCODING 7921
SWIDTH 574 0
DWIDTH 6 0
BBX 6 9 0 -2
BITMAP
0010
0020
6180
2080
2080
2080
2980
0000
0800
ENDCHAR
STARTCHAR Ygrave
ENCODING 7922
SWIDTH 647 0
DWIDTH 6 0
BBX 7 9 0 0
BITMAP
0500
0200
B464
2440
0C40
0A00
0600
0600
0B40
ENDCHAR
STARTCHAR ygrave
ENCODING 7923
SWIDTH 483 0
DWIDTH 5 0
BBX 5 9 0 -2
BITMAP
1400
0800
A180
2100
2500
1900
0800
0400
A000
ENDCHAR
STARTCHAR uni1EF4
ENCODING 7924
SWIDTH 647 0
DWIDTH 6 0
BBX 7 9 0 -2
BITMAP
B464
2440
0C40
0A00
0600
0600
0B40
0000
0600
ENDCHAR
STARTCHAR uni1EF5
ENCODING 7925
SWIDTH 483 0
DWIDTH 5 0
BBX 5 7 0 -2
BITMAP
A180
2100
2500
1900
0800
0400
A200
ENDCHAR
STARTCHAR uni1EF6
ENCODING 7926
SWIDTH 647 0
DWIDTH 6 0
BBX 7 10 0 0
BITMAP
0100
0140
0100
B464
2440
0C40
0A00
0600
0600
0B40
ENDCHAR
STARTCHAR uni1EF7
ENCODING 7927
SWIDTH 483 0
DWIDTH 5 0
BBX 5 10 0 -2
BITMAP
0500
0200
0400
A180
2100
2500
1900
0800
0400
A000
ENDCHAR
STARTCHAR uni1EF8
ENCODING 7928
SWIDTH 647 0
DWIDTH 6 0
BBX 7 8 0 0
BITMAP
0A40
B464
2440
0C40
0A00
0600
0600
0B40
ENDCHAR
STARTCHAR uni1EF9
ENCODING 7929
SWIDTH 483 0
DWIDTH 5 0
BBX 5 8 0 -2
BITMAP
1A00
A180
2100
2500
1900
0800
0400
A000
ENDCHAR
STARTCHAR uni2000
ENCODING 8192
SWIDTH 500 0
DWIDTH 5 0
BBX 1 1 0 0
BITMAP
00
ENDCHAR
STARTCHAR uni2001
ENCODING 8193
SWIDTH 1000 0
DWIDTH 10 0
BBX 1 1 0 0
BITMAP
00
ENDCHAR
STARTCHAR uni2002
ENCODING 8194
SWIDTH 500 0
DWIDTH 5 0
BBX 1 1 0 0
BITMAP
00
ENDCHAR
STARTCHAR uni2003
ENCODING 8195
SWIDTH 1000 0
DWIDTH 10 0
BBX 1 1 0 0
BITMAP
00
ENDCHAR
STARTCHAR uni2004
ENCODING 8196
SWIDTH 334 0
DWIDTH 3 0
BBX 1 1 0 0
BITMAP
00
ENDCHAR
STARTCHAR uni2005
ENCODING 8197
SWIDTH 250 0
DWIDTH 3 0
BBX 1 1 0 0
BITMAP
00
ENDCHAR
STARTCHAR uni2006
ENCODING 8198
SWIDTH 167 0
DWIDTH 2 0
BBX 1 1 0 0
BITMAP
00
ENDCHAR
STARTCHAR uni2007
ENCODING 8199
SWIDTH 560 0
DWIDTH 6 0
BBX 1 1 0 0
BITMAP
00
ENDCHAR
STARTCHAR uni2008
ENCODING 8200
SWIDTH 297 0
DWIDTH 3 0
BBX 1 1 0 0
BITMAP
00
ENDCHAR
STARTCHAR uni2009
ENCODING 8201
SWIDTH 125 0
DWIDTH 1 0
BBX 1 1 0 0
BITMAP
00
ENDCHAR
STARTCHAR uni200A
ENCODING 8202
SWIDTH 63 0
DWIDTH 1 0
BBX 1 1 0 0
BITMAP
00
ENDCHAR
STARTCHAR uni200B
ENCODING 8203
SWIDTH 0 0
DWIDTH 0 0
BBX 1 1 0 0
BITMAP
00
ENDCHAR
STARTCHAR uni200C
ENCODING 8204
SWIDTH 0 0
DWIDTH 0 0
BBX 1 1 0 -3
BITMAP
00
ENDCHAR
STARTCHAR uni200D
ENCODING 8205
SWIDTH 0 0
DWIDTH 0 0
BBX 2 3 -1 6
BITMAP
50
50
50
ENDCHAR
STARTCHAR uni2010
ENCODING 8208
SWIDTH 315 0
DWIDTH 3 0
BBX 3 1 0 2
BITMAP
64
ENDCHAR
STARTCHAR uni2011
ENCODING 8209
SWIDTH 315 0
DWIDTH 3 0
BBX 3 1 0 2
BITMAP
64
ENDCHAR
STARTCHAR figuredash
ENCODING 8210
SWIDTH 495 0
DWIDTH 5 0
BBX 5 1 0 2
BITMAP
6A40
ENDCHAR
STARTCHAR endash
ENCODING 8211
SWIDTH 500 0
DWIDTH 5 0
BBX 5 1 0 2
BITMAP
6A40
ENDCHAR
STARTCHAR emdash
ENCODING 8212
SWIDTH 1000 0
DWIDTH 10 0
BBX 10 1 0 2
BITMAP
6AAA90
ENDCHAR
STARTCHAR uni2015
ENCODING 8213
SWIDTH 940 0
DWIDTH 9 0
BBX 10 1 0 2
BITMAP
AAAA90
ENDCHAR
STARTCHAR uni2016
ENCODING 8214
SWIDTH 427 0
DWIDTH 4 0
BBX 3 9 1 -2
BITMAP
94
94
94
94
94
94
94
94
94
ENDCHAR
STARTCHAR underscoredbl
ENCODING 8215
SWIDTH 512 0
DWIDTH 5 0
BBX 5 2 0 -3
BITMAP
AA80
AA80
ENDCHAR
STARTCHAR quoteleft
ENCODING 8216
SWIDTH 245 0
DWIDTH 2 0
BBX 2 2 0 5
BITMAP
50
70
ENDCHAR
STARTCHAR quoteright
ENCODING 8217
SWIDTH 245 0
DWIDTH 2 0
BBX 2 2 0 5
BITMAP
60
20
ENDCHAR
STARTCHAR quotesinglbase
ENCODING 8218
SWIDTH 243 0
DWIDTH 2 0
BBX 2 2 0 -1
BITMAP
60
10
ENDCHAR
STARTCHAR quotereversed
ENCODING 8219
SWIDTH 243 0
DWIDTH 2 0
BBX 2 3 0 4
BITMAP
60
50
10
ENDCHAR
STARTCHAR quotedblleft
ENCODING 8220
SWIDTH 435 0
DWIDTH 4 0
BBX 4 2 0 5
BITMAP
55
76
ENDCHAR
STARTCHAR quotedblright
ENCODING 8221
SWIDTH 434 0
DWIDTH 4 0
BBX 4 2 0 5
BITMAP
66
21
ENDCHAR
STARTCHAR quotedblbase
ENCODING 8222
SWIDTH 433 0
DWIDTH 4 0
BBX 4 2 0 -1
BITMAP
66
11
ENDCHAR
STARTCHAR uni201F
ENCODING 8223
SWIDTH 434 0
DWIDTH 4 0
BBX 4 3 0 4
BITMAP
66
55
11
ENDCHAR
STARTCHAR dagger
ENCODING 8224
SWIDTH 512 0
DWIDTH 5 0
BBX 5 9 0 -2
BITMAP
0800
0400
6A40
0400
0C00
0800
0400
0400
0400
ENDCHAR
STARTCHAR daggerdbl
ENCODING 8225
SWIDTH 512 0
DWIDTH 5 0
BBX 5 9 0 -2
BITMAP
0800
0400
6A40
0400
0800
0400
6540
0800
0400
ENDCHAR
STARTCHAR bullet
ENCODING 8226
SWIDTH 457 0
DWIDTH 5 0
BBX 3 3 1 1
BITMAP
60
F4
B4
ENDCHAR
STARTCHAR twodotenleader
ENCODING 8229
SWIDTH 500 0
DWIDTH 5 0
BBX 5 1 0 0
BITMAP
5140
ENDCHAR
STARTCHAR ellipsis
ENCODING 8230
SWIDTH 887 0
DWIDTH 9 0
BBX 7 1 1 0
BITMAP
C318
ENDCHAR
STARTCHAR uni202F
ENCODING 8239
SWIDTH 125 0
DWIDTH 1 0
BBX 1 1 0 0
BITMAP
00
ENDCHAR
STARTCHAR perthousand
ENCODING 8240
SWIDTH 1017 0
DWIDTH 10 0
BBX 10 7 0 0
BITMAP
241000
564000
944000
155050
018610
054610
109240
ENDCHAR
STARTCHAR uni2031
ENCODING 8241
SWIDTH 1342 0
DWIDTH 13 0
BBX 13 7 0 0
BITMAP
24100000
56400000
94400000
15505140
01861840
05461840
10924540
ENDCHAR
STARTCHAR minute
ENCODING 8242
SWIDTH 296 0
DWIDTH 3 0
BBX 3 3 0 4
BITMAP
24
20
50
ENDCHAR
STARTCHAR second
ENCODING 8243
SWIDTH 436 0
DWIDTH 4 0
BBX 4 3 0 4
BITMAP
26
29
58
ENDCHAR
STARTCHAR uni2034
ENCODING 8244
SWIDTH 576 0
DWIDTH 6 0
BBX 5 3 0 4
BITMAP
2680
2980
5900
ENDCHAR
STARTCHAR uni2035
ENCODING 8245
SWIDTH 296 0
DWIDTH 3 0
BBX 2 3 0 4
BITMAP
60
20
10
ENDCHAR
STARTCHAR uni2036
ENCODING 8246
SWIDTH 436 0
DWIDTH 4 0
BBX 4 3 0 4
BITMAP
68
25
15
ENDCHAR
STARTCHAR uni2037
ENCODING 8247
SWIDTH 576 0
DWIDTH 6 0
BBX 5 3 0 4
BITMAP
6940
2580
1540
ENDCHAR
STARTCHAR uni2038
ENCODING 8248
SWIDTH 523 0
DWIDTH 5 0
BBX 5 3 0 -2
BITMAP
0800
1200
4040
ENDCHAR
STARTCHAR guilsinglleft
ENCODING 8249
SWIDTH 307 0
DWIDTH 3 0
BBX 3 4 0 0
BITMAP
20
50
20
04
ENDCHAR
STARTCHAR guilsinglright
ENCODING 8250
SWIDTH 307 0
DWIDTH 3 0
BBX 3 4 0 0
BITMAP
20
18
20
40
ENDCHAR
STARTCHAR uni203B
ENCODING 8251
SWIDTH 701 0
DWIDTH 7 0
BBX 7 6 0 0
BITMAP
5314
1450
0980
2320
1990
2320
ENDCHAR
STARTCHAR exclamdbl
ENCODING 8252
SWIDTH 565 0
DWIDTH 6 0
BBX 4 7 1 0
BITMAP
86
C6
86
82
41
00
C6
ENDCHAR
STARTCHAR uni203E
ENCODING 8254
SWIDTH 512 0
DWIDTH 5 0
BBX 5 1 0 8
BITMAP
5540
ENDCHAR
STARTCHAR uni2040
ENCODING 8256
SWIDTH 810 0
DWIDTH 8 0
BBX 6 2 1 6
BITMAP
2A80
4010
ENDCHAR
STARTCHAR uni2043
ENCODING 8259
SWIDTH 352 0
DWIDTH 4 0
BBX 3 2 0 2
BITMAP
68
BC
ENDCHAR
STARTCHAR fraction
ENCODING 8260
SWIDTH 205 0
DWIDTH 2 0
BBX 4 7 -1 0
BITMAP
01
01
04
14
20
40
40
ENDCHAR
STARTCHAR uni2047
ENCODING 8263
SWIDTH 822 0
DWIDTH 8 0
BBX 8 7 0 0
BITMAP
5955
9293
0602
0808
0404
0000
1418
ENDCHAR
STARTCHAR uni204B
ENCODING 8267
SWIDTH 605 0
DWIDTH 6 0
BBX 5 9 1 -2
BITMAP
AA00
5540
5540
5A00
5800
5400
5400
9800
4400
ENDCHAR
STARTCHAR uni204C
ENCODING 8268
SWIDTH 479 0
DWIDTH 5 0
BBX 3 3 1 1
BITMAP
54
D4
54
ENDCHAR
STARTCHAR uni204D
ENCODING 8269
SWIDTH 479 0
DWIDTH 5 0
BBX 3 3 1 1
BITMAP
54
6C
54
ENDCHAR
STARTCHAR uni204E
ENCODING 8270
SWIDTH 410 0
DWIDTH 4 0
BBX 4 4 0 -2
BITMAP
14
69
69
14
ENDCHAR
STARTCHAR uni204F
ENCODING 8271
SWIDTH 245 0
DWIDTH 2 0
BBX 2 6 0 -1
BITMAP
60
00
00
00
60
50
ENDCHAR
STARTCHAR uni2050
ENCODING 8272
SWIDTH 809 0
DWIDTH 8 0
BBX 6 7 1 0
BITMAP
2A90
8020
0000
0000
0000
8020
6A90
ENDCHAR
STARTCHAR uni2051
ENCODING 8273
SWIDTH 410 0
DWIDTH 4 0
BBX 4 8 0 -1
BITMAP
69
69
15
14
15
69
69
14
ENDCHAR
STARTCHAR uni2052
ENCODING 8274
SWIDTH 482 0
DWIDTH 5 0
BBX 4 10 0 -2
BITMAP
01
62
02
05
08
08
14
20
22
50
ENDCHAR
STARTCHAR uni2057
ENCODING 8279
SWIDTH 727 0
DWIDTH 7 0
BBX 7 3 0 4
BITMAP
2694
29A0
5920
ENDCHAR
STARTCHAR uni205F
ENCODING 8287
SWIDTH 222 0
DWIDTH 2 0
BBX 1 1 0 0
BITMAP
00
ENDCHAR
STARTCHAR uni2061
ENCODING 8289
SWIDTH 0 0
DWIDTH 0 0
BBX 1 1 0 0
BITMAP
00
ENDCHAR
STARTCHAR uni2062
ENCODING 8290
SWIDTH 0 0
DWIDTH 0 0
BBX 1 1 0 0
BITMAP
00
ENDCHAR
STARTCHAR uni2063
ENCODING 8291
SWIDTH 0 0
DWIDTH 0 0
BBX 1 1 0 0
BITMAP
00
ENDCHAR
STARTCHAR uni2064
ENCODING 8292
SWIDTH 0 0
DWIDTH 0 0
BBX 1 1 0 0
BITMAP
00
ENDCHAR
STARTCHAR zerosuperior
ENCODING 8304
SWIDTH 412 0
DWIDTH 4 0
BBX 4 5 0 3
BITMAP
25
82
82
82
25
ENDCHAR
STARTCHAR uni2071
ENCODING 8305
SWIDTH 245 0
DWIDTH 2 0
BBX 2 6 0 3
BITMAP
20
00
60
20
20
60
ENDCHAR
STARTCHAR foursuperior
ENCODING 8308
SWIDTH 403 0
DWIDTH 4 0
BBX 4 5 0 3
BITMAP
08
18
58
AE
08
ENDCHAR
STARTCHAR fivesuperior
ENCODING 8309
SWIDTH 358 0
DWIDTH 4 0
BBX 3 5 0 3
BITMAP
68
64
08
04
54
ENDCHAR
STARTCHAR sixsuperior
ENCODING 8310
SWIDTH 390 0
DWIDTH 4 0
BBX 4 5 0 3
BITMAP
14
68
86
82
64
ENDCHAR
STARTCHAR sevensuperior
ENCODING 8311
SWIDTH 364 0
DWIDTH 4 0
BBX 4 5 0 3
BITMAP
A9
04
08
14
20
ENDCHAR
STARTCHAR eightsuperior
ENCODING 8312
SWIDTH 374 0
DWIDTH 4 0
BBX 4 5 0 3
BITMAP
58
94
28
85
55
ENDCHAR
STARTCHAR ninesuperior
ENCODING 8313
SWIDTH 390 0
DWIDTH 4 0
BBX 4 5 0 3
BITMAP
54
85
6A
09
24
ENDCHAR
STARTCHAR uni207A
ENCODING 8314
SWIDTH 536 0
DWIDTH 5 0
BBX 5 5 0 3
BITMAP
0400
0800
6A80
0800
0800
ENDCHAR
STARTCHAR uni207B
ENCODING 8315
SWIDTH 536 0
DWIDTH 5 0
BBX 5 1 0 5
BITMAP
6A80
ENDCHAR
STARTCHAR uni207C
ENCODING 8316
SWIDTH 534 0
DWIDTH 5 0
BBX 5 3 0 4
BITMAP
6A80
0000
6A80
ENDCHAR
STARTCHAR parenleftsuperior
ENCODING 8317
SWIDTH 268 0
DWIDTH 3 0
BBX 2 6 0 2
BITMAP
10
50
80
80
80
10
ENDCHAR
STARTCHAR parenrightsuperior
ENCODING 8318
SWIDTH 268 0
DWIDTH 3 0
BBX 3 7 0 1
BITMAP
50
20
14
14
14
20
40
ENDCHAR
STARTCHAR nsuperior
ENCODING 8319
SWIDTH 491 0
DWIDTH 5 0
BBX 5 4 0 3
BITMAP
6A00
2200
2200
6240
ENDCHAR
STARTCHAR zeroinferior
ENCODING 8320
SWIDTH 412 0
DWIDTH 4 0
BBX 4 5 0 -2
BITMAP
25
82
82
82
25
ENDCHAR
STARTCHAR oneinferior
ENCODING 8321
SWIDTH 333 0
DWIDTH 3 0
BBX 3 5 0 -2
BITMAP
60
20
20
20
64
ENDCHAR
STARTCHAR twoinferior
ENCODING 8322
SWIDTH 373 0
DWIDTH 4 0
BBX 4 5 0 -2
BITMAP
68
09
08
10
A9
ENDCHAR
STARTCHAR threeinferior
ENCODING 8323
SWIDTH 374 0
DWIDTH 4 0
BBX 4 5 0 -2
BITMAP
68
08
18
05
54
ENDCHAR
STARTCHAR fourinferior
ENCODING 8324
SWIDTH 403 0
DWIDTH 4 0
BBX 4 5 0 -2
BITMAP
08
18
58
AE
08
ENDCHAR
STARTCHAR fiveinferior
ENCODING 8325
SWIDTH 358 0
DWIDTH 4 0
BBX 3 5 0 -2
BITMAP
68
64
08
04
54
ENDCHAR
STARTCHAR sixinferior
ENCODING 8326
SWIDTH 390 0
DWIDTH 4 0
BBX 4 5 0 -2
BITMAP
14
68
86
82
64
ENDCHAR
STARTCHAR seveninferior
ENCODING 8327
SWIDTH 364 0
DWIDTH 4 0
BBX 4 5 0 -2
BITMAP
A9
04
08
14
20
ENDCHAR
STARTCHAR eightinferior
ENCODING 8328
SWIDTH 374 0
DWIDTH 4 0
BBX 4 5 0 -2
BITMAP
58
94
28
85
55
ENDCHAR
STARTCHAR nineinferior
ENCODING 8329
SWIDTH 390 0
DWIDTH 4 0
BBX 4 5 0 -2
BITMAP
54
85
6A
09
24
ENDCHAR
STARTCHAR uni208A
ENCODING 8330
SWIDTH 536 0
DWIDTH 5 0
BBX 5 5 0 -2
BITMAP
0400
0800
6A80
0800
0800
ENDCHAR
STARTCHAR uni208B
ENCODING 8331
SWIDTH 536 0
DWIDTH 5 0
BBX 5 1 0 0
BITMAP
6A80
ENDCHAR
STARTCHAR uni208C
ENCODING 8332
SWIDTH 534 0
DWIDTH 5 0
BBX 5 3 0 -1
BITMAP
6A80
0000
6A80
ENDCHAR
STARTCHAR parenleftinferior
ENCODING 8333
SWIDTH 268 0
DWIDTH 3 0
BBX 2 6 0 -3
BITMAP
10
50
80
80
80
10
ENDCHAR
STARTCHAR parenrightinferior
ENCODING 8334
SWIDTH 268 0
DWIDTH 3 0
BBX 3 7 0 -4
BITMAP
50
20
14
14
14
20
40
ENDCHAR
STARTCHAR uni20A3
ENCODING 8355
SWIDTH 495 0
DWIDTH 5 0
BBX 5 7 0 0
BITMAP
6680
3040
3000
7500
7500
3000
7400
ENDCHAR
STARTCHAR uni20A4
ENCODING 8356
SWIDTH 495 0
DWIDTH 5 0
BBX 5 7 0 0
BITMAP
0640
1440
2400
6900
6900
6440
5A40
ENDCHAR
STARTCHAR uni20A7
ENCODING 8359
SWIDTH 1193 0
DWIDTH 12 0
BBX 12 7 0 0
BITMAP
654000
249800
249D69
294861
240828
240846
780A55
ENDCHAR
STARTCHAR uni20AB
ENCODING 8363
SWIDTH 495 0
DWIDTH 5 0
BBX 5 7 0 0
BITMAP
0700
0740
2700
5200
9200
2A00
1500
ENDCHAR
STARTCHAR Euro
ENCODING 8364
SWIDTH 495 0
DWIDTH 5 0
BBX 5 7 0 0
BITMAP
1980
2040
A500
6000
A500
2000
1A40
ENDCHAR
STARTCHAR uni20B9
ENCODING 8377
SWIDTH 495 0
DWIDTH 5 0
BBX 5 7 0 0
BITMAP
BF40
0600
BF40
B900
1C00
0A00
02C0
ENDCHAR
STARTCHAR uni20BA
ENCODING 8378
SWIDTH 495 0
DWIDTH 5 0
BBX 5 7 0 0
BITMAP
6400
3000
3400
7400
7040
3180
7600
ENDCHAR
STARTCHAR uni20BD
ENCODING 8381
SWIDTH 495 0
DWIDTH 5 0
BBX 5 7 0 0
BITMAP
6600
3180
3180
7500
7500
3000
7400
ENDCHAR
STARTCHAR uni20D0
ENCODING 8400
SWIDTH 0 0
DWIDTH 0 0
BBX 5 2 -5 7
BITMAP
1000
7F80
ENDCHAR
STARTCHAR uni20D1
ENCODING 8401
SWIDTH 0 0
DWIDTH 0 0
BBX 5 2 -5 7
BITMAP
0100
7F80
ENDCHAR
STARTCHAR uni20D2
ENCODING 8402
SWIDTH 0 0
DWIDTH 0 0
BBX 1 9 -3 -2
BITMAP
80
80
80
80
80
80
80
80
40
ENDCHAR
STARTCHAR uni20D3
ENCODING 8403
SWIDTH 0 0
DWIDTH 0 0
BBX 1 7 -3 -2
BITMAP
40
80
80
80
80
80
80
ENDCHAR
STARTCHAR uni20D4
ENCODING 8404
SWIDTH 0 0
DWIDTH 0 0
BBX 5 3 -5 5
BITMAP
1E00
6180
9040
ENDCHAR
STARTCHAR uni20D5
ENCODING 8405
SWIDTH 0 0
DWIDTH 0 0
BBX 6 3 -5 5
BITMAP
2E00
6150
4090
ENDCHAR
STARTCHAR uni20D6
ENCODING 8406
SWIDTH 0 0
DWIDTH 0 0
BBX 5 3 -5 6
BITMAP
1000
7F80
1000
ENDCHAR
STARTCHAR uni20D7
ENCODING 8407
SWIDTH 0 0
DWIDTH 0 0
BBX 5 3 -5 6
BITMAP
0140
7F80
0100
ENDCHAR
STARTCHAR uni20D8
ENCODING 8408
SWIDTH 0 0
DWIDTH 0 0
BBX 4 3 -4 1
BITMAP
78
89
78
ENDCHAR
STARTCHAR uni20D9
ENCODING 8409
SWIDTH 0 0
DWIDTH 0 0
BBX 4 3 -4 1
BITMAP
78
89
78
ENDCHAR
STARTCHAR uni20DA
ENCODING 8410
SWIDTH 0 0
DWIDTH 0 0
BBX 4 3 -4 1
BITMAP
78
89
78
ENDCHAR
STARTCHAR uni20DB
ENCODING 8411
SWIDTH 0 0
DWIDTH 0 0
BBX 5 1 -5 5
BITMAP
8880
ENDCHAR
STARTCHAR uni20DC
ENCODING 8412
SWIDTH 0 0
DWIDTH 0 0
BBX 7 1 -6 5
BITMAP
8888
ENDCHAR
STARTCHAR uni20DD
ENCODING 8413
SWIDTH 0 0
DWIDTH 0 0
BBX 10 10 -7 -2
BITMAP
06F800
290740
600180
800050
800060
800060
800050
600180
290740
06F800
ENDCHAR
STARTCHAR uni20DE
ENCODING 8414
SWIDTH 0 0
DWIDTH 0 0
BBX 11 10 -8 -2
BITMAP
7FFFF8
500008
500008
500008
500008
500008
500008
500008
500008
7FFFF8
ENDCHAR
STARTCHAR uni20DF
ENCODING 8415
SWIDTH 0 0
DWIDTH 0 0
BBX 12 13 -8 -4
BITMAP
001000
006800
018600
060180
180060
600018
800006
600018
180060
060180
018600
006800
001000
ENDCHAR
STARTCHAR uni20E1
ENCODING 8417
SWIDTH 0 0
DWIDTH 0 0
BBX 5 3 -5 6
BITMAP
1040
BFC0
1040
ENDCHAR
STARTCHAR uni20E4
ENCODING 8420
SWIDTH 0 0
DWIDTH 0 0
BBX 15 12 -10 -2
BITMAP
00020000
00068000
00089000
00242000
00601800
00800900
01400200
02000140
08000080
18000060
20000024
7FFFFFF8
ENDCHAR
STARTCHAR uni20E5
ENCODING 8421
SWIDTH 0 0
DWIDTH 0 0
BBX 4 9 -4 -2
BITMAP
40
80
40
10
20
14
08
04
01
ENDCHAR
STARTCHAR uni20E6
ENCODING 8422
SWIDTH 0 0
DWIDTH 0 0
BBX 3 9 -4 -2
BITMAP
44
48
48
48
48
48
48
48
48
ENDCHAR
STARTCHAR uni20E7
ENCODING 8423
SWIDTH 0 0
DWIDTH 0 0
BBX 9 10 -7 -2
BITMAP
7FFFC0
000080
000080
000080
000080
000080
000080
000080
000080
000040
ENDCHAR
STARTCHAR uni20E8
ENCODING 8424
SWIDTH 0 0
DWIDTH 0 0
BBX 5 1 -5 -2
BITMAP
8880
ENDCHAR
STARTCHAR uni20E9
ENCODING 8425
SWIDTH 0 0
DWIDTH 0 0
BBX 6 2 -5 5
BITMAP
FFD0
4010
ENDCHAR
STARTCHAR uni20EA
ENCODING 8426
SWIDTH 0 0
DWIDTH 0 0
BBX 9 3 -7 1
BITMAP
140000
7FFF40
140000
ENDCHAR
STARTCHAR uni20EB
ENCODING 8427
SWIDTH 0 0
DWIDTH 0 0
BBX 7 10 -6 -2
BITMAP
0088
0054
0120
0210
0540
0880
0540
2200
2100
5400
ENDCHAR
STARTCHAR uni20EC
ENCODING 8428
SWIDTH 0 0
DWIDTH 0 0
BBX 5 2 -5 -3
BITMAP
7F80
0100
ENDCHAR
STARTCHAR uni20ED
ENCODING 8429
SWIDTH 0 0
DWIDTH 0 0
BBX 5 2 -5 -3
BITMAP
7F80
1000
ENDCHAR
STARTCHAR uni20EE
ENCODING 8430
SWIDTH 0 0
DWIDTH 0 0
BBX 5 3 -5 -3
BITMAP
1000
7F80
1000
ENDCHAR
STARTCHAR uni20EF
ENCODING 8431
SWIDTH 0 0
DWIDTH 0 0
BBX 5 3 -5 -3
BITMAP
0100
7F80
0140
ENDCHAR
STARTCHAR uni20F0
ENCODING 8432
SWIDTH 0 0
DWIDTH 0 0
BBX 3 3 -4 5
BITMAP
54
68
54
ENDCHAR
STARTCHAR uni2100
ENCODING 8448
SWIDTH 939 0
DWIDTH 9 0
BBX 9 7 0 0
BITMAP
3C0500
590800
191000
551780
7A8880
014800
010B80
ENDCHAR
STARTCHAR uni2101
ENCODING 8449
SWIDTH 936 0
DWIDTH 9 0
BBX 9 7 0 0
BITMAP
3C0500
590800
191000
551B80
7A8400
014040
010B80
ENDCHAR
STARTCHAR uni2102
ENCODING 8450
SWIDTH 695 0
DWIDTH 7 0
BBX 7 7 0 0
BITMAP
1BD0
3424
6000
5000
6000
3424
1BD0
ENDCHAR
STARTCHAR uni2103
ENCODING 8451
SWIDTH 1028 0
DWIDTH 10 0
BBX 10 8 0 0
BITMAP
140000
5119A0
516020
189000
00C000
009000
006010
002A80
ENDCHAR
STARTCHAR uni2104
ENCODING 8452
SWIDTH 646 0
DWIDTH 6 0
BBX 6 7 0 0
BITMAP
1900
2E00
9C00
9C00
7E00
1C10
1960
ENDCHAR
STARTCHAR uni2105
ENCODING 8453
SWIDTH 953 0
DWIDTH 10 0
BBX 9 7 0 0
BITMAP
2D0800
551400
801000
504B80
3D5480
021480
040B40
ENDCHAR
STARTCHAR uni2106
ENCODING 8454
SWIDTH 1072 0
DWIDTH 11 0
BBX 11 7 0 0
BITMAP
2D0400
550400
802000
515560
2D4520
010520
0503A4
ENDCHAR
STARTCHAR uni2107
ENCODING 8455
SWIDTH 612 0
DWIDTH 6 0
BBX 6 7 0 0
BITMAP
2F50
7050
7000
2F00
A000
A060
2F80
ENDCHAR
STARTCHAR uni2108
ENCODING 8456
SWIDTH 669 0
DWIDTH 7 0
BBX 6 7 0 0
BITMAP
5B80
50A0
0430
07F0
0030
50A0
2F80
ENDCHAR
STARTCHAR uni2109
ENCODING 8457
SWIDTH 949 0
DWIDTH 9 0
BBX 10 8 0 0
BITMAP
140000
517590
513010
183040
003640
003000
003000
007400
ENDCHAR
STARTCHAR uni210A
ENCODING 8458
SWIDTH 657 0
DWIDTH 7 0
BBX 6 7 0 -3
BITMAP
02D0
0850
2480
A5D0
1D80
5240
7E00
ENDCHAR
STARTCHAR uni210B
ENCODING 8459
SWIDTH 951 0
DWIDTH 10 0
BBX 10 7 0 0
BITMAP
05C0A0
218210
214500
029800
020800
450D00
540A00
ENDCHAR
STARTCHAR uni210C
ENCODING 8460
SWIDTH 728 0
DWIDTH 7 0
BBX 6 10 1 -3
BITMAP
0440
2E00
5100
A6D0
74A0
2860
E060
5080
2D40
4400
ENDCHAR
STARTCHAR uni210D
ENCODING 8461
SWIDTH 715 0
DWIDTH 7 0
BBX 7 7 0 0
BITMAP
7474
5454
5454
5FD4
5454
5454
7474
ENDCHAR
STARTCHAR uni210E
ENCODING 8462
SWIDTH 569 0
DWIDTH 6 0
BBX 5 7 0 0
BITMAP
1800
1400
26C0
2980
3480
6140
5180
ENDCHAR
STARTCHAR uni210F
ENCODING 8463
SWIDTH 569 0
DWIDTH 6 0
BBX 5 7 0 0
BITMAP
1900
2900
66C0
2980
3480
6140
5180
ENDCHAR
STARTCHAR uni2110
ENCODING 8464
SWIDTH 496 0
DWIDTH 5 0
BBX 5 7 0 0
BITMAP
0B80
2540
2240
0200
0200
4900
B800
ENDCHAR
STARTCHAR uni2111
ENCODING 8465
SWIDTH 673 0
DWIDTH 7 0
BBX 6 7 0 -1
BITMAP
1E40
21E0
20B0
28C0
7860
1D70
0BD0
ENDCHAR
STARTCHAR uni2112
ENCODING 8466
SWIDTH 699 0
DWIDTH 7 0
BBX 6 7 0 0
BITMAP
02E0
0A60
0C00
0800
1400
6920
46D0
ENDCHAR
STARTCHAR uni2113
ENCODING 8467
SWIDTH 529 0
DWIDTH 5 0
BBX 5 7 0 0
BITMAP
02C0
0940
1800
2000
6000
6500
3800
ENDCHAR
STARTCHAR uni2114
ENCODING 8468
SWIDTH 787 0
DWIDTH 8 0
BBX 8 7 0 0
BITMAP
6240
BFF0
2278
2249
2245
3249
B9F8
ENDCHAR
STARTCHAR uni2115
ENCODING 8469
SWIDTH 692 0
DWIDTH 7 0
BBX 7 7 0 0
BITMAP
7414
5814
6614
4994
4264
4194
4074
ENDCHAR
STARTCHAR uni2116
ENCODING 8470
SWIDTH 1070 0
DWIDTH 11 0
BBX 11 7 0 0
BITMAP
2C0640
0E0540
0A45E0
05C654
046654
0424A0
A005A0
ENDCHAR
STARTCHAR uni2117
ENCODING 8471
SWIDTH 781 0
DWIDTH 8 0
BBX 8 7 0 0
BITMAP
0BE0
2FE8
5554
47C1
5604
2F58
0BE0
ENDCHAR
STARTCHAR uni2118
ENCODING 8472
SWIDTH 846 0
DWIDTH 8 0
BBX 8 8 0 -3
BITMAP
1500
206E
6293
6A03
199A
2278
2600
2C00
ENDCHAR
STARTCHAR uni2119
ENCODING 8473
SWIDTH 665 0
DWIDTH 7 0
BBX 7 7 0 0
BITMAP
7F90
5460
5454
5460
5F90
5400
7400
ENDCHAR
STARTCHAR uni211A
ENCODING 8474
SWIDTH 751 0
DWIDTH 8 0
BBX 7 8 0 -1
BITMAP
0BD0
3424
6018
5014
5014
2014
0290
002C
ENDCHAR
STARTCHAR uni211B
ENCODING 8475
SWIDTH 789 0
DWIDTH 8 0
BBX 7 7 0 0
BITMAP
07F4
299C
2248
0250
0250
4534
9414
ENDCHAR
STARTCHAR uni211C
ENCODING 8476
SWIDTH 778 0
DWIDTH 8 0
BBX 7 7 0 0
BITMAP
7DB0
9B28
6724
2760
1630
1534
7828
ENDCHAR
STARTCHAR uni211D
ENCODING 8477
SWIDTH 729 0
DWIDTH 7 0
BBX 7 7 0 0
BITMAP
7F90
5460
5454
5460
5FD0
5550
7478
ENDCHAR
STARTCHAR uni211E
ENCODING 8478
SWIDTH 725 0
DWIDTH 7 0
BBX 7 8 0 -1
BITMAP
BE80
24A0
2490
2F40
2684
24A0
BD78
0100
ENDCHAR
STARTCHAR uni211F
ENCODING 8479
SWIDTH 659 0
DWIDTH 7 0
BBX 7 11 0 -3
BITMAP
0540
0040
25D0
2690
2690
2B40
2A80
24E0
BD78
1000
1500
ENDCHAR
STARTCHAR uni2120
ENCODING 8480
SWIDTH 937 0
DWIDTH 9 0
BBX 9 5 0 2
BITMAP
05C1C0
48A240
646240
086940
7DD6C0
ENDCHAR
STARTCHAR uni2121
ENCODING 8481
SWIDTH 1200 0
DWIDTH 12 0
BBX 12 4 0 2
BITMAP
AAAA60
147C20
146121
2CBEBE
ENDCHAR
STARTCHAR trademark
ENCODING 8482
SWIDTH 881 0
DWIDTH 9 0
BBX 9 4 0 3
BITMAP
BED380
55A700
146A00
39D780
ENDCHAR
STARTCHAR uni2123
ENCODING 8483
SWIDTH 680 0
DWIDTH 7 0
BBX 7 11 0 -3
BITMAP
0540
0040
F8BC
7120
2510
1D40
0D80
1B00
1100
1400
1800
ENDCHAR
STARTCHAR uni2124
ENCODING 8484
SWIDTH 648 0
DWIDTH 6 0
BBX 7 7 0 0
BITMAP
7FF4
0160
0140
0540
1500
5400
BFF4
ENDCHAR
STARTCHAR uni2125
ENCODING 8485
SWIDTH 434 0
DWIDTH 4 0
BBX 4 9 0 -3
BITMAP
5A
14
7E
08
19
03
03
46
78
ENDCHAR
STARTCHAR uni2126
ENCODING 8486
SWIDTH 763 0
DWIDTH 8 0
BBX 8 7 0 0
BITMAP
1BE0
3828
701C
600C
3018
4851
BDBD
ENDCHAR
STARTCHAR uni2127
ENCODING 8487
SWIDTH 763 0
DWIDTH 8 0
BBX 8 7 0 0
BITMAP
BDBD
4851
3028
600C
701C
3428
1BE0
ENDCHAR
STARTCHAR uni2128
ENCODING 8488
SWIDTH 641 0
DWIDTH 6 0
BBX 6 9 0 -2
BITMAP
0B80
10A0
0060
0490
0780
04A0
7470
1C60
0B80
ENDCHAR
STARTCHAR uni2129
ENCODING 8489
SWIDTH 368 0
DWIDTH 4 0
BBX 3 6 0 -1
BITMAP
74
68
18
18
18
14
ENDCHAR
STARTCHAR uni212A
ENCODING 8490
SWIDTH 702 0
DWIDTH 7 0
BBX 7 7 0 0
BITMAP
78A4
2480
2600
2900
2640
24D0
78B4
ENDCHAR
STARTCHAR uni212B
ENCODING 8491
SWIDTH 722 0
DWIDTH 7 0
BBX 7 9 0 0
BITMAP
0740
0440
0200
0640
09C0
0490
2FE0
2034
F07C
ENDCHAR
STARTCHAR uni212C
ENCODING 8492
SWIDTH 754 0
DWIDTH 8 0
BBX 7 7 0 0
BITMAP
0BF8
264C
2254
03F4
0618
0414
7F90
ENDCHAR
STARTCHAR uni212D
ENCODING 8493
SWIDTH 639 0
DWIDTH 6 0
BBX 6 7 0 0
BITMAP
2E90
7290
6200
A240
6180
3B90
1F80
ENDCHAR
STARTCHAR estimated
ENCODING 8494
SWIDTH 863 0
DWIDTH 9 0
BBX 9 7 0 -1
BITMAP
0BE400
240900
600700
BFFF40
600000
240900
0BE400
ENDCHAR
STARTCHAR uni212F
ENCODING 8495
SWIDTH 527 0
DWIDTH 5 0
BBX 5 5 0 0
BITMAP
0B40
2940
3000
6140
2E00
ENDCHAR
STARTCHAR uni2130
ENCODING 8496
SWIDTH 572 0
DWIDTH 6 0
BBX 6 7 0 0
BITMAP
0BD0
1850
1800
1B00
6000
A180
6E40
ENDCHAR
STARTCHAR uni2131
ENCODING 8497
SWIDTH 713 0
DWIDTH 7 0
BBX 8 7 0 0
BITMAP
0BFD
2480
2080
0690
0240
4200
9400
ENDCHAR
STARTCHAR uni2132
ENCODING 8498
SWIDTH 588 0
DWIDTH 6 0
BBX 5 7 0 0
BITMAP
0280
0180
1180
3F80
0180
8180
A680
ENDCHAR
STARTCHAR uni2133
ENCODING 8499
SWIDTH 1038 0
DWIDTH 10 0
BBX 11 7 0 0
BITMAP
1F00B8
1382D4
02C980
05D980
04A240
48A250
E082C0
ENDCHAR
STARTCHAR uni2134
ENCODING 8500
SWIDTH 691 0
DWIDTH 7 0
BBX 8 5 -1 0
BITMAP
00B4
025E
0A18
5624
02D0
ENDCHAR
STARTCHAR uni2135
ENCODING 8501
SWIDTH 698 0
DWIDTH 7 0
BBX 7 7 0 0
BITMAP
5050
7434
2D24
6790
61D0
2434
7404
ENDCHAR
STARTCHAR uni2136
ENCODING 8502
SWIDTH 654 0
DWIDTH 7 0
BBX 5 7 1 0
BITMAP
4000
FE00
0240
0180
0140
0100
BF80
ENDCHAR
STARTCHAR uni2137
ENCODING 8503
SWIDTH 517 0
DWIDTH 5 0
BBX 5 7 0 0
BITMAP
2000
1E00
0200
0100
0200
0640
7880
ENDCHAR
STARTCHAR uni2138
ENCODING 8504
SWIDTH 613 0
DWIDTH 6 0
BBX 5 7 0 0
BITMAP
5000
7FC0
0080
0140
0180
0180
0180
ENDCHAR
STARTCHAR uni2139
ENCODING 8505
SWIDTH 361 0
DWIDTH 4 0
BBX 4 7 0 0
BITMAP
38
24
68
38
38
38
BD
ENDCHAR
STARTCHAR uni213A
ENCODING 8506
SWIDTH 907 0
DWIDTH 9 0
BBX 9 7 0 0
BITMAP
000040
1BE040
241980
400740
400500
241800
1BE000
ENDCHAR
STARTCHAR uni213B
ENCODING 8507
SWIDTH 1216 0
DWIDTH 12 0
BBX 12 4 0 2
BITMAP
6620A6
3D5828
21FD59
B68BDB
ENDCHAR
STARTCHAR uni213C
ENCODING 8508
SWIDTH 689 0
DWIDTH 7 0
BBX 7 5 0 0
BITMAP
BFF4
1540
1540
1544
39B0
ENDCHAR
STARTCHAR uni213D
ENCODING 8509
SWIDTH 552 0
DWIDTH 6 0
BBX 5 8 0 -3
BITMAP
1000
9480
2540
1600
0900
0640
0A40
0B00
ENDCHAR
STARTCHAR uni213E
ENCODING 8510
SWIDTH 550 0
DWIDTH 6 0
BBX 6 7 0 0
BITMAP
7FD0
5400
5400
5400
5400
5400
7400
ENDCHAR
STARTCHAR uni213F
ENCODING 8511
SWIDTH 714 0
DWIDTH 7 0
BBX 7 7 0 0
BITMAP
7FF4
5454
5454
5454
5454
5454
7474
ENDCHAR
STARTCHAR uni2140
ENCODING 8512
SWIDTH 945 0
DWIDTH 9 0
BBX 9 11 0 -3
BITMAP
7FFE00
220000
154000
088000
022000
022000
022000
088000
154000
220000
7FFFC0
ENDCHAR
STARTCHAR uni2141
ENCODING 8513
SWIDTH 711 0
DWIDTH 7 0
BBX 7 7 0 0
BITMAP
2F90
6074
6018
7808
0018
2074
1F90
ENDCHAR
STARTCHAR uni2142
ENCODING 8514
SWIDTH 572 0
DWIDTH 6 0
BBX 5 7 0 0
BITMAP
BFC0
00C0
00C0
00C0
00C0
00C0
0080
ENDCHAR
STARTCHAR uni2143
ENCODING 8515
SWIDTH 572 0
DWIDTH 6 0
BBX 5 7 0 0
BITMAP
00C0
00C0
00C0
00C0
00C0
00C0
BFC0
ENDCHAR
STARTCHAR uni2144
ENCODING 8516
SWIDTH 645 0
DWIDTH 6 0
BBX 6 7 0 0
BITMAP
0600
0600
0600
0B00
1980
2490
6020
ENDCHAR
STARTCHAR uni2145
ENCODING 8517
SWIDTH 717 0
DWIDTH 7 0
BBX 7 7 0 0
BITMAP
2FE0
2424
1418
5424
5454
50A0
BF80
ENDCHAR
STARTCHAR uni2146
ENCODING 8518
SWIDTH 607 0
DWIDTH 6 0
BBX 7 7 0 0
BITMAP
0074
0090
2E90
6550
9150
9250
7AC0
ENDCHAR
STARTCHAR uni2147
ENCODING 8519
SWIDTH 520 0
DWIDTH 5 0
BBX 5 5 0 0
BITMAP
1E00
6140
6F80
A140
2E00
ENDCHAR
STARTCHAR uni2148
ENCODING 8520
SWIDTH 285 0
DWIDTH 3 0
BBX 3 7 0 0
BITMAP
2C
28
34
54
50
60
A0
ENDCHAR
STARTCHAR uni2149
ENCODING 8521
SWIDTH 284 0
DWIDTH 3 0
BBX 5 9 -2 -2
BITMAP
02C0
0280
0340
0540
0900
0900
0900
1500
7400
ENDCHAR
STARTCHAR uni214A
ENCODING 8522
SWIDTH 680 0
DWIDTH 7 0
BBX 6 7 0 0
BITMAP
0800
BFD0
8820
4820
0BD0
0800
0BE0
ENDCHAR
STARTCHAR uni214B
ENCODING 8523
SWIDTH 736 0
DWIDTH 7 0
BBX 7 7 0 0
BITMAP
78B8
4B0C
0648
1490
7DE0
0220
02D0
ENDCHAR
STARTCHAR uni214C
ENCODING 8524
SWIDTH 794 0
DWIDTH 8 0
BBX 8 7 0 0
BITMAP
78B8
8D49
1F89
2968
1F94
0900
0B00
ENDCHAR
STARTCHAR uni214D
ENCODING 8525
SWIDTH 1010 0
DWIDTH 10 0
BBX 10 7 0 0
BITMAP
040100
180500
150800
7F12D0
939100
004010
0142E0
ENDCHAR
STARTCHAR uni214E
ENCODING 8526
SWIDTH 473 0
DWIDTH 5 0
BBX 4 6 0 0
BITMAP
01
02
02
3E
02
7E
ENDCHAR
STARTCHAR uni214F
ENCODING 8527
SWIDTH 1161 0
DWIDTH 12 0
BBX 12 5 0 0
BITMAP
1D38E0
225960
115550
1D28A0
BBEBAD
ENDCHAR
STARTCHAR onethird
ENCODING 8531
SWIDTH 899 0
DWIDTH 9 0
BBX 8 7 1 0
BITMAP
8050
8080
8158
8105
4418
1406
2065
ENDCHAR
STARTCHAR twothirds
ENCODING 8532
SWIDTH 948 0
DWIDTH 9 0
BBX 9 7 0 0
BITMAP
680400
081400
141640
694080
004240
020080
050940
ENDCHAR
STARTCHAR uni2155
ENCODING 8533
SWIDTH 867 0
DWIDTH 9 0
BBX 8 7 1 0
BITMAP
8050
8080
8168
8110
9468
1405
2054
ENDCHAR
STARTCHAR uni2156
ENCODING 8534
SWIDTH 916 0
DWIDTH 9 0
BBX 9 7 0 0
BITMAP
680400
081400
051640
694400
004A40
020080
050940
ENDCHAR
STARTCHAR uni2157
ENCODING 8535
SWIDTH 896 0
DWIDTH 9 0
BBX 9 7 0 0
BITMAP
680400
081000
181A40
058400
554A00
010080
040940
ENDCHAR
STARTCHAR uni2158
ENCODING 8536
SWIDTH 929 0
DWIDTH 9 0
BBX 9 7 0 0
BITMAP
080400
181400
6D2640
084400
044A40
010080
050940
ENDCHAR
STARTCHAR uni2159
ENCODING 8537
SWIDTH 871 0
DWIDTH 9 0
BBX 9 7 0 0
BITMAP
701400
202000
205100
205800
252600
052140
081600
ENDCHAR
STARTCHAR uni215A
ENCODING 8538
SWIDTH 871 0
DWIDTH 9 0
BBX 9 7 0 0
BITMAP
680400
642000
085500
045800
512600
052140
081600
ENDCHAR
STARTCHAR oneeighth
ENCODING 8539
SWIDTH 887 0
DWIDTH 9 0
BBX 9 7 0 0
BITMAP
601400
202000
205500
205540
251900
051640
081540
ENDCHAR
STARTCHAR threeeighths
ENCODING 8540
SWIDTH 911 0
DWIDTH 9 0
BBX 9 7 0 0
BITMAP
680400
081000
181500
059480
554940
010540
041540
ENDCHAR
STARTCHAR fiveeighths
ENCODING 8541
SWIDTH 891 0
DWIDTH 9 0
BBX 9 7 0 0
BITMAP
680400
642000
085500
045540
550900
051640
081540
ENDCHAR
STARTCHAR seveneighths
ENCODING 8542
SWIDTH 847 0
DWIDTH 8 0
BBX 8 7 0 0
BITMAP
A810
0450
1455
2122
011D
0826
1426
ENDCHAR
STARTCHAR uni2190
ENCODING 8592
SWIDTH 948 0
DWIDTH 9 0
BBX 8 3 1 1
BITMAP
1000
FFFE
1000
ENDCHAR
STARTCHAR uni2191
ENCODING 8593
SWIDTH 523 0
DWIDTH 5 0
BBX 4 9 1 -2
BITMAP
10
34
B8
21
20
20
20
20
20
ENDCHAR
STARTCHAR uni2192
ENCODING 8594
SWIDTH 948 0
DWIDTH 9 0
BBX 9 5 0 0
BITMAP
000400
000100
7FFF40
000500
000400
ENDCHAR
STARTCHAR uni2193
ENCODING 8595
SWIDTH 523 0
DWIDTH 5 0
BBX 4 9 1 -2
BITMAP
10
20
20
20
20
20
21
74
20
ENDCHAR
STARTCHAR uni2194
ENCODING 8596
SWIDTH 948 0
DWIDTH 9 0
BBX 9 5 0 0
BITMAP
040400
140100
7FFF80
140100
040400
ENDCHAR
STARTCHAR uni2195
ENCODING 8597
SWIDTH 523 0
DWIDTH 5 0
BBX 4 10 1 -2
BITMAP
20
78
65
20
20
20
20
20
74
20
ENDCHAR
STARTCHAR uni2196
ENCODING 8598
SWIDTH 948 0
DWIDTH 9 0
BBX 8 10 1 -2
BITMAP
4000
F800
D000
6400
0900
0240
0090
0024
0009
0001
ENDCHAR
STARTCHAR uni2197
ENCODING 8599
SWIDTH 948 0
DWIDTH 9 0
BBX 8 10 1 -2
BITMAP
0001
007E
000D
0021
0080
0240
0900
2400
9000
4000
ENDCHAR
STARTCHAR uni2198
ENCODING 8600
SWIDTH 948 0
DWIDTH 9 0
BBX 8 9 1 -3
BITMAP
8000
2000
0800
0100
0040
0011
0005
007E
0001
ENDCHAR
STARTCHAR uni2199
ENCODING 8601
SWIDTH 948 0
DWIDTH 9 0
BBX 8 9 1 -3
BITMAP
0005
0014
0050
0040
0100
4400
5000
F800
4000
ENDCHAR
STARTCHAR uni219A
ENCODING 8602
SWIDTH 948 0
DWIDTH 9 0
BBX 8 5 1 0
BITMAP
0010
5010
EAEA
1140
0100
ENDCHAR
STARTCHAR uni219B
ENCODING 8603
SWIDTH 948 0
DWIDTH 9 0
BBX 9 5 0 0
BITMAP
004400
008100
6BAB80
050500
040000
ENDCHAR
STARTCHAR uni219C
ENCODING 8604
SWIDTH 948 0
DWIDTH 9 0
BBX 8 4 1 1
BITMAP
5400
E0B8
5F86
4000
ENDCHAR
STARTCHAR uni219D
ENCODING 8605
SWIDTH 948 0
DWIDTH 9 0
BBX 8 4 1 1
BITMAP
0015
B91D
86E4
0004
ENDCHAR
STARTCHAR uni219E
ENCODING 8606
SWIDTH 948 0
DWIDTH 9 0
BBX 8 3 1 1
BITMAP
1100
FFFE
1200
ENDCHAR
STARTCHAR uni219F
ENCODING 8607
SWIDTH 523 0
DWIDTH 5 0
BBX 4 9 1 -2
BITMAP
10
34
68
20
78
21
20
20
20
ENDCHAR
STARTCHAR uni21A0
ENCODING 8608
SWIDTH 948 0
DWIDTH 9 0
BBX 9 5 0 0
BITMAP
004400
005500
7FFF40
005100
004400
ENDCHAR
STARTCHAR uni21A1
ENCODING 8609
SWIDTH 523 0
DWIDTH 5 0
BBX 4 9 1 -2
BITMAP
10
20
20
20
65
78
21
74
20
ENDCHAR
STARTCHAR uni21A2
ENCODING 8610
SWIDTH 948 0
DWIDTH 9 0
BBX 8 5 1 0
BITMAP
0001
1008
FFF8
1004
0001
ENDCHAR
STARTCHAR uni21A3
ENCODING 8611
SWIDTH 948 0
DWIDTH 9 0
BBX 8 5 1 0
BITMAP
0010
5014
7FFD
5004
0010
ENDCHAR
STARTCHAR uni21A4
ENCODING 8612
SWIDTH 948 0
DWIDTH 9 0
BBX 8 5 1 0
BITMAP
0001
1002
FFFE
1002
0001
ENDCHAR
STARTCHAR uni21A5
ENCODING 8613
SWIDTH 523 0
DWIDTH 5 0
BBX 5 9 0 -2
BITMAP
0400
0D00
1A00
0800
0800
0800
0800
0800
7F80
ENDCHAR
STARTCHAR uni21A6
ENCODING 8614
SWIDTH 948 0
DWIDTH 9 0
BBX 9 4 0 1
BITMAP
000400
500500
7FFF40
500500
ENDCHAR
STARTCHAR uni21A7
ENCODING 8615
SWIDTH 523 0
DWIDTH 5 0
BBX 5 9 0 -2
BITMAP
7F80
0800
0800
0800
0800
0800
1840
1E00
0800
ENDCHAR
STARTCHAR uni21A8
ENCODING 8616
SWIDTH 523 0
DWIDTH 5 0
BBX 5 9 0 -2
BITMAP
0400
0D00
1940
0800
0800
0800
1900
0D00
6A40
ENDCHAR
STARTCHAR uni21A9
ENCODING 8617
SWIDTH 948 0
DWIDTH 9 0
BBX 8 5 1 1
BITMAP
0028
0002
1002
FFF8
1000
ENDCHAR
STARTCHAR uni21AA
ENCODING 8618
SWIDTH 948 0
DWIDTH 9 0
BBX 9 6 0 0
BITMAP
2D0000
600400
600100
2FFF40
000500
000400
ENDCHAR
STARTCHAR uni21AB
ENCODING 8619
SWIDTH 948 0
DWIDTH 9 0
BBX 8 6 1 0
BITMAP
0028
0052
1082
FFF8
1080
0080
ENDCHAR
STARTCHAR uni21AC
ENCODING 8620
SWIDTH 948 0
DWIDTH 9 0
BBX 9 6 0 0
BITMAP
2D0000
620400
620100
2FFF40
020500
020000
ENDCHAR
STARTCHAR uni21AD
ENCODING 8621
SWIDTH 1229 0
DWIDTH 12 0
BBX 12 5 0 0
BITMAP
040010
142804
7E65BD
15D284
040010
ENDCHAR
STARTCHAR uni21AE
ENCODING 8622
SWIDTH 948 0
DWIDTH 9 0
BBX 9 4 0 1
BITMAP
041400
141200
7AAB80
148100
ENDCHAR
STARTCHAR uni21AF
ENCODING 8623
SWIDTH 523 0
DWIDTH 5 0
BBX 5 8 0 -2
BITMAP
0240
0900
1800
3F40
0200
4800
3400
2400
ENDCHAR
STARTCHAR uni21B0
ENCODING 8624
SWIDTH 474 0
DWIDTH 5 0
BBX 5 9 0 -2
BITMAP
0400
1400
7F40
1540
0540
0140
0140
0140
0140
ENDCHAR
STARTCHAR uni21B1
ENCODING 8625
SWIDTH 474 0
DWIDTH 5 0
BBX 5 8 0 -2
BITMAP
0400
BF40
8500
8000
8000
8000
8000
8000
ENDCHAR
STARTCHAR uni21B2
ENCODING 8626
SWIDTH 474 0
DWIDTH 5 0
BBX 5 9 0 -2
BITMAP
0140
0140
0140
0140
0540
1540
7F40
1400
0400
ENDCHAR
STARTCHAR uni21B3
ENCODING 8627
SWIDTH 474 0
DWIDTH 5 0
BBX 5 8 0 -1
BITMAP
8000
8000
8000
8000
8000
8400
BF40
0500
ENDCHAR
STARTCHAR uni21B4
ENCODING 8628
SWIDTH 948 0
DWIDTH 9 0
BBX 9 8 0 -1
BITMAP
7FFC00
000800
000800
000800
000800
000800
001940
000D00
ENDCHAR
STARTCHAR uni21B5
ENCODING 8629
SWIDTH 948 0
DWIDTH 9 0
BBX 8 8 1 -1
BITMAP
0002
0002
0002
0002
0002
1002
FFFE
1000
ENDCHAR
STARTCHAR uni21B6
ENCODING 8630
SWIDTH 948 0
DWIDTH 9 0
BBX 9 6 0 0
BITMAP
01B900
064640
080080
490080
2D0000
080000
ENDCHAR
STARTCHAR uni21B7
ENCODING 8631
SWIDTH 948 0
DWIDTH 9 0
BBX 9 6 0 0
BITMAP
0BE000
242800
600900
501540
000B00
000500
ENDCHAR
STARTCHAR uni21B8
ENCODING 8632
SWIDTH 948 0
DWIDTH 9 0
BBX 9 10 0 -2
BITMAP
7FFF80
7E0000
340000
190000
024000
009000
002400
000900
000240
000040
ENDCHAR
STARTCHAR uni21B9
ENCODING 8633
SWIDTH 948 0
DWIDTH 9 0
BBX 9 8 0 -2
BITMAP
410000
480000
6FFF80
450000
000480
7FFF80
000480
000040
ENDCHAR
STARTCHAR uni21BA
ENCODING 8634
SWIDTH 997 0
DWIDTH 10 0
BBX 8 8 1 -1
BITMAP
0464
2428
5015
8002
8002
9006
341C
0BE0
ENDCHAR
STARTCHAR uni21BB
ENCODING 8635
SWIDTH 997 0
DWIDTH 10 0
BBX 8 8 1 -1
BITMAP
1910
2818
5405
8002
8002
9006
3418
0BE0
ENDCHAR
STARTCHAR uni21BC
ENCODING 8636
SWIDTH 978 0
DWIDTH 10 0
BBX 9 3 1 2
BITMAP
040000
200000
BFFF40
ENDCHAR
STARTCHAR uni21BD
ENCODING 8637
SWIDTH 978 0
DWIDTH 10 0
BBX 9 3 1 0
BITMAP
BFFF40
200000
040000
ENDCHAR
STARTCHAR uni21BE
ENCODING 8638
SWIDTH 523 0
DWIDTH 5 0
BBX 2 8 2 -2
BITMAP
80
90
80
80
80
80
80
80
ENDCHAR
STARTCHAR uni21BF
ENCODING 8639
SWIDTH 523 0
DWIDTH 5 0
BBX 2 8 1 -2
BITMAP
20
70
20
20
20
20
20
20
ENDCHAR
STARTCHAR uni21C0
ENCODING 8640
SWIDTH 978 0
DWIDTH 10 0
BBX 9 3 0 2
BITMAP
000400
000200
7FFF80
ENDCHAR
STARTCHAR uni21C1
ENCODING 8641
SWIDTH 978 0
DWIDTH 10 0
BBX 9 3 0 0
BITMAP
7FFF80
000200
000400
ENDCHAR
STARTCHAR uni21C2
ENCODING 8642
SWIDTH 523 0
DWIDTH 5 0
BBX 2 9 2 -2
BITMAP
40
80
80
80
80
80
90
90
40
ENDCHAR
STARTCHAR uni21C3
ENCODING 8643
SWIDTH 523 0
DWIDTH 5 0
BBX 2 9 1 -2
BITMAP
10
20
20
20
20
20
60
30
10
ENDCHAR
STARTCHAR uni21C4
ENCODING 8644
SWIDTH 948 0
DWIDTH 9 0
BBX 8 7 1 -1
BITMAP
0010
0014
FFFD
0014
1000
FFFE
1000
ENDCHAR
STARTCHAR uni21C5
ENCODING 8645
SWIDTH 791 0
DWIDTH 8 0
BBX 6 9 1 -2
BITMAP
1040
7080
7880
2080
2080
2080
2080
21D0
2080
ENDCHAR
STARTCHAR uni21C6
ENCODING 8646
SWIDTH 948 0
DWIDTH 9 0
BBX 8 6 1 -1
BITMAP
1000
FFFE
1000
0014
FFFD
0014
ENDCHAR
STARTCHAR uni21C7
ENCODING 8647
SWIDTH 948 0
DWIDTH 9 0
BBX 8 6 1 -1
BITMAP
1000
FFFE
1000
1000
FFFE
1000
ENDCHAR
STARTCHAR uni21C8
ENCODING 8648
SWIDTH 791 0
DWIDTH 8 0
BBX 6 9 1 -2
BITMAP
1040
70D0
B5E0
2080
2080
2080
2080
2080
2080
ENDCHAR
STARTCHAR uni21C9
ENCODING 8649
SWIDTH 948 0
DWIDTH 9 0
BBX 9 7 0 -2
BITMAP
000500
7FFF40
000500
000500
7FFF40
000500
000400
ENDCHAR
STARTCHAR uni21CA
ENCODING 8650
SWIDTH 791 0
DWIDTH 8 0
BBX 6 9 1 -2
BITMAP
1040
2080
2080
2080
2080
2080
2080
B5D0
2080
ENDCHAR
STARTCHAR uni21CB
ENCODING 8651
SWIDTH 948 0
DWIDTH 9 0
BBX 9 5 0 0
BITMAP
040000
2FFF80
000000
7FFF40
000500
ENDCHAR
STARTCHAR uni21CC
ENCODING 8652
SWIDTH 948 0
DWIDTH 9 0
BBX 9 5 0 0
BITMAP
000500
7FFF40
000000
2FFF80
040000
ENDCHAR
STARTCHAR uni21CD
ENCODING 8653
SWIDTH 948 0
DWIDTH 9 0
BBX 8 7 1 -1
BITMAP
0100
0808
7FFE
C010
6FFE
0840
0040
ENDCHAR
STARTCHAR uni21CE
ENCODING 8654
SWIDTH 948 0
DWIDTH 9 0
BBX 9 6 0 -1
BITMAP
051400
1FFE00
A040C0
2FFF40
098800
004000
ENDCHAR
STARTCHAR uni21CF
ENCODING 8655
SWIDTH 948 0
DWIDTH 9 0
BBX 9 7 0 -1
BITMAP
001000
021400
7FFE00
040180
7FFE00
101400
100000
ENDCHAR
STARTCHAR uni21D0
ENCODING 8656
SWIDTH 887 0
DWIDTH 9 0
BBX 8 7 1 -1
BITMAP
0100
0800
7FFE
C000
7FFE
0800
0100
ENDCHAR
STARTCHAR uni21D1
ENCODING 8657
SWIDTH 720 0
DWIDTH 7 0
BBX 6 8 1 -1
BITMAP
0800
2200
7280
2210
2200
2200
2200
2200
ENDCHAR
STARTCHAR uni21D2
ENCODING 8658
SWIDTH 887 0
DWIDTH 9 0
BBX 8 7 0 -1
BITMAP
0040
0020
FFF8
0003
FFF9
0020
0040
ENDCHAR
STARTCHAR uni21D3
ENCODING 8659
SWIDTH 720 0
DWIDTH 7 0
BBX 7 9 0 -1
BITMAP
0440
0880
0880
0880
0880
5884
1CA0
0880
0340
ENDCHAR
STARTCHAR uni21D4
ENCODING 8660
SWIDTH 948 0
DWIDTH 9 0
BBX 9 5 0 0
BITMAP
050800
2FFF40
A000C0
2FFE40
050800
ENDCHAR
STARTCHAR uni21D5
ENCODING 8661
SWIDTH 720 0
DWIDTH 7 0
BBX 7 10 0 -2
BITMAP
0200
0580
1C90
1894
0880
0880
5884
1CA0
0880
0340
ENDCHAR
STARTCHAR uni21D6
ENCODING 8662
SWIDTH 948 0
DWIDTH 9 0
BBX 9 9 0 -1
BITMAP
540000
6FD000
520000
348000
292000
120800
008200
002080
000800
ENDCHAR
STARTCHAR uni21D7
ENCODING 8663
SWIDTH 948 0
DWIDTH 9 0
BBX 9 10 0 -2
BITMAP
000140
00BE80
001480
005280
014A40
052440
149000
624000
090000
040000
ENDCHAR
STARTCHAR uni21D8
ENCODING 8664
SWIDTH 948 0
DWIDTH 9 0
BBX 8 9 1 -2
BITMAP
2000
4800
9200
2480
0911
0146
0052
03FA
0015
ENDCHAR
STARTCHAR uni21D9
ENCODING 8665
SWIDTH 948 0
DWIDTH 9 0
BBX 9 9 0 -2
BITMAP
000500
001440
005240
014900
152400
248000
120000
6BD000
540000
ENDCHAR
STARTCHAR uni21DA
ENCODING 8666
SWIDTH 872 0
DWIDTH 9 0
BBX 9 7 0 -1
BITMAP
010000
07FF80
140000
7FFF80
140000
07FF80
010000
ENDCHAR
STARTCHAR uni21DB
ENCODING 8667
SWIDTH 872 0
DWIDTH 9 0
BBX 8 8 0 -1
BITMAP
0040
0010
FFF4
0009
FFFF
0009
FFF4
0010
ENDCHAR
STARTCHAR uni21DC
ENCODING 8668
SWIDTH 948 0
DWIDTH 9 0
BBX 8 3 1 1
BITMAP
5080
FE6A
5624
ENDCHAR
STARTCHAR uni21DD
ENCODING 8669
SWIDTH 948 0
DWIDTH 9 0
BBX 9 5 0 0
BITMAP
000400
014100
76AF80
086100
000400
ENDCHAR
STARTCHAR uni21DE
ENCODING 8670
SWIDTH 523 0
DWIDTH 5 0
BBX 5 9 0 -2
BITMAP
0800
1D00
0840
0800
7F80
7F80
0800
0800
0400
ENDCHAR
STARTCHAR uni21DF
ENCODING 8671
SWIDTH 523 0
DWIDTH 5 0
BBX 5 8 0 -2
BITMAP
0800
0800
7F80
7F80
0800
0840
1E00
0800
ENDCHAR
STARTCHAR uni21E0
ENCODING 8672
SWIDTH 948 0
DWIDTH 9 0
BBX 8 3 1 1
BITMAP
5000
FA76
5000
ENDCHAR
STARTCHAR uni21E1
ENCODING 8673
SWIDTH 523 0
DWIDTH 5 0
BBX 3 8 1 -1
BITMAP
34
68
10
20
00
20
00
20
ENDCHAR
STARTCHAR uni21E2
ENCODING 8674
SWIDTH 948 0
DWIDTH 9 0
BBX 9 5 0 0
BITMAP
000400
000100
69DF80
000100
000400
ENDCHAR
STARTCHAR uni21E3
ENCODING 8675
SWIDTH 523 0
DWIDTH 5 0
BBX 4 9 1 -2
BITMAP
20
00
20
00
20
10
61
74
10
ENDCHAR
STARTCHAR uni21E4
ENCODING 8676
SWIDTH 948 0
DWIDTH 9 0
BBX 9 4 0 1
BITMAP
410000
440000
6FFF80
440000
ENDCHAR
STARTCHAR uni21E5
ENCODING 8677
SWIDTH 948 0
DWIDTH 9 0
BBX 9 5 0 0
BITMAP
000040
000480
7FFF80
000480
000040
ENDCHAR
STARTCHAR uni21E6
ENCODING 8678
SWIDTH 948 0
DWIDTH 9 0
BBX 8 7 1 -1
BITMAP
0100
0A00
63FE
C002
63FE
0A00
0100
ENDCHAR
STARTCHAR uni21E7
ENCODING 8679
SWIDTH 720 0
DWIDTH 7 0
BBX 7 8 0 -2
BITMAP
0200
0440
1010
78B4
0880
0880
0880
0BC0
ENDCHAR
STARTCHAR uni21E8
ENCODING 8680
SWIDTH 948 0
DWIDTH 9 0
BBX 9 7 0 -1
BITMAP
001000
002400
7FD600
400180
7FD600
002400
001000
ENDCHAR
STARTCHAR uni21E9
ENCODING 8681
SWIDTH 720 0
DWIDTH 7 0
BBX 7 8 0 -1
BITMAP
0BC0
0880
0880
0880
78B4
1010
0440
0340
ENDCHAR
STARTCHAR uni21EA
ENCODING 8682
SWIDTH 720 0
DWIDTH 7 0
BBX 7 9 0 -2
BITMAP
0200
0440
1010
78B4
0880
0880
0BC0
0BC0
0BC0
ENDCHAR
STARTCHAR uni21F4
ENCODING 8692
SWIDTH 948 0
DWIDTH 9 0
BBX 9 3 0 1
BITMAP
07D500
7FFF40
07D500
ENDCHAR
STARTCHAR uni21F5
ENCODING 8693
SWIDTH 791 0
DWIDTH 8 0
BBX 8 9 0 -2
BITMAP
0410
0834
0868
0821
0820
0820
4820
2D20
0820
ENDCHAR
STARTCHAR uni21F6
ENCODING 8694
SWIDTH 948 0
DWIDTH 9 0
BBX 9 11 0 -3
BITMAP
000400
000100
7FFF80
000500
000500
7FFF80
000500
000500
7FFF80
000100
000400
ENDCHAR
STARTCHAR uni21F7
ENCODING 8695
SWIDTH 948 0
DWIDTH 9 0
BBX 8 5 1 0
BITMAP
0040
1080
FFFE
1080
0040
ENDCHAR
STARTCHAR uni21F8
ENCODING 8696
SWIDTH 948 0
DWIDTH 9 0
BBX 9 4 0 1
BITMAP
000400
014100
7FFF80
014500
ENDCHAR
STARTCHAR uni21F9
ENCODING 8697
SWIDTH 948 0
DWIDTH 9 0
BBX 9 5 0 0
BITMAP
044400
148100
7FFF80
148100
004000
ENDCHAR
STARTCHAR uni21FA
ENCODING 8698
SWIDTH 948 0
DWIDTH 9 0
BBX 8 5 1 0
BITMAP
0010
1160
FFFE
1160
0010
ENDCHAR
STARTCHAR uni21FB
ENCODING 8699
SWIDTH 948 0
DWIDTH 9 0
BBX 9 5 0 0
BITMAP
014400
018100
7FFF80
018100
014000
ENDCHAR
STARTCHAR uni21FC
ENCODING 8700
SWIDTH 948 0
DWIDTH 9 0
BBX 9 5 0 0
BITMAP
045400
156100
7FFF80
156100
001000
ENDCHAR
STARTCHAR uni21FD
ENCODING 8701
SWIDTH 948 0
DWIDTH 9 0
BBX 8 5 1 0
BITMAP
0400
2400
DFFE
2400
0400
ENDCHAR
STARTCHAR uni21FE
ENCODING 8702
SWIDTH 948 0
DWIDTH 9 0
BBX 9 5 0 0
BITMAP
000400
000900
7FF980
000900
000400
ENDCHAR
STARTCHAR uni21FF
ENCODING 8703
SWIDTH 948 0
DWIDTH 9 0
BBX 9 5 0 0
BITMAP
040400
180600
6BFD80
180600
040400
ENDCHAR
STARTCHAR uni2200
ENCODING 8704
SWIDTH 573 0
DWIDTH 6 0
BBX 6 7 0 0
BITMAP
4010
9090
7FC0
2180
1600
0A00
0900
ENDCHAR
STARTCHAR uni2201
ENCODING 8705
SWIDTH 474 0
DWIDTH 5 0
BBX 4 8 0 0
BITMAP
2E
52
51
50
50
51
52
2E
ENDCHAR
STARTCHAR partialdiff
ENCODING 8706
SWIDTH 478 0
DWIDTH 5 0
BBX 5 7 0 0
BITMAP
2D00
0200
2E40
5240
4140
5200
2D00
ENDCHAR
STARTCHAR uni2203
ENCODING 8707
SWIDTH 573 0
DWIDTH 6 0
BBX 5 7 0 0
BITMAP
7FC0
0080
0080
3FC0
0080
0080
7FC0
ENDCHAR
STARTCHAR uni2204
ENCODING 8708
SWIDTH 573 0
DWIDTH 6 0
BBX 5 9 0 -1
BITMAP
0140
7FC0
0280
0580
3FC0
0880
1480
7FC0
1000
ENDCHAR
STARTCHAR uni2205
ENCODING 8709
SWIDTH 780 0
DWIDTH 8 0
BBX 8 7 0 -1
BITMAP
0BD8
2424
6048
5105
5508
2828
27E0
ENDCHAR
STARTCHAR uni2206
ENCODING 8710
SWIDTH 748 0
DWIDTH 7 0
BBX 6 7 1 0
BITMAP
0800
0900
1300
1240
4080
4090
FFE0
ENDCHAR
STARTCHAR uni2207
ENCODING 8711
SWIDTH 748 0
DWIDTH 7 0
BBX 6 7 1 0
BITMAP
FFE0
8010
6040
3040
2500
0900
0900
ENDCHAR
STARTCHAR uni2208
ENCODING 8712
SWIDTH 720 0
DWIDTH 7 0
BBX 7 6 0 0
BITMAP
0BF4
2400
6000
7FF4
2000
0BF4
ENDCHAR
STARTCHAR uni2209
ENCODING 8713
SWIDTH 720 0
DWIDTH 7 0
BBX 7 9 0 -2
BITMAP
0020
0BF4
2480
6140
7FF4
2500
0FF4
1400
1000
ENDCHAR
STARTCHAR uni220A
ENCODING 8714
SWIDTH 497 0
DWIDTH 5 0
BBX 5 4 0 0
BITMAP
1F40
7F40
6000
1F40
ENDCHAR
STARTCHAR uni220B
ENCODING 8715
SWIDTH 720 0
DWIDTH 7 0
BBX 7 6 0 0
BITMAP
7F90
0030
0014
7FF4
0020
7F90
ENDCHAR
STARTCHAR uni220C
ENCODING 8716
SWIDTH 720 0
DWIDTH 7 0
BBX 7 9 0 -2
BITMAP
0020
7FD0
00B0
0164
7FF4
0520
7F90
1400
1000
ENDCHAR
STARTCHAR uni220D
ENCODING 8717
SWIDTH 497 0
DWIDTH 5 0
BBX 5 4 0 0
BITMAP
7D00
7F40
0240
7D00
ENDCHAR
STARTCHAR uni220E
ENCODING 8718
SWIDTH 558 0
DWIDTH 6 0
BBX 5 7 0 0
BITMAP
6A40
7FC0
7FC0
7FC0
7FC0
7FC0
7FC0
ENDCHAR
STARTCHAR uni220F
ENCODING 8719
SWIDTH 1135 0
DWIDTH 11 0
BBX 11 11 0 -3
BITMAP
6FAAF4
0D00D0
0900C0
0900C0
0900C0
0900C0
0900C0
0900C0
0900C0
0E01D0
7F87F8
ENDCHAR
STARTCHAR uni2210
ENCODING 8720
SWIDTH 1135 0
DWIDTH 11 0
BBX 10 11 1 -3
BITMAP
691A90
340340
240300
240300
240300
240300
240300
240300
240300
340340
AAAA90
ENDCHAR
STARTCHAR uni2211
ENCODING 8721
SWIDTH 936 0
DWIDTH 9 0
BBX 9 11 0 -2
BITMAP
7FFF40
280240
0A0140
034000
01C000
009000
018000
020000
080040
140240
7FFF00
ENDCHAR
STARTCHAR uni2212
ENCODING 8722
SWIDTH 720 0
DWIDTH 7 0
BBX 7 1 0 2
BITMAP
7FF8
ENDCHAR
STARTCHAR uni2213
ENCODING 8723
SWIDTH 720 0
DWIDTH 7 0
BBX 7 6 0 -1
BITMAP
7FF8
0100
0200
7FF8
0200
0200
ENDCHAR
STARTCHAR uni2214
ENCODING 8724
SWIDTH 720 0
DWIDTH 7 0
BBX 7 8 0 -1
BITMAP
0300
0100
0200
0200
7FF8
0200
0200
0100
ENDCHAR
STARTCHAR uni2215
ENCODING 8725
SWIDTH 535 0
DWIDTH 5 0
BBX 5 10 0 -2
BITMAP
0040
0180
0200
0200
0500
0800
1800
2400
2000
5000
ENDCHAR
STARTCHAR uni2216
ENCODING 8726
SWIDTH 535 0
DWIDTH 5 0
BBX 5 10 0 -2
BITMAP
4000
2000
2000
1400
0800
0800
0600
0200
0140
0080
ENDCHAR
STARTCHAR uni2217
ENCODING 8727
SWIDTH 536 0
DWIDTH 5 0
BBX 4 5 1 0
BITMAP
10
61
64
95
20
ENDCHAR
STARTCHAR uni2218
ENCODING 8728
SWIDTH 436 0
DWIDTH 4 0
BBX 4 4 0 1
BITMAP
2D
52
52
2D
ENDCHAR
STARTCHAR uni2219
ENCODING 8729
SWIDTH 457 0
DWIDTH 5 0
BBX 3 3 1 1
BITMAP
B4
F4
B4
ENDCHAR
STARTCHAR uni221A
ENCODING 8730
SWIDTH 794 0
DWIDTH 8 0
BBX 9 12 0 -3
BITMAP
000740
000800
000800
001400
001000
202000
642000
0C5000
098000
068000
038000
014000
ENDCHAR
STARTCHAR uni221B
ENCODING 8731
SWIDTH 794 0
DWIDTH 8 0
BBX 9 13 0 -3
BITMAP
140000
580740
180800
080800
681400
001000
202000
642000
0C5000
098000
068000
038000
014000
ENDCHAR
STARTCHAR uni221C
ENCODING 8732
SWIDTH 794 0
DWIDTH 8 0
BBX 9 13 0 -3
BITMAP
080000
180740
580800
6D0800
041400
001000
202000
642000
0C5000
098000
068000
038000
014000
ENDCHAR
STARTCHAR uni221D
ENCODING 8733
SWIDTH 720 0
DWIDTH 7 0
BBX 7 4 0 0
BITMAP
2E28
5290
51A0
2E28
ENDCHAR
STARTCHAR uni221E
ENCODING 8734
SWIDTH 953 0
DWIDTH 10 0
BBX 9 4 0 0
BITMAP
1E1E40
21D180
60B480
2E1E00
ENDCHAR
STARTCHAR uni221F
ENCODING 8735
SWIDTH 720 0
DWIDTH 7 0
BBX 7 6 0 0
BITMAP
5000
5000
5000
5000
5000
7FF8
ENDCHAR
STARTCHAR uni2220
ENCODING 8736
SWIDTH 720 0
DWIDTH 7 0
BBX 6 6 1 0
BITMAP
0050
0180
0600
1800
6000
FFE0
ENDCHAR
STARTCHAR uni2221
ENCODING 8737
SWIDTH 720 0
DWIDTH 7 0
BBX 7 7 0 -1
BITMAP
0014
0160
02C0
0690
1820
7FF8
0010
ENDCHAR
STARTCHAR uni2222
ENCODING 8738
SWIDTH 720 0
DWIDTH 7 0
BBX 6 5 1 0
BITMAP
0190
1980
A080
1A80
0190
ENDCHAR
STARTCHAR uni2223
ENCODING 8739
SWIDTH 272 0
DWIDTH 3 0
BBX 1 9 1 -2
BITMAP
80
80
80
80
80
80
80
80
80
ENDCHAR
STARTCHAR uni2224
ENCODING 8740
SWIDTH 413 0
DWIDTH 4 0
BBX 4 9 0 -2
BITMAP
14
14
14
15
29
54
14
14
14
ENDCHAR
STARTCHAR uni2225
ENCODING 8741
SWIDTH 535 0
DWIDTH 5 0
BBX 3 9 1 -2
BITMAP
88
88
88
88
88
88
88
88
88
ENDCHAR
STARTCHAR uni2226
ENCODING 8742
SWIDTH 623 0
DWIDTH 6 0
BBX 6 9 0 -2
BITMAP
1540
1540
1540
15A0
1A40
6540
1540
1540
1540
ENDCHAR
STARTCHAR uni2227
ENCODING 8743
SWIDTH 636 0
DWIDTH 6 0
BBX 6 6 0 0
BITMAP
0100
0A00
0940
2480
2050
5020
ENDCHAR
STARTCHAR uni2228
ENCODING 8744
SWIDTH 636 0
DWIDTH 6 0
BBX 6 6 0 0
BITMAP
5020
2050
2480
0940
0A00
0100
ENDCHAR
STARTCHAR uni2229
ENCODING 8745
SWIDTH 636 0
DWIDTH 6 0
BBX 6 6 0 0
BITMAP
1F80
60A0
5020
9020
9020
5020
ENDCHAR
STARTCHAR uni222A
ENCODING 8746
SWIDTH 636 0
DWIDTH 6 0
BBX 6 6 0 0
BITMAP
9020
9020
9020
5020
60A0
1F80
ENDCHAR
STARTCHAR uni222B
ENCODING 8747
SWIDTH 684 0
DWIDTH 7 0
BBX 7 10 0 -3
BITMAP
0054
0094
0240
0300
0300
0600
0600
0900
9800
5000
ENDCHAR
STARTCHAR uni222C
ENCODING 8748
SWIDTH 1016 0
DWIDTH 10 0
BBX 10 10 0 -3
BITMAP
005450
009620
024600
030900
030900
060C00
060C00
091800
996000
505000
ENDCHAR
STARTCHAR uni222D
ENCODING 8749
SWIDTH 1348 0
DWIDTH 13 0
BBX 13 10 0 -3
BITMAP
00545140
00962580
02460C00
03091800
03091800
060C2400
060C2000
09182000
99625000
50514000
ENDCHAR
STARTCHAR uni222E
ENCODING 8750
SWIDTH 684 0
DWIDTH 7 0
BBX 7 10 0 -3
BITMAP
0054
0194
0640
1350
1710
1650
0A40
0800
9800
5000
ENDCHAR
STARTCHAR uni222F
ENCODING 8751
SWIDTH 1016 0
DWIDTH 10 0
BBX 10 10 0 -3
BITMAP
005450
009620
029A00
130A40
170D40
2A0D80
0A6D00
081400
996000
505000
ENDCHAR
STARTCHAR uni2230
ENCODING 8752
SWIDTH 1348 0
DWIDTH 13 0
BBX 13 10 0 -3
BITMAP
00545140
00962980
029A5C00
03091900
170D2840
2A0C2640
0A6D7800
08142000
99625000
50514000
ENDCHAR
STARTCHAR uni2231
ENCODING 8753
SWIDTH 684 0
DWIDTH 7 0
BBX 7 10 0 -3
BITMAP
0054
0094
0240
0340
0750
1620
0600
0900
5800
5000
ENDCHAR
STARTCHAR uni2232
ENCODING 8754
SWIDTH 684 0
DWIDTH 7 0
BBX 7 10 0 -3
BITMAP
0054
0094
0680
2250
1320
1610
2650
0A40
5800
5000
ENDCHAR
STARTCHAR uni2233
ENCODING 8755
SWIDTH 684 0
DWIDTH 7 0
BBX 7 10 0 -3
BITMAP
0054
0194
0680
1360
1310
1650
0A40
0800
9800
5000
ENDCHAR
STARTCHAR uni2234
ENCODING 8756
SWIDTH 635 0
DWIDTH 6 0
BBX 6 5 0 0
BITMAP
0600
0000
0000
0000
6060
ENDCHAR
STARTCHAR uni2235
ENCODING 8757
SWIDTH 635 0
DWIDTH 6 0
BBX 6 5 0 0
BITMAP
6060
0000
0000
0000
0600
ENDCHAR
STARTCHAR uni2236
ENCODING 8758
SWIDTH 523 0
DWIDTH 5 0
BBX 1 5 2 0
BITMAP
C0
00
00
00
C0
ENDCHAR
STARTCHAR uni2237
ENCODING 8759
SWIDTH 720 0
DWIDTH 7 0
BBX 5 5 1 0
BITMAP
C0C0
0000
0000
0000
C0C0
ENDCHAR
STARTCHAR uni2238
ENCODING 8760
SWIDTH 720 0
DWIDTH 7 0
BBX 7 3 0 2
BITMAP
0300
0000
7FF8
ENDCHAR
STARTCHAR uni2239
ENCODING 8761
SWIDTH 720 0
DWIDTH 7 0
BBX 7 5 0 0
BITMAP
0024
0000
7F80
0000
0024
ENDCHAR
STARTCHAR uni223A
ENCODING 8762
SWIDTH 720 0
DWIDTH 7 0
BBX 7 5 0 0
BITMAP
6024
0000
7FF8
0000
6024
ENDCHAR
STARTCHAR uni223B
ENCODING 8763
SWIDTH 720 0
DWIDTH 7 0
BBX 7 5 0 0
BITMAP
0240
2D04
1754
40A0
0240
ENDCHAR
STARTCHAR uni223C
ENCODING 8764
SWIDTH 720 0
DWIDTH 7 0
BBX 7 2 0 1
BITMAP
2E44
51E0
ENDCHAR
STARTCHAR uni223D
ENCODING 8765
SWIDTH 720 0
DWIDTH 7 0
BBX 7 2 0 1
BITMAP
51E0
2E44
ENDCHAR
STARTCHAR uni223E
ENCODING 8766
SWIDTH 720 0
DWIDTH 7 0
BBX 7 3 0 1
BITMAP
2D24
5244
20B4
ENDCHAR
STARTCHAR uni223F
ENCODING 8767
SWIDTH 720 0
DWIDTH 7 0
BBX 7 5 0 0
BITMAP
2D00
6600
4204
0254
00E0
ENDCHAR
STARTCHAR uni2240
ENCODING 8768
SWIDTH 293 0
DWIDTH 3 0
BBX 3 6 0 0
BITMAP
60
14
20
60
50
14
ENDCHAR
STARTCHAR uni2241
ENCODING 8769
SWIDTH 720 0
DWIDTH 7 0
BBX 7 4 0 0
BITMAP
0040
2D44
52A0
0400
ENDCHAR
STARTCHAR uni2242
ENCODING 8770
SWIDTH 720 0
DWIDTH 7 0
BBX 7 4 0 1
BITMAP
7FF8
0000
2E44
51E0
ENDCHAR
STARTCHAR uni2243
ENCODING 8771
SWIDTH 720 0
DWIDTH 7 0
BBX 7 4 0 0
BITMAP
2E04
5190
0000
7FF8
ENDCHAR
STARTCHAR uni2244
ENCODING 8772
SWIDTH 720 0
DWIDTH 7 0
BBX 7 6 0 -1
BITMAP
0080
2944
42A0
0100
7FF8
0400
ENDCHAR
STARTCHAR uni2245
ENCODING 8773
SWIDTH 720 0
DWIDTH 7 0
BBX 7 6 0 0
BITMAP
2904
1744
40A0
7FF8
0000
7FF8
ENDCHAR
STARTCHAR uni2246
ENCODING 8774
SWIDTH 720 0
DWIDTH 7 0
BBX 7 8 0 -1
BITMAP
2904
1744
40A0
0040
7FF8
0200
7FF8
0400
ENDCHAR
STARTCHAR uni2247
ENCODING 8775
SWIDTH 720 0
DWIDTH 7 0
BBX 7 9 0 -2
BITMAP
0010
2D44
51E0
0140
7FF8
0100
7FF8
0800
1400
ENDCHAR
STARTCHAR uni2248
ENCODING 8776
SWIDTH 720 0
DWIDTH 7 0
BBX 7 5 0 0
BITMAP
2D04
5250
4040
2E44
51E0
ENDCHAR
STARTCHAR uni2249
ENCODING 8777
SWIDTH 720 0
DWIDTH 7 0
BBX 7 7 0 -1
BITMAP
0040
2D84
1794
42A0
2E04
55E0
0400
ENDCHAR
STARTCHAR uni224A
ENCODING 8778
SWIDTH 720 0
DWIDTH 7 0
BBX 7 6 0 -1
BITMAP
2E04
4150
2904
5100
0000
7FF8
ENDCHAR
STARTCHAR uni224B
ENCODING 8779
SWIDTH 720 0
DWIDTH 7 0
BBX 7 6 0 0
BITMAP
2E44
52F0
2E44
52F0
2E44
52F0
ENDCHAR
STARTCHAR uni224C
ENCODING 8780
SWIDTH 720 0
DWIDTH 7 0
BBX 7 6 0 0
BITMAP
40A0
1344
1904
7FF8
0000
7FF8
ENDCHAR
STARTCHAR uni224D
ENCODING 8781
SWIDTH 720 0
DWIDTH 7 0
BBX 6 5 1 0
BITMAP
8050
6F40
0000
6E40
8050
ENDCHAR
STARTCHAR uni224E
ENCODING 8782
SWIDTH 720 0
DWIDTH 7 0
BBX 7 5 0 0
BITMAP
0780
7CB8
0000
7CB8
0780
ENDCHAR
STARTCHAR uni224F
ENCODING 8783
SWIDTH 720 0
DWIDTH 7 0
BBX 7 4 0 1
BITMAP
0780
78B8
0000
7FF8
ENDCHAR
STARTCHAR uni2250
ENCODING 8784
SWIDTH 720 0
DWIDTH 7 0
BBX 7 5 0 1
BITMAP
0300
0000
7FF8
0000
7FF8
ENDCHAR
STARTCHAR uni2251
ENCODING 8785
SWIDTH 720 0
DWIDTH 7 0
BBX 7 7 0 -1
BITMAP
0300
0000
7FF8
0000
7FF8
0000
0300
ENDCHAR
STARTCHAR uni2252
ENCODING 8786
SWIDTH 720 0
DWIDTH 7 0
BBX 7 7 0 -1
BITMAP
6000
0000
7FF8
0000
7FF8
0000
0024
ENDCHAR
STARTCHAR uni2253
ENCODING 8787
SWIDTH 720 0
DWIDTH 7 0
BBX 7 7 0 -1
BITMAP
0024
0000
7FF8
0000
7FF8
0000
6000
ENDCHAR
STARTCHAR uni2254
ENCODING 8788
SWIDTH 844 0
DWIDTH 8 0
BBX 8 3 0 1
BITMAP
67FE
0000
67FE
ENDCHAR
STARTCHAR uni2255
ENCODING 8789
SWIDTH 844 0
DWIDTH 8 0
BBX 8 3 0 1
BITMAP
7FE6
0000
7FE6
ENDCHAR
STARTCHAR uni2256
ENCODING 8790
SWIDTH 720 0
DWIDTH 7 0
BBX 7 4 0 1
BITMAP
6BA4
0580
0580
6AA4
ENDCHAR
STARTCHAR uni2257
ENCODING 8791
SWIDTH 720 0
DWIDTH 7 0
BBX 7 7 0 1
BITMAP
0740
0880
0740
0000
7FF8
0000
7FF8
ENDCHAR
STARTCHAR uni2258
ENCODING 8792
SWIDTH 720 0
DWIDTH 7 0
BBX 7 6 0 1
BITMAP
0B90
1010
0000
7FF8
0000
7FF8
ENDCHAR
STARTCHAR uni2259
ENCODING 8793
SWIDTH 720 0
DWIDTH 7 0
BBX 7 7 0 1
BITMAP
0200
0580
0850
1010
7FF8
0000
7FF8
ENDCHAR
STARTCHAR uni225A
ENCODING 8794
SWIDTH 720 0
DWIDTH 7 0
BBX 7 8 0 1
BITMAP
1010
0880
0580
0200
0000
7FF8
0000
7FF8
ENDCHAR
STARTCHAR uni225B
ENCODING 8795
SWIDTH 720 0
DWIDTH 7 0
BBX 7 7 0 1
BITMAP
0100
0780
0740
0000
7FF8
0000
7FF8
ENDCHAR
STARTCHAR uni225C
ENCODING 8796
SWIDTH 720 0
DWIDTH 7 0
BBX 7 8 0 1
BITMAP
0200
0680
0880
1FE0
0000
7FF8
0000
7FF8
ENDCHAR
STARTCHAR uni225D
ENCODING 8797
SWIDTH 720 0
DWIDTH 7 0
BBX 7 8 0 1
BITMAP
0408
0414
5690
9520
A6B4
7FF8
0000
7FF8
ENDCHAR
STARTCHAR uni225E
ENCODING 8798
SWIDTH 720 0
DWIDTH 7 0
BBX 7 6 0 1
BITMAP
0650
0510
1BA0
7FF8
0000
7FF8
ENDCHAR
STARTCHAR uni225F
ENCODING 8799
SWIDTH 720 0
DWIDTH 7 0
BBX 7 8 0 1
BITMAP
0740
0980
0140
0100
0200
7FF8
0000
7FF8
ENDCHAR
STARTCHAR uni2260
ENCODING 8800
SWIDTH 720 0
DWIDTH 7 0
BBX 7 9 0 -2
BITMAP
0010
0050
0080
7FF8
0200
7FF8
0400
0800
1400
ENDCHAR
STARTCHAR uni2261
ENCODING 8801
SWIDTH 720 0
DWIDTH 7 0
BBX 7 5 0 0
BITMAP
7FF8
0000
7FF8
0000
7FF8
ENDCHAR
STARTCHAR uni2262
ENCODING 8802
SWIDTH 720 0
DWIDTH 7 0
BBX 7 9 0 -2
BITMAP
0010
0050
7FF8
0140
7FF8
0100
7FF8
0800
1400
ENDCHAR
STARTCHAR uni2263
ENCODING 8803
SWIDTH 720 0
DWIDTH 7 0
BBX 7 6 0 -1
BITMAP
7FF8
0000
7FF8
7FF8
0000
7FF8
ENDCHAR
STARTCHAR uni2264
ENCODING 8804
SWIDTH 720 0
DWIDTH 7 0
BBX 7 8 0 -1
BITMAP
0004
00A0
0A00
2800
0640
0064
0000
7FF4
ENDCHAR
STARTCHAR uni2265
ENCODING 8805
SWIDTH 720 0
DWIDTH 7 0
BBX 7 7 0 -1
BITMAP
2900
0290
0074
0640
2400
0000
7FF4
ENDCHAR
STARTCHAR uni2266
ENCODING 8806
SWIDTH 720 0
DWIDTH 7 0
BBX 7 10 0 -2
BITMAP
0014
0190
1900
2800
0290
0014
0000
7FF4
0000
7FF4
ENDCHAR
STARTCHAR uni2267
ENCODING 8807
SWIDTH 720 0
DWIDTH 7 0
BBX 7 10 0 -2
BITMAP
5000
1900
0190
00A0
0A00
6000
0000
7FF4
0000
7FF4
ENDCHAR
STARTCHAR uni2268
ENCODING 8808
SWIDTH 720 0
DWIDTH 7 0
BBX 7 11 0 -3
BITMAP
0014
0190
1900
2800
0280
0014
0040
7FF4
0200
7FF4
0400
ENDCHAR
STARTCHAR uni2269
ENCODING 8809
SWIDTH 720 0
DWIDTH 7 0
BBX 7 11 0 -3
BITMAP
5000
1900
0190
00A0
0A00
6000
0040
7FF4
0200
7FF4
0400
ENDCHAR
STARTCHAR uni226A
ENCODING 8810
SWIDTH 955 0
DWIDTH 10 0
BBX 9 6 0 0
BITMAP
001000
019280
196800
74D000
0A5900
00A180
ENDCHAR
STARTCHAR uni226B
ENCODING 8811
SWIDTH 955 0
DWIDTH 10 0
BBX 9 6 0 0
BITMAP
400000
659000
065A00
00A280
065900
659000
ENDCHAR
STARTCHAR uni226C
ENCODING 8812
SWIDTH 477 0
DWIDTH 5 0
BBX 3 9 1 -2
BITMAP
54
20
94
88
88
88
64
20
44
ENDCHAR
STARTCHAR uni226D
ENCODING 8813
SWIDTH 720 0
DWIDTH 7 0
BBX 7 7 0 -1
BITMAP
0040
5094
1B90
0200
0BD0
2814
0800
ENDCHAR
STARTCHAR uni226E
ENCODING 8814
SWIDTH 720 0
DWIDTH 7 0
BBX 6 9 1 -2
BITMAP
0040
0140
0290
0A00
A800
6800
1640
2050
5000
ENDCHAR
STARTCHAR uni226F
ENCODING 8815
SWIDTH 720 0
DWIDTH 7 0
BBX 6 9 0 -2
BITMAP
0010
0050
6480
0640
0260
0290
1900
5800
1400
ENDCHAR
STARTCHAR uni2270
ENCODING 8816
SWIDTH 720 0
DWIDTH 7 0
BBX 7 11 0 -3
BITMAP
0010
0050
00A4
0680
2900
0740
0164
0800
7FF4
1400
1000
ENDCHAR
STARTCHAR uni2271
ENCODING 8817
SWIDTH 720 0
DWIDTH 7 0
BBX 7 11 0 -3
BITMAP
0010
0040
2480
0680
0170
0640
2900
0800
7FF4
1400
1000
ENDCHAR
STARTCHAR uni2272
ENCODING 8818
SWIDTH 720 0
DWIDTH 7 0
BBX 7 8 0 -2
BITMAP
0064
0640
2800
0A40
0060
0000
2E44
51E0
ENDCHAR
STARTCHAR uni2273
ENCODING 8819
SWIDTH 720 0
DWIDTH 7 0
BBX 7 8 0 -2
BITMAP
2400
0640
0074
0280
2800
0000
2E44
51E0
ENDCHAR
STARTCHAR uni2274
ENCODING 8820
SWIDTH 720 0
DWIDTH 7 0
BBX 7 10 0 -3
BITMAP
0080
00A4
0680
2900
0B40
0260
0500
2E04
59E0
0400
ENDCHAR
STARTCHAR uni2275
ENCODING 8821
SWIDTH 720 0
DWIDTH 7 0
BBX 7 10 0 -3
BITMAP
0080
2440
0680
0274
0380
2900
0800
2E04
59E0
1400
ENDCHAR
STARTCHAR uni2276
ENCODING 8822
SWIDTH 720 0
DWIDTH 7 0
BBX 7 9 0 -2
BITMAP
0064
0640
2800
0290
6414
0640
0070
0640
6400
ENDCHAR
STARTCHAR uni2277
ENCODING 8823
SWIDTH 720 0
DWIDTH 7 0
BBX 7 9 0 -2
BITMAP
2400
0680
0060
0A40
6024
0680
2800
0640
0064
ENDCHAR
STARTCHAR uni2278
ENCODING 8824
SWIDTH 720 0
DWIDTH 7 0
BBX 7 10 0 -3
BITMAP
0084
01A4
1940
1A40
02A4
2A04
0290
02A4
1900
5800
ENDCHAR
STARTCHAR uni2279
ENCODING 8825
SWIDTH 720 0
DWIDTH 7 0
BBX 6 10 1 -3
BITMAP
0200
A600
0640
0640
A800
0990
6800
A800
1680
2010
ENDCHAR
STARTCHAR uni227A
ENCODING 8826
SWIDTH 720 0
DWIDTH 7 0
BBX 7 5 0 0
BITMAP
0024
0590
7E00
0190
0014
ENDCHAR
STARTCHAR uni227B
ENCODING 8827
SWIDTH 720 0
DWIDTH 7 0
BBX 6 5 1 0
BITMAP
8000
2900
0BD0
6400
8000
ENDCHAR
STARTCHAR uni227C
ENCODING 8828
SWIDTH 720 0
DWIDTH 7 0
BBX 7 7 0 -1
BITMAP
0024
0690
6E00
0190
7914
06D0
0024
ENDCHAR
STARTCHAR uni227D
ENCODING 8829
SWIDTH 720 0
DWIDTH 7 0
BBX 6 7 1 -1
BITMAP
8000
2940
0B90
6400
86D0
6900
8000
ENDCHAR
STARTCHAR uni227E
ENCODING 8830
SWIDTH 720 0
DWIDTH 7 0
BBX 7 8 0 -2
BITMAP
0014
0190
7E00
0690
0024
0000
2E44
51E0
ENDCHAR
STARTCHAR uni227F
ENCODING 8831
SWIDTH 720 0
DWIDTH 7 0
BBX 7 8 0 -2
BITMAP
2000
1900
02F4
0A40
2000
0000
2E44
51E0
ENDCHAR
STARTCHAR uni2280
ENCODING 8832
SWIDTH 720 0
DWIDTH 7 0
BBX 6 9 1 -2
BITMAP
0040
0080
0150
0680
B900
5A00
0890
1410
2000
ENDCHAR
STARTCHAR uni2281
ENCODING 8833
SWIDTH 720 0
DWIDTH 7 0
BBX 7 9 0 -2
BITMAP
0040
0080
5140
1A00
06E4
0A50
2800
1400
2000
ENDCHAR
STARTCHAR uni2282
ENCODING 8834
SWIDTH 720 0
DWIDTH 7 0
BBX 7 6 0 0
BITMAP
0BF4
2400
6000
6000
2400
0BF4
ENDCHAR
STARTCHAR uni2283
ENCODING 8835
SWIDTH 720 0
DWIDTH 7 0
BBX 7 6 0 0
BITMAP
7F90
0020
0014
0014
0020
7F90
ENDCHAR
STARTCHAR uni2284
ENCODING 8836
SWIDTH 720 0
DWIDTH 7 0
BBX 7 8 0 -1
BITMAP
0010
0BF4
2480
6140
6200
2500
0FF4
0400
ENDCHAR
STARTCHAR uni2285
ENCODING 8837
SWIDTH 720 0
DWIDTH 7 0
BBX 7 9 0 -2
BITMAP
0050
7FD0
00A0
0114
0114
0470
7F90
1400
1000
ENDCHAR
STARTCHAR uni2286
ENCODING 8838
SWIDTH 720 0
DWIDTH 7 0
BBX 7 7 0 -1
BITMAP
0BF4
2400
6000
6000
2400
0BF4
3FF4
ENDCHAR
STARTCHAR uni2287
ENCODING 8839
SWIDTH 720 0
DWIDTH 7 0
BBX 7 7 0 -1
BITMAP
7F90
0020
0014
0014
0020
7F90
7FF4
ENDCHAR
STARTCHAR uni2288
ENCODING 8840
SWIDTH 720 0
DWIDTH 7 0
BBX 7 10 0 -2
BITMAP
0010
0010
0BF4
2480
6040
2100
2600
0BF4
3FF4
0400
ENDCHAR
STARTCHAR uni2289
ENCODING 8841
SWIDTH 720 0
DWIDTH 7 0
BBX 7 11 0 -3
BITMAP
0010
0010
7FD0
00A0
0154
0114
0230
7F90
7FF4
1400
1000
ENDCHAR
STARTCHAR uni228A
ENCODING 8842
SWIDTH 720 0
DWIDTH 7 0
BBX 7 9 0 -2
BITMAP
0AA4
2000
6000
6000
2400
0AA4
0140
2BA4
0400
ENDCHAR
STARTCHAR uni228B
ENCODING 8843
SWIDTH 720 0
DWIDTH 7 0
BBX 7 9 0 -2
BITMAP
6A90
0020
0014
0014
0020
6A90
0140
6BA4
0500
ENDCHAR
STARTCHAR uni228C
ENCODING 8844
SWIDTH 636 0
DWIDTH 6 0
BBX 6 6 0 0
BITMAP
9020
9120
9F60
5120
60A0
1F80
ENDCHAR
STARTCHAR uni228D
ENCODING 8845
SWIDTH 636 0
DWIDTH 6 0
BBX 6 6 0 0
BITMAP
9020
9020
9620
5020
60A0
1F80
ENDCHAR
STARTCHAR uni228E
ENCODING 8846
SWIDTH 636 0
DWIDTH 6 0
BBX 6 6 0 0
BITMAP
9020
9620
9FA0
5620
60A0
1F80
ENDCHAR
STARTCHAR uni228F
ENCODING 8847
SWIDTH 720 0
DWIDTH 7 0
BBX 7 6 0 0
BITMAP
7FF4
5000
5000
5000
5000
7FF4
ENDCHAR
STARTCHAR uni2290
ENCODING 8848
SWIDTH 720 0
DWIDTH 7 0
BBX 7 6 0 0
BITMAP
7FF4
0014
0014
0014
0014
7FF4
ENDCHAR
STARTCHAR uni2291
ENCODING 8849
SWIDTH 720 0
DWIDTH 7 0
BBX 7 7 0 -1
BITMAP
7FF4
5000
5000
5000
5000
7FF4
7FF4
ENDCHAR
STARTCHAR uni2292
ENCODING 8850
SWIDTH 720 0
DWIDTH 7 0
BBX 7 7 0 -1
BITMAP
7FF4
0014
0014
0014
0014
7FF4
7FF4
ENDCHAR
STARTCHAR uni2293
ENCODING 8851
SWIDTH 635 0
DWIDTH 6 0
BBX 6 6 0 0
BITMAP
7FE0
8020
8020
8020
8020
4020
ENDCHAR
STARTCHAR uni2294
ENCODING 8852
SWIDTH 635 0
DWIDTH 6 0
BBX 6 6 0 0
BITMAP
8020
8020
8020
8020
8020
7FE0
ENDCHAR
STARTCHAR uni2295
ENCODING 8853
SWIDTH 862 0
DWIDTH 9 0
BBX 8 8 0 -2
BITMAP
0AE4
2485
5082
7FFF
5082
2086
19A8
0150
ENDCHAR
STARTCHAR uni2296
ENCODING 8854
SWIDTH 862 0
DWIDTH 9 0
BBX 8 8 0 -1
BITMAP
07E4
281D
6002
5002
7FFF
5002
2419
07E4
ENDCHAR
STARTCHAR uni2297
ENCODING 8855
SWIDTH 862 0
DWIDTH 9 0
BBX 8 8 0 -1
BITMAP
07E4
281D
6926
5292
5292
6926
281D
07E4
ENDCHAR
STARTCHAR uni2298
ENCODING 8856
SWIDTH 862 0
DWIDTH 9 0
BBX 8 8 0 -1
BITMAP
07E4
281D
6016
5052
5142
6502
2819
07E4
ENDCHAR
STARTCHAR uni2299
ENCODING 8857
SWIDTH 862 0
DWIDTH 9 0
BBX 8 8 0 -1
BITMAP
07E4
2819
6002
5002
5182
6002
2819
07E4
ENDCHAR
STARTCHAR uni229A
ENCODING 8858
SWIDTH 862 0
DWIDTH 9 0
BBX 8 8 0 -1
BITMAP
07E4
2819
6002
52D2
5262
62D2
2819
07E4
ENDCHAR
STARTCHAR uni229B
ENCODING 8859
SWIDTH 862 0
DWIDTH 9 0
BBX 8 8 0 -1
BITMAP
07E4
2819
6082
5562
5562
6082
2819
07E4
ENDCHAR
STARTCHAR uni229C
ENCODING 8860
SWIDTH 862 0
DWIDTH 9 0
BBX 8 8 0 -1
BITMAP
07E4
2819
6002
5FF6
5FF6
6002
2819
07E4
ENDCHAR
STARTCHAR uni229D
ENCODING 8861
SWIDTH 862 0
DWIDTH 9 0
BBX 8 8 0 -1
BITMAP
07E4
2819
6002
5002
5FF6
6002
2819
07E4
ENDCHAR
STARTCHAR uni229E
ENCODING 8862
SWIDTH 932 0
DWIDTH 9 0
BBX 9 9 0 -2
BITMAP
BFFF80
808080
808080
808080
BFFFC0
808080
808080
808080
BFFF80
ENDCHAR
STARTCHAR uni229F
ENCODING 8863
SWIDTH 932 0
DWIDTH 9 0
BBX 9 9 0 -2
BITMAP
BFFF80
800080
800080
800080
BFFFC0
800080
800080
800080
BFFF80
ENDCHAR
STARTCHAR uni22A0
ENCODING 8864
SWIDTH 932 0
DWIDTH 9 0
BBX 9 9 0 -2
BITMAP
BFFF80
A00280
980980
822480
80D080
826080
890880
A40280
BFFF80
ENDCHAR
STARTCHAR uni22A1
ENCODING 8865
SWIDTH 932 0
DWIDTH 9 0
BBX 9 9 0 -2
BITMAP
BFFF80
800080
800080
800080
808080
800080
800080
800080
BFFF80
ENDCHAR
STARTCHAR uni22A2
ENCODING 8866
SWIDTH 720 0
DWIDTH 7 0
BBX 7 7 0 0
BITMAP
1000
5000
5000
7FF4
5000
5000
5000
ENDCHAR
STARTCHAR uni22A3
ENCODING 8867
SWIDTH 720 0
DWIDTH 7 0
BBX 7 7 0 0
BITMAP
0004
0014
0014
7FF4
0014
0014
0014
ENDCHAR
STARTCHAR uni22A4
ENCODING 8868
SWIDTH 720 0
DWIDTH 7 0
BBX 7 7 0 0
BITMAP
7FF8
0200
0200
0200
0200
0200
0200
ENDCHAR
STARTCHAR uni22A5
ENCODING 8869
SWIDTH 720 0
DWIDTH 7 0
BBX 7 7 0 0
BITMAP
0200
0200
0200
0200
0200
0200
7FF8
ENDCHAR
STARTCHAR uni22A6
ENCODING 8870
SWIDTH 509 0
DWIDTH 5 0
BBX 5 7 0 0
BITMAP
5000
5000
5000
7F40
5000
5000
5000
ENDCHAR
STARTCHAR uni22A7
ENCODING 8871
SWIDTH 510 0
DWIDTH 5 0
BBX 5 7 0 0
BITMAP
5000
5000
7F40
5000
7F40
5000
5000
ENDCHAR
STARTCHAR uni22A8
ENCODING 8872
SWIDTH 720 0
DWIDTH 7 0
BBX 7 7 0 0
BITMAP
5000
5000
7FF4
5000
7FF4
5000
5000
ENDCHAR
STARTCHAR uni22A9
ENCODING 8873
SWIDTH 880 0
DWIDTH 9 0
BBX 9 7 0 0
BITMAP
450000
550000
550000
57FF40
550000
550000
550000
ENDCHAR
STARTCHAR uni22AA
ENCODING 8874
SWIDTH 880 0
DWIDTH 9 0
BBX 9 7 0 0
BITMAP
444000
855000
855000
857F40
855000
855000
855000
ENDCHAR
STARTCHAR uni22AB
ENCODING 8875
SWIDTH 880 0
DWIDTH 9 0
BBX 9 7 0 0
BITMAP
550000
550000
57FF40
550000
57FF40
550000
550000
ENDCHAR
STARTCHAR uni22AC
ENCODING 8876
SWIDTH 805 0
DWIDTH 8 0
BBX 8 7 0 0
BITMAP
1404
1414
1490
1FFD
1900
2400
6400
ENDCHAR
STARTCHAR uni22AD
ENCODING 8877
SWIDTH 805 0
DWIDTH 8 0
BBX 8 7 0 0
BITMAP
1408
1420
1FFD
1540
1FFD
2400
6400
ENDCHAR
STARTCHAR uni22AE
ENCODING 8878
SWIDTH 991 0
DWIDTH 10 0
BBX 10 7 0 0
BITMAP
144040
154200
155400
15FFD0
164000
194000
654000
ENDCHAR
STARTCHAR uni22AF
ENCODING 8879
SWIDTH 991 0
DWIDTH 10 0
BBX 10 7 0 0
BITMAP
154180
154500
15FFD0
159000
16FFD0
194000
654000
ENDCHAR
STARTCHAR uni22B0
ENCODING 8880
SWIDTH 720 0
DWIDTH 7 0
BBX 6 6 1 -1
BITMAP
0150
0090
AE40
0540
0150
01D0
ENDCHAR
STARTCHAR uni22B1
ENCODING 8881
SWIDTH 720 0
DWIDTH 7 0
BBX 7 6 0 -1
BITMAP
1400
2400
0BE4
1500
5400
3400
ENDCHAR
STARTCHAR uni22B2
ENCODING 8882
SWIDTH 720 0
DWIDTH 7 0
BBX 6 6 1 0
BITMAP
0010
01A0
2920
A020
1A20
01A0
ENDCHAR
STARTCHAR uni22B3
ENCODING 8883
SWIDTH 720 0
DWIDTH 7 0
BBX 7 5 0 0
BITMAP
A800
9680
9074
9640
A400
ENDCHAR
STARTCHAR uni22B4
ENCODING 8884
SWIDTH 720 0
DWIDTH 7 0
BBX 7 8 0 -1
BITMAP
0004
0068
0A48
2808
0688
0068
0000
7FF8
ENDCHAR
STARTCHAR uni22B5
ENCODING 8885
SWIDTH 720 0
DWIDTH 7 0
BBX 7 8 0 -1
BITMAP
4000
A800
9290
9074
9640
A400
0000
7FF8
ENDCHAR
STARTCHAR uni22B6
ENCODING 8886
SWIDTH 1172 0
DWIDTH 12 0
BBX 11 3 0 1
BITMAP
2D0078
57FFFC
2D0078
ENDCHAR
STARTCHAR uni22B7
ENCODING 8887
SWIDTH 1172 0
DWIDTH 12 0
BBX 11 3 0 1
BITMAP
2D0078
7FFF88
2D0078
ENDCHAR
STARTCHAR uni22B8
ENCODING 8888
SWIDTH 869 0
DWIDTH 9 0
BBX 8 3 0 1
BITMAP
001E
7FE2
001E
ENDCHAR
STARTCHAR uni22B9
ENCODING 8889
SWIDTH 720 0
DWIDTH 7 0
BBX 7 6 0 0
BITMAP
0200
0200
78B8
0000
0200
0200
ENDCHAR
STARTCHAR uni22BA
ENCODING 8890
SWIDTH 491 0
DWIDTH 5 0
BBX 4 7 0 -2
BITMAP
7F
0C
0C
0C
0C
0C
08
ENDCHAR
STARTCHAR uni22BB
ENCODING 8891
SWIDTH 635 0
DWIDTH 6 0
BBX 6 7 0 -2
BITMAP
5020
2050
1480
0940
0A00
0100
7FE0
ENDCHAR
STARTCHAR uni22BC
ENCODING 8892
SWIDTH 635 0
DWIDTH 6 0
BBX 6 7 0 0
BITMAP
7FE0
0100
0600
0940
1480
2050
5020
ENDCHAR
STARTCHAR uni22BD
ENCODING 8893
SWIDTH 635 0
DWIDTH 6 0
BBX 6 7 0 0
BITMAP
7FE0
4010
2050
2080
0940
0A00
0100
ENDCHAR
STARTCHAR uni22BE
ENCODING 8894
SWIDTH 720 0
DWIDTH 7 0
BBX 7 6 0 0
BITMAP
5000
5000
6900
5240
5080
7FF8
ENDCHAR
STARTCHAR uni22BF
ENCODING 8895
SWIDTH 933 0
DWIDTH 9 0
BBX 8 9 1 -2
BITMAP
0001
0006
001A
0062
0182
0602
1802
6002
FFFE
ENDCHAR
STARTCHAR uni22C0
ENCODING 8896
SWIDTH 946 0
DWIDTH 9 0
BBX 9 11 0 -3
BITMAP
004000
00D000
01A000
022000
021400
050800
080900
080600
240200
200140
600080
ENDCHAR
STARTCHAR uni22C1
ENCODING 8897
SWIDTH 946 0
DWIDTH 9 0
BBX 9 11 0 -3
BITMAP
500040
200180
200200
140200
080500
090800
060800
022400
016000
00E000
009000
ENDCHAR
STARTCHAR uni22C2
ENCODING 8898
SWIDTH 946 0
DWIDTH 9 0
BBX 8 11 1 -3
BITMAP
1BE0
7428
8009
8005
8006
8006
8006
8006
8006
8006
8005
ENDCHAR
STARTCHAR uni22C3
ENCODING 8899
SWIDTH 946 0
DWIDTH 9 0
BBX 8 11 1 -3
BITMAP
4001
8006
8006
8006
8006
8006
8006
8005
C009
6428
1BE0
ENDCHAR
STARTCHAR uni22C4
ENCODING 8900
SWIDTH 535 0
DWIDTH 5 0
BBX 5 5 0 0
BITMAP
0900
2640
5080
2600
0800
ENDCHAR
STARTCHAR uni22C5
ENCODING 8901
SWIDTH 293 0
DWIDTH 3 0
BBX 1 1 1 2
BITMAP
80
ENDCHAR
STARTCHAR uni22C6
ENCODING 8902
SWIDTH 716 0
DWIDTH 7 0
BBX 6 6 1 0
BITMAP
0800
0D00
BFD0
2F00
3B00
5040
ENDCHAR
STARTCHAR uni22C7
ENCODING 8903
SWIDTH 720 0
DWIDTH 7 0
BBX 7 5 0 0
BITMAP
2324
0990
7FF8
0980
2364
ENDCHAR
STARTCHAR uni22C8
ENCODING 8904
SWIDTH 829 0
DWIDTH 8 0
BBX 8 7 0 -1
BITMAP
5001
641A
5662
52C2
5962
640A
4001
ENDCHAR
STARTCHAR uni22C9
ENCODING 8905
SWIDTH 829 0
DWIDTH 8 0
BBX 7 7 1 -1
BITMAP
4014
E060
9980
8B00
A580
D060
4004
ENDCHAR
STARTCHAR uni22CA
ENCODING 8906
SWIDTH 829 0
DWIDTH 8 0
BBX 7 7 1 -1
BITMAP
4014
6074
1994
0B14
1594
9074
4004
ENDCHAR
STARTCHAR uni22CB
ENCODING 8907
SWIDTH 829 0
DWIDTH 8 0
BBX 7 7 1 -1
BITMAP
8000
6000
1800
0A00
1980
6060
4014
ENDCHAR
STARTCHAR uni22CC
ENCODING 8908
SWIDTH 829 0
DWIDTH 8 0
BBX 7 7 1 -1
BITMAP
0014
0060
0180
0700
1980
6060
4014
ENDCHAR
STARTCHAR uni22CD
ENCODING 8909
SWIDTH 720 0
DWIDTH 7 0
BBX 7 4 0 0
BITMAP
51A0
1904
0000
7FF8
ENDCHAR
STARTCHAR uni22CE
ENCODING 8910
SWIDTH 594 0
DWIDTH 6 0
BBX 6 6 0 0
BITMAP
4050
2080
1540
0A00
0A00
0500
ENDCHAR
STARTCHAR uni22CF
ENCODING 8911
SWIDTH 594 0
DWIDTH 6 0
BBX 6 6 0 0
BITMAP
0500
0900
0A00
0A00
2540
5090
ENDCHAR
STARTCHAR uni22D0
ENCODING 8912
SWIDTH 720 0
DWIDTH 7 0
BBX 7 6 0 0
BITMAP
0BF4
2400
67F4
6800
2BF4
0BF4
ENDCHAR
STARTCHAR uni22D1
ENCODING 8913
SWIDTH 720 0
DWIDTH 7 0
BBX 7 6 0 0
BITMAP
7F90
0020
7F94
0094
7FA0
7F90
ENDCHAR
STARTCHAR uni22D2
ENCODING 8914
SWIDTH 635 0
DWIDTH 6 0
BBX 6 6 0 -1
BITMAP
1F80
6FA0
5960
9960
9960
4450
ENDCHAR
STARTCHAR uni22D3
ENCODING 8915
SWIDTH 635 0
DWIDTH 6 0
BBX 6 6 0 0
BITMAP
9960
9960
9960
5960
7FA0
1F80
ENDCHAR
STARTCHAR uni22D4
ENCODING 8916
SWIDTH 635 0
DWIDTH 6 0
BBX 6 7 0 0
BITMAP
0600
1B80
6650
5620
8620
8620
8620
ENDCHAR
STARTCHAR uni22D5
ENCODING 8917
SWIDTH 720 0
DWIDTH 7 0
BBX 7 9 0 -2
BITMAP
0880
0880
0880
7FF8
0880
7FF8
0880
0880
0880
ENDCHAR
STARTCHAR uni22D6
ENCODING 8918
SWIDTH 720 0
DWIDTH 7 0
BBX 6 5 1 0
BITMAP
0190
1900
A240
1900
0190
ENDCHAR
STARTCHAR uni22D7
ENCODING 8919
SWIDTH 720 0
DWIDTH 7 0
BBX 6 5 0 0
BITMAP
6400
0640
1870
0680
2400
ENDCHAR
STARTCHAR uni22D8
ENCODING 8920
SWIDTH 1304 0
DWIDTH 13 0
BBX 13 6 0 0
BITMAP
00000040
00A29640
1A696400
74E28000
06596400
00619640
ENDCHAR
STARTCHAR uni22D9
ENCODING 8921
SWIDTH 1304 0
DWIDTH 13 0
BBX 13 6 0 0
BITMAP
40000000
65A28000
065A6900
00A1C740
06596400
65924000
ENDCHAR
STARTCHAR uni22DA
ENCODING 8922
SWIDTH 720 0
DWIDTH 7 0
BBX 7 13 0 -4
BITMAP
0004
01A0
2900
0640
0064
0000
7FF4
0000
6400
0680
01A0
1900
1000
ENDCHAR
STARTCHAR uni22DB
ENCODING 8923
SWIDTH 720 0
DWIDTH 7 0
BBX 7 13 0 -4
BITMAP
1000
1900
01A0
0690
6400
0000
7FF4
0000
0064
0640
2900
01A0
0004
ENDCHAR
STARTCHAR uni22DC
ENCODING 8924
SWIDTH 720 0
DWIDTH 7 0
BBX 7 8 0 -2
BITMAP
7FF4
0000
0064
0680
2800
0A00
00A0
0004
ENDCHAR
STARTCHAR uni22DD
ENCODING 8925
SWIDTH 720 0
DWIDTH 7 0
BBX 7 8 0 -2
BITMAP
7FF4
0000
2400
0640
0060
0290
2900
1000
ENDCHAR
STARTCHAR uni22DE
ENCODING 8926
SWIDTH 720 0
DWIDTH 7 0
BBX 7 7 0 -1
BITMAP
0024
0690
7914
0190
6E00
0690
0024
ENDCHAR
STARTCHAR uni22DF
ENCODING 8927
SWIDTH 720 0
DWIDTH 7 0
BBX 6 7 1 -1
BITMAP
8000
6900
86D0
6400
0B90
2900
8000
ENDCHAR
STARTCHAR uni22E0
ENCODING 8928
SWIDTH 720 0
DWIDTH 7 0
BBX 6 10 1 -2
BITMAP
0080
0050
0180
6A00
AA00
0640
A850
0A80
1450
2000
ENDCHAR
STARTCHAR uni22E1
ENCODING 8929
SWIDTH 720 0
DWIDTH 7 0
BBX 7 10 0 -2
BITMAP
0040
5140
1600
0794
0794
1800
5AA4
2800
6400
2000
ENDCHAR
STARTCHAR uni22E2
ENCODING 8930
SWIDTH 720 0
DWIDTH 7 0
BBX 7 11 0 -3
BITMAP
0010
0010
7FF4
5080
5140
5200
5200
7FF4
7FF4
1400
1000
ENDCHAR
STARTCHAR uni22E3
ENCODING 8931
SWIDTH 720 0
DWIDTH 7 0
BBX 7 10 0 -2
BITMAP
0010
0010
7FF4
0094
0054
0114
0214
7FF4
7FF4
0400
ENDCHAR
STARTCHAR uni22E4
ENCODING 8932
SWIDTH 720 0
DWIDTH 7 0
BBX 7 9 0 -2
BITMAP
6AA4
5000
5000
5000
5000
6AA4
0140
6BA4
0400
ENDCHAR
STARTCHAR uni22E5
ENCODING 8933
SWIDTH 720 0
DWIDTH 7 0
BBX 7 9 0 -2
BITMAP
6AA4
0014
0014
0014
0014
6AA4
0140
6BA4
0500
ENDCHAR
STARTCHAR uni22E6
ENCODING 8934
SWIDTH 720 0
DWIDTH 7 0
BBX 7 10 0 -3
BITMAP
0014
0190
1900
2900
0290
0014
0040
2E04
52A0
0400
ENDCHAR
STARTCHAR uni22E7
ENCODING 8935
SWIDTH 720 0
DWIDTH 7 0
BBX 7 10 0 -3
BITMAP
5000
1900
0190
00A0
0A00
6000
0080
2E04
52A0
0400
ENDCHAR
STARTCHAR uni22E8
ENCODING 8936
SWIDTH 720 0
DWIDTH 7 0
BBX 7 10 0 -3
BITMAP
0004
0060
1A40
2A40
0060
0004
0040
2E04
52A0
0400
ENDCHAR
STARTCHAR uni22E9
ENCODING 8937
SWIDTH 720 0
DWIDTH 7 0
BBX 7 10 0 -3
BITMAP
4000
2400
0690
06A4
2800
5000
0080
2E04
52A0
0400
ENDCHAR
STARTCHAR uni22EA
ENCODING 8938
SWIDTH 650 0
DWIDTH 7 0
BBX 6 8 0 -2
BITMAP
0080
00A0
0760
6620
1A20
09A0
0810
1000
ENDCHAR
STARTCHAR uni22EB
ENCODING 8939
SWIDTH 650 0
DWIDTH 7 0
BBX 6 9 0 -2
BITMAP
0040
0080
6140
5B00
52A0
5A80
6800
6400
2000
ENDCHAR
STARTCHAR uni22EC
ENCODING 8940
SWIDTH 650 0
DWIDTH 7 0
BBX 6 11 0 -3
BITMAP
0040
0080
00F0
1A60
7620
0A60
05B0
0800
BFF0
1000
1000
ENDCHAR
STARTCHAR uni22ED
ENCODING 8941
SWIDTH 650 0
DWIDTH 7 0
BBX 7 11 0 -3
BITMAP
0040
0040
6540
5740
52A0
5A40
6800
0800
7FF4
1400
1000
ENDCHAR
STARTCHAR uni22EE
ENCODING 8942
SWIDTH 519 0
DWIDTH 5 0
BBX 1 7 2 -1
BITMAP
80
00
00
80
00
00
80
ENDCHAR
STARTCHAR uni22EF
ENCODING 8943
SWIDTH 953 0
DWIDTH 10 0
BBX 8 1 1 2
BITMAP
8249
ENDCHAR
STARTCHAR uni22F0
ENCODING 8944
SWIDTH 962 0
DWIDTH 10 0
BBX 6 5 2 0
BITMAP
0050
0000
0900
0000
8000
ENDCHAR
STARTCHAR uni22F1
ENCODING 8945
SWIDTH 962 0
DWIDTH 10 0
BBX 6 5 2 0
BITMAP
8000
0000
0900
0000
0050
ENDCHAR
STARTCHAR uni22F2
ENCODING 8946
SWIDTH 838 0
DWIDTH 8 0
BBX 8 6 0 0
BITMAP
02FE
0600
0800
7FFE
0900
02FE
ENDCHAR
STARTCHAR uni22F3
ENCODING 8947
SWIDTH 720 0
DWIDTH 7 0
BBX 7 6 0 0
BITMAP
0BF4
2400
6014
7FF4
2004
0BF4
ENDCHAR
STARTCHAR uni22F4
ENCODING 8948
SWIDTH 497 0
DWIDTH 5 0
BBX 5 4 0 0
BITMAP
1B40
7F40
6140
2F40
ENDCHAR
STARTCHAR uni22F5
ENCODING 8949
SWIDTH 720 0
DWIDTH 7 0
BBX 7 8 0 0
BITMAP
0240
0000
0BF4
2400
6000
7FF4
2000
0BF4
ENDCHAR
STARTCHAR uni22F6
ENCODING 8950
SWIDTH 720 0
DWIDTH 7 0
BBX 7 7 0 0
BITMAP
3FF4
0BF4
2400
6000
7FF4
2000
0BF4
ENDCHAR
STARTCHAR uni22F7
ENCODING 8951
SWIDTH 497 0
DWIDTH 5 0
BBX 5 6 0 0
BITMAP
3F40
0000
1F40
7F40
6000
2F40
ENDCHAR
STARTCHAR uni22F8
ENCODING 8952
SWIDTH 720 0
DWIDTH 7 0
BBX 7 7 0 -2
BITMAP
0BF4
2000
7FF4
6000
2400
0BF4
3FF4
ENDCHAR
STARTCHAR uni22F9
ENCODING 8953
SWIDTH 720 0
DWIDTH 7 0
BBX 7 6 0 0
BITMAP
0BF4
2400
7FF4
7FF4
2400
0BF4
ENDCHAR
STARTCHAR uni22FA
ENCODING 8954
SWIDTH 838 0
DWIDTH 8 0
BBX 8 6 0 0
BITMAP
7F80
0060
0024
7FFE
0020
7F90
ENDCHAR
STARTCHAR uni22FB
ENCODING 8955
SWIDTH 720 0
DWIDTH 7 0
BBX 7 6 0 0
BITMAP
7F90
0070
5024
7FF4
1020
7F90
ENDCHAR
STARTCHAR uni22FC
ENCODING 8956
SWIDTH 497 0
DWIDTH 5 0
BBX 5 4 0 0
BITMAP
6900
7F40
5240
7D00
ENDCHAR
STARTCHAR uni22FD
ENCODING 8957
SWIDTH 720 0
DWIDTH 7 0
BBX 7 7 0 0
BITMAP
7FF4
7F90
0070
0024
7FF4
0020
7F90
ENDCHAR
STARTCHAR uni22FE
ENCODING 8958
SWIDTH 497 0
DWIDTH 5 0
BBX 5 6 0 0
BITMAP
7F00
0000
7D00
7F40
0240
7D00
ENDCHAR
STARTCHAR uni22FF
ENCODING 8959
SWIDTH 932 0
DWIDTH 9 0
BBX 9 9 0 -2
BITMAP
BFFF80
800000
800000
800000
BFFF80
800000
800000
800000
BFFF80
ENDCHAR
STARTCHAR uni2300
ENCODING 8960
SWIDTH 620 0
DWIDTH 6 0
BBX 6 5 0 0
BITMAP
1F60
3590
5150
2490
6B40
ENDCHAR
STARTCHAR uni2301
ENCODING 8961
SWIDTH 598 0
DWIDTH 6 0
BBX 6 3 0 1
BITMAP
5500
2A90
0510
ENDCHAR
STARTCHAR uni2302
ENCODING 8962
SWIDTH 948 0
DWIDTH 9 0
BBX 9 8 0 0
BITMAP
009000
061800
180600
600180
500080
500080
500080
7FFFC0
ENDCHAR
STARTCHAR uni2303
ENCODING 8963
SWIDTH 630 0
DWIDTH 6 0
BBX 6 3 0 3
BITMAP
0600
1980
6050
ENDCHAR
STARTCHAR uni2304
ENCODING 8964
SWIDTH 630 0
DWIDTH 6 0
BBX 6 3 0 0
BITMAP
6050
1980
0600
ENDCHAR
STARTCHAR uni2305
ENCODING 8965
SWIDTH 635 0
DWIDTH 6 0
BBX 6 6 0 0
BITMAP
7FE0
0100
0A00
1980
2080
5020
ENDCHAR
STARTCHAR uni2306
ENCODING 8966
SWIDTH 635 0
DWIDTH 6 0
BBX 6 7 0 0
BITMAP
7FE0
7FE0
0100
0A00
1980
2080
5020
ENDCHAR
STARTCHAR uni2307
ENCODING 8967
SWIDTH 470 0
DWIDTH 5 0
BBX 3 10 1 -2
BITMAP
40
60
18
60
80
24
14
90
90
14
ENDCHAR
STARTCHAR uni2308
ENCODING 8968
SWIDTH 349 0
DWIDTH 3 0
BBX 2 10 1 -2
BITMAP
F0
80
80
80
80
80
80
80
80
80
ENDCHAR
STARTCHAR uni2309
ENCODING 8969
SWIDTH 349 0
DWIDTH 3 0
BBX 3 10 0 -2
BITMAP
B8
18
18
18
18
18
18
18
18
18
ENDCHAR
STARTCHAR uni230A
ENCODING 8970
SWIDTH 349 0
DWIDTH 3 0
BBX 2 10 1 -2
BITMAP
40
80
80
80
80
80
80
80
80
F0
ENDCHAR
STARTCHAR uni230B
ENCODING 8971
SWIDTH 349 0
DWIDTH 3 0
BBX 3 10 0 -2
BITMAP
04
18
18
18
18
18
18
18
18
B8
ENDCHAR
STARTCHAR uni230C
ENCODING 8972
SWIDTH 474 0
DWIDTH 5 0
BBX 5 4 0 -2
BITMAP
2F40
5000
5000
5000
ENDCHAR
STARTCHAR uni230D
ENCODING 8973
SWIDTH 474 0
DWIDTH 5 0
BBX 5 4 0 -2
BITMAP
7E00
0140
0140
0140
ENDCHAR
STARTCHAR uni230E
ENCODING 8974
SWIDTH 474 0
DWIDTH 5 0
BBX 5 4 0 5
BITMAP
5000
5000
5000
2F40
ENDCHAR
STARTCHAR uni230F
ENCODING 8975
SWIDTH 474 0
DWIDTH 5 0
BBX 5 4 0 5
BITMAP
0140
0140
0140
7E00
ENDCHAR
STARTCHAR uni2310
ENCODING 8976
SWIDTH 614 0
DWIDTH 6 0
BBX 6 3 0 1
BITMAP
7FE0
8000
4000
ENDCHAR
STARTCHAR uni2311
ENCODING 8977
SWIDTH 535 0
DWIDTH 5 0
BBX 4 3 1 1
BITMAP
B9
41
BD
ENDCHAR
STARTCHAR uni2312
ENCODING 8978
SWIDTH 780 0
DWIDTH 8 0
BBX 7 4 0 0
BITMAP
0BE0
2428
5008
4004
ENDCHAR
STARTCHAR uni2313
ENCODING 8979
SWIDTH 780 0
DWIDTH 8 0
BBX 8 4 0 0
BITMAP
0BD0
2424
6008
7FFD
ENDCHAR
STARTCHAR uni2314
ENCODING 8980
SWIDTH 604 0
DWIDTH 6 0
BBX 6 5 0 1
BITMAP
2F90
9060
2080
1A00
0500
ENDCHAR
STARTCHAR uni2315
ENCODING 8981
SWIDTH 867 0
DWIDTH 9 0
BBX 8 8 0 -2
BITMAP
02F4
0909
1402
2002
1402
0D09
26F4
5000
ENDCHAR
STARTCHAR uni2316
ENCODING 8982
SWIDTH 1126 0
DWIDTH 11 0
BBX 11 11 0 -3
BITMAP
001000
002000
00B900
022240
082080
7FFFF8
082080
022240
00B900
002000
001000
ENDCHAR
STARTCHAR uni2317
ENCODING 8983
SWIDTH 1126 0
DWIDTH 11 0
BBX 11 11 0 -3
BITMAP
010100
020200
020200
7FFFF8
020200
020200
020200
7FFFF8
020200
020200
010100
ENDCHAR
STARTCHAR uni2318
ENCODING 8984
SWIDTH 948 0
DWIDTH 9 0
BBX 9 9 0 -2
BITMAP
2D0B40
521480
522080
2FFF40
022000
2FFF40
522080
521480
2D0B40
ENDCHAR
STARTCHAR uni2319
ENCODING 8985
SWIDTH 614 0
DWIDTH 6 0
BBX 6 3 0 1
BITMAP
8000
8000
7FE0
ENDCHAR
STARTCHAR uni231A
ENCODING 8986
SWIDTH 720 0
DWIDTH 7 0
BBX 7 8 0 -1
BITMAP
0B80
0A90
20A0
6154
7B24
2010
1A90
0BC0
ENDCHAR
STARTCHAR uni231B
ENCODING 8987
SWIDTH 633 0
DWIDTH 6 0
BBX 6 7 0 0
BITMAP
7FE0
2040
1A80
0A40
1680
2A80
7FE0
ENDCHAR
STARTCHAR uni231C
ENCODING 8988
SWIDTH 474 0
DWIDTH 5 0
BBX 5 4 0 3
BITMAP
7F40
5000
5000
5000
ENDCHAR
STARTCHAR uni231D
ENCODING 8989
SWIDTH 474 0
DWIDTH 5 0
BBX 5 4 0 3
BITMAP
7F40
0140
0140
0140
ENDCHAR
STARTCHAR uni231E
ENCODING 8990
SWIDTH 474 0
DWIDTH 5 0
BBX 5 4 0 -2
BITMAP
5000
5000
5000
7F40
ENDCHAR
STARTCHAR uni231F
ENCODING 8991
SWIDTH 474 0
DWIDTH 5 0
BBX 5 4 0 -2
BITMAP
0140
0140
0140
7F40
ENDCHAR
STARTCHAR uni2320
ENCODING 8992
SWIDTH 767 0
DWIDTH 8 0
BBX 5 17 2 0
BITMAP
0B40
1980
2540
2400
3400
3400
3000
3000
3000
7000
7000
7000
7000
7000
7000
7000
7000
ENDCHAR
STARTCHAR uni2321
ENCODING 8993
SWIDTH 767 0
DWIDTH 8 0
BBX 4 20 0 0
BITMAP
01
07
07
07
07
07
07
07
07
07
07
07
07
07
06
06
06
05
98
64
ENDCHAR
STARTCHAR uni2322
ENCODING 8994
SWIDTH 1043 0
DWIDTH 10 0
BBX 8 2 1 2
BITMAP
1BE4
5005
ENDCHAR
STARTCHAR uni2323
ENCODING 8995
SWIDTH 1043 0
DWIDTH 10 0
BBX 8 2 1 1
BITMAP
5005
1BE4
ENDCHAR
STARTCHAR uni2324
ENCODING 8996
SWIDTH 630 0
DWIDTH 6 0
BBX 6 4 0 3
BITMAP
B6A0
0A40
2090
4010
ENDCHAR
STARTCHAR uni2325
ENCODING 8997
SWIDTH 695 0
DWIDTH 7 0
BBX 7 7 0 0
BITMAP
B8B8
0800
0500
0200
0240
0080
00B8
ENDCHAR
STARTCHAR uni2326
ENCODING 8998
SWIDTH 987 0
DWIDTH 10 0
BBX 9 7 1 0
BITMAP
BFF000
400800
444200
420040
444200
400800
BFF000
ENDCHAR
STARTCHAR uni2327
ENCODING 8999
SWIDTH 934 0
DWIDTH 9 0
BBX 7 9 1 -1
BITMAP
2010
BFFC
4854
4544
4204
4544
4454
BFFC
2010
ENDCHAR
STARTCHAR uni2328
ENCODING 9000
SWIDTH 1235 0
DWIDTH 12 0
BBX 12 6 0 0
BITMAP
6AAAA9
5AAAA9
5AAAA9
56AAA9
58AA15
155555
ENDCHAR
STARTCHAR uni2329
ENCODING 9001
SWIDTH 409 0
DWIDTH 4 0
BBX 3 9 1 -2
BITMAP
20
20
50
80
80
80
50
20
14
ENDCHAR
STARTCHAR uni232A
ENCODING 9002
SWIDTH 409 0
DWIDTH 4 0
BBX 3 9 1 -2
BITMAP
80
40
20
20
24
20
50
80
40
ENDCHAR
STARTCHAR uni232B
ENCODING 9003
SWIDTH 987 0
DWIDTH 10 0
BBX 9 7 0 0
BITMAP
07FF80
080040
204440
806040
204440
080040
07FF80
ENDCHAR
STARTCHAR uni232C
ENCODING 9004
SWIDTH 948 0
DWIDTH 9 0
BBX 8 9 1 -2
BITMAP
0680
6568
90A6
A016
A002
A026
9299
19A0
0140
ENDCHAR
STARTCHAR uni232D
ENCODING 9005
SWIDTH 1009 0
DWIDTH 10 0
BBX 10 7 0 -1
BITMAP
008050
02F480
020A40
090600
1A0900
21F800
502000
ENDCHAR
STARTCHAR uni232E
ENCODING 9006
SWIDTH 639 0
DWIDTH 6 0
BBX 6 6 0 -1
BITMAP
0B80
2460
23F0
5960
6B80
F800
ENDCHAR
STARTCHAR uni232F
ENCODING 9007
SWIDTH 592 0
DWIDTH 6 0
BBX 6 3 0 1
BITMAP
1F40
BFE0
1F40
ENDCHAR
STARTCHAR uni2330
ENCODING 9008
SWIDTH 685 0
DWIDTH 7 0
BBX 7 7 0 0
BITMAP
0400
1968
1420
1050
1080
5080
BF40
ENDCHAR
STARTCHAR uni2331
ENCODING 9009
SWIDTH 734 0
DWIDTH 7 0
BBX 8 7 0 0
BITMAP
0400
1900
4944
8FFD
8844
2900
0800
ENDCHAR
STARTCHAR uni2332
ENCODING 9010
SWIDTH 910 0
DWIDTH 9 0
BBX 8 7 0 -1
BITMAP
1000
6A40
50A4
7FFF
50A4
6A40
1000
ENDCHAR
STARTCHAR uni2333
ENCODING 9011
SWIDTH 810 0
DWIDTH 8 0
BBX 6 4 1 1
BITMAP
4000
9400
8140
FFE0
ENDCHAR
STARTCHAR uni2334
ENCODING 9012
SWIDTH 657 0
DWIDTH 7 0
BBX 5 4 1 0
BITMAP
4040
8080
8080
FF80
ENDCHAR
STARTCHAR uni2335
ENCODING 9013
SWIDTH 577 0
DWIDTH 6 0
BBX 4 4 1 0
BITMAP
82
55
28
10
ENDCHAR
STARTCHAR uni2336
ENCODING 9014
SWIDTH 678 0
DWIDTH 7 0
BBX 7 10 0 -2
BITMAP
BFF4
0200
0200
0200
0200
0200
0200
0200
0200
BFF4
ENDCHAR
STARTCHAR uni2337
ENCODING 9015
SWIDTH 488 0
DWIDTH 5 0
BBX 4 10 0 -2
BITMAP
7F
52
52
52
52
52
52
52
52
7F
ENDCHAR
STARTCHAR uni2338
ENCODING 9016
SWIDTH 678 0
DWIDTH 7 0
BBX 6 10 0 -2
BITMAP
7FF0
5020
5020
5020
5020
7FF0
5020
7FF0
5020
7FF0
ENDCHAR
STARTCHAR uni2339
ENCODING 9017
SWIDTH 678 0
DWIDTH 7 0
BBX 6 10 0 -2
BITMAP
7FF0
5020
5020
5220
5020
7FF0
5020
5220
5020
7FF0
ENDCHAR
STARTCHAR uni233A
ENCODING 9018
SWIDTH 678 0
DWIDTH 7 0
BBX 6 10 0 -2
BITMAP
7FF0
5020
5020
5660
64A0
64A0
5660
5020
5020
7FF0
ENDCHAR
STARTCHAR uni233B
ENCODING 9019
SWIDTH 678 0
DWIDTH 7 0
BBX 6 10 0 -2
BITMAP
7FF0
5020
5020
5020
5B60
58A0
5B60
5020
5020
7FF0
ENDCHAR
STARTCHAR uni233C
ENCODING 9020
SWIDTH 678 0
DWIDTH 7 0
BBX 6 10 0 -2
BITMAP
7FF0
5020
5020
5BA0
6070
5020
6070
5BA0
5020
7FF0
ENDCHAR
STARTCHAR uni233D
ENCODING 9021
SWIDTH 832 0
DWIDTH 8 0
BBX 8 10 0 -2
BITMAP
0040
0180
1998
2045
5042
4042
5042
2048
0AA0
0040
ENDCHAR
STARTCHAR uni233E
ENCODING 9022
SWIDTH 832 0
DWIDTH 8 0
BBX 8 8 0 -1
BITMAP
0BE0
2418
52D6
4922
4922
52D6
2418
0BE0
ENDCHAR
STARTCHAR uni233F
ENCODING 9023
SWIDTH 638 0
DWIDTH 6 0
BBX 6 9 0 -2
BITMAP
0010
0080
0140
0200
7FE0
0800
0800
1000
2000
ENDCHAR
STARTCHAR uni2340
ENCODING 9024
SWIDTH 638 0
DWIDTH 6 0
BBX 6 10 0 -3
BITMAP
2000
2000
0800
0800
7FE0
0200
0140
0080
0050
0010
ENDCHAR
STARTCHAR uni2341
ENCODING 9025
SWIDTH 678 0
DWIDTH 7 0
BBX 6 10 0 -2
BITMAP
7FF0
5030
50A0
5060
5220
5520
5820
6420
7020
7FF0
ENDCHAR
STARTCHAR uni2342
ENCODING 9026
SWIDTH 678 0
DWIDTH 7 0
BBX 6 10 0 -2
BITMAP
7FF0
7020
6420
5820
5520
5220
5160
50A0
5030
7FF0
ENDCHAR
STARTCHAR uni2343
ENCODING 9027
SWIDTH 678 0
DWIDTH 7 0
BBX 6 10 0 -2
BITMAP
7FF0
5020
5020
51A0
5920
6920
51A0
5020
5020
7FF0
ENDCHAR
STARTCHAR uni2344
ENCODING 9028
SWIDTH 678 0
DWIDTH 7 0
BBX 6 10 0 -2
BITMAP
7FF0
5020
6020
6820
5160
51A0
6920
6020
5020
7FF0
ENDCHAR
STARTCHAR uni2345
ENCODING 9029
SWIDTH 783 0
DWIDTH 8 0
BBX 8 10 0 -3
BITMAP
0080
0080
0080
1080
7FFD
1080
0080
0080
0080
0040
ENDCHAR
STARTCHAR uni2346
ENCODING 9030
SWIDTH 783 0
DWIDTH 8 0
BBX 8 10 0 -3
BITMAP
0200
0200
0200
0204
BFFD
0204
0200
0200
0200
0100
ENDCHAR
STARTCHAR uni2347
ENCODING 9031
SWIDTH 678 0
DWIDTH 7 0
BBX 6 10 0 -2
BITMAP
7FF0
5020
5020
5020
5420
6FF0
5420
5020
5020
7FF0
ENDCHAR
STARTCHAR uni2348
ENCODING 9032
SWIDTH 678 0
DWIDTH 7 0
BBX 6 10 0 -2
BITMAP
7FF0
5020
5020
5020
5060
7FE0
5020
5020
5020
7FF0
ENDCHAR
STARTCHAR uni2349
ENCODING 9033
SWIDTH 832 0
DWIDTH 8 0
BBX 8 10 0 -2
BITMAP
0400
0BE0
1918
2206
4142
4082
5055
2428
0BE4
0008
ENDCHAR
STARTCHAR uni234A
ENCODING 9034
SWIDTH 678 0
DWIDTH 7 0
BBX 7 10 0 -2
BITMAP
0100
0200
0200
0200
0200
0200
0200
0200
BFF4
BFF4
ENDCHAR
STARTCHAR uni234B
ENCODING 9035
SWIDTH 746 0
DWIDTH 7 0
BBX 7 9 0 -2
BITMAP
0200
0240
0780
0A40
0610
1210
1204
7FFC
0200
ENDCHAR
STARTCHAR uni234C
ENCODING 9036
SWIDTH 678 0
DWIDTH 7 0
BBX 6 10 0 -2
BITMAP
7FF0
5020
5020
6460
58A0
5660
5220
5020
5020
7FF0
ENDCHAR
STARTCHAR uni234D
ENCODING 9037
SWIDTH 678 0
DWIDTH 7 0
BBX 6 10 0 -2
BITMAP
7FF0
5020
5020
5220
5560
54A0
6FE0
5020
5020
7FF0
ENDCHAR
STARTCHAR uni234E
ENCODING 9038
SWIDTH 678 0
DWIDTH 7 0
BBX 7 10 0 -2
BITMAP
0100
0200
0200
0A80
2250
1650
0640
0200
0200
BFF4
ENDCHAR
STARTCHAR uni234F
ENCODING 9039
SWIDTH 712 0
DWIDTH 7 0
BBX 7 10 0 -3
BITMAP
0300
0640
0200
0200
BFF8
0200
0200
0200
0200
0100
ENDCHAR
STARTCHAR uni2350
ENCODING 9040
SWIDTH 678 0
DWIDTH 7 0
BBX 6 10 0 -2
BITMAP
7FF0
5220
5760
5220
5220
5220
5220
5220
5220
7FF0
ENDCHAR
STARTCHAR uni2351
ENCODING 9041
SWIDTH 678 0
DWIDTH 7 0
BBX 7 10 0 -3
BITMAP
BFF4
BFF4
0200
0200
0200
0200
0200
0200
0200
0100
ENDCHAR
STARTCHAR uni2352
ENCODING 9042
SWIDTH 746 0
DWIDTH 7 0
BBX 7 10 0 -3
BITMAP
0100
7FFC
1204
2210
1620
0A50
0680
0340
0200
0100
ENDCHAR
STARTCHAR uni2353
ENCODING 9043
SWIDTH 678 0
DWIDTH 7 0
BBX 6 10 0 -2
BITMAP
7FF0
5120
5320
5560
58A0
64A0
7030
6020
5020
7FF0
ENDCHAR
STARTCHAR uni2354
ENCODING 9044
SWIDTH 678 0
DWIDTH 7 0
BBX 6 10 0 -2
BITMAP
7FF0
5020
5020
6FE0
54A0
5560
5220
5020
5020
7FF0
ENDCHAR
STARTCHAR uni2355
ENCODING 9045
SWIDTH 678 0
DWIDTH 7 0
BBX 7 10 0 -2
BITMAP
BFF4
0200
0200
0640
1650
2250
0A80
0200
0200
0100
ENDCHAR
STARTCHAR uni2356
ENCODING 9046
SWIDTH 712 0
DWIDTH 7 0
BBX 7 10 0 -3
BITMAP
0200
0200
0200
0200
BFF8
0200
0200
0200
0740
0100
ENDCHAR
ENDFONT
